<?xml version="1.0" encoding="UTF-8" standalone="no"?><!DOCTYPE svg PUBLIC "-//W3C//DTD SVG 1.1//EN" "http://www.w3.org/Graphics/SVG/1.1/DTD/svg11.dtd"><svg width="100%" height="100%" viewBox="0 0 545 211" version="1.1" xmlns="http://www.w3.org/2000/svg" xmlns:xlink="http://www.w3.org/1999/xlink" xml:space="preserve" xmlns:serif="http://www.serif.com/" style="fill-rule:evenodd;clip-rule:evenodd;stroke-linejoin:round;stroke-miterlimit:1.41421;"><g id="Calque-1" serif:id="Calque 1"><path d="M189.169,168.253c-1.043,0.466 -2.089,0.896 -3.139,1.301c-18.459,21.551 -45.857,35.231 -76.392,35.231c-55.463,0 -100.586,-45.12 -100.586,-100.582c0,-14.137 2.94,-27.6 8.224,-39.819l-2.547,0c-5.159,12.255 -8.019,25.711 -8.019,39.819c0,56.752 46.175,102.925 102.928,102.925c32.892,0 62.229,-15.514 81.086,-39.612c-0.516,0.254 -1.032,0.501 -1.555,0.737" style="fill:#1e1c1a;fill-rule:nonzero;"/><path d="M42.878,29.041c17.773,-15.804 41.162,-25.419 66.76,-25.419c25.494,0 48.797,9.537 66.539,25.23l3.486,0c-18.383,-17.097 -43.001,-27.572 -70.025,-27.572c-27.124,0 -51.825,10.552 -70.23,27.761l3.47,0Z" style="fill:#1e1c1a;fill-rule:nonzero;"/><path d="M19.625,101.263l30.13,0c3.243,0 6.301,-0.344 9.169,-1.03c2.871,-0.683 5.361,-1.84 7.484,-3.463c2.121,-1.62 3.773,-3.678 4.963,-6.175c1.182,-2.494 1.777,-5.548 1.777,-9.169c0,-3.491 -0.625,-6.456 -1.874,-8.889c-1.247,-2.431 -2.931,-4.396 -5.052,-5.896c-2.123,-1.495 -4.584,-2.587 -7.393,-3.275c-2.806,-0.684 -5.706,-1.03 -8.698,-1.03l-13.287,0l-34.247,0l0,-31.249l44.163,0c3.744,0 7.517,0.064 11.322,0.186c3.805,0.125 7.577,0.5 11.324,1.123c3.742,0.625 7.359,1.621 10.852,2.995c3.492,1.374 6.797,3.245 9.918,5.613c5.738,4.742 10.044,10.48 12.914,17.219c2.866,6.734 4.303,13.784 4.303,21.145c0,5.367 -0.779,10.51 -2.34,15.438c-1.56,4.931 -3.835,9.357 -6.83,13.288c-2.992,3.93 -6.645,7.233 -10.948,9.917c-4.303,2.687 -9.199,4.461 -14.69,5.335l37.802,47.716l-40.793,0l-49.969,-69.799Z" style="fill:#1e1c1a;fill-rule:nonzero;"/><path d="M214.432,30.898l0,82.903c0,3.368 -0.033,6.8 -0.093,10.29c-0.068,3.497 -0.373,6.926 -0.939,10.297c-0.559,3.364 -1.433,6.643 -2.619,9.825c-1.186,3.178 -2.899,6.076 -5.145,8.699c-4.619,5.868 -10.387,10.358 -17.309,13.475c-6.926,3.12 -14.07,4.675 -21.426,4.675c-3.249,0 -6.46,-0.279 -9.641,-0.838c-3.178,-0.562 -6.206,-1.404 -9.076,-2.53c-9.731,-3.618 -16.778,-9.264 -21.146,-16.932c-4.368,-7.675 -6.549,-16.567 -6.549,-26.671l37.426,0c0.122,1.749 0.312,3.554 0.563,5.432c0.251,1.87 0.745,3.583 1.497,5.141c0.749,1.566 1.806,2.841 3.182,3.837c1.372,1.004 3.182,1.498 5.425,1.498c2.497,0 4.46,-0.527 5.897,-1.591c1.433,-1.057 2.494,-2.429 3.178,-4.116c0.688,-1.684 1.125,-3.555 1.315,-5.615c0.186,-2.056 0.279,-4.02 0.279,-5.894l0,-61.194l-18.527,0l0,-30.691l53.708,0Z" style="fill:#1e1c1a;fill-rule:nonzero;"/></g><path d="M295.613,169.225c-0.7,0.25 -1.813,0.587 -3.338,1.012c-1.525,0.425 -3.388,0.638 -5.588,0.638c-3.901,0 -7.251,-0.75 -10.052,-2.25c-2.8,-1.501 -5.101,-3.501 -6.901,-6.001c-1.8,-2.501 -3.125,-5.376 -3.975,-8.627c-0.851,-3.25 -1.276,-6.625 -1.276,-10.126c0,-3.35 0.413,-6.613 1.238,-9.789c0.825,-3.175 2.138,-6.001 3.938,-8.476c1.8,-2.475 4.126,-4.451 6.976,-5.926c2.851,-1.475 6.301,-2.213 10.352,-2.213c1.35,0 2.837,0.138 4.463,0.413c1.625,0.275 3.063,0.712 4.313,1.313l-0.225,5.25c-0.35,-0.3 -0.838,-0.6 -1.463,-0.9c-0.625,-0.3 -1.338,-0.587 -2.138,-0.862c-0.8,-0.275 -1.65,-0.488 -2.55,-0.638c-0.9,-0.15 -1.825,-0.225 -2.775,-0.225c-0.601,0 -1.451,0.075 -2.551,0.225c-1.1,0.15 -2.288,0.475 -3.563,0.975c-1.275,0.5 -2.563,1.238 -3.863,2.213c-1.3,0.975 -2.488,2.288 -3.563,3.938c-1.075,1.65 -1.95,3.688 -2.625,6.113c-0.675,2.426 -1.013,5.339 -1.013,8.739c0,4.551 0.613,8.289 1.838,11.214c1.225,2.926 2.713,5.226 4.463,6.901c1.75,1.675 3.613,2.826 5.588,3.451c1.976,0.625 3.713,0.937 5.214,0.937c1,0 1.887,-0.062 2.662,-0.187c0.776,-0.125 1.501,-0.288 2.176,-0.488c0.675,-0.2 1.337,-0.437 1.987,-0.712c0.651,-0.275 1.326,-0.588 2.026,-0.938l0.225,5.026Z" style="fill-rule:nonzero;"/><path d="M309.265,144.171c0,0.7 0.025,1.738 0.075,3.113c0.05,1.375 0.2,2.888 0.45,4.538c0.25,1.65 0.637,3.338 1.162,5.063c0.526,1.726 1.288,3.301 2.288,4.726c1,1.425 2.276,2.6 3.826,3.526c1.55,0.925 3.45,1.387 5.701,1.387c2.25,0 4.15,-0.462 5.7,-1.387c1.551,-0.926 2.826,-2.101 3.826,-3.526c1,-1.425 1.763,-3 2.288,-4.726c0.525,-1.725 0.912,-3.413 1.162,-5.063c0.25,-1.65 0.401,-3.163 0.451,-4.538c0.05,-1.375 0.075,-2.413 0.075,-3.113c0,-0.7 -0.025,-1.738 -0.075,-3.113c-0.05,-1.375 -0.201,-2.888 -0.451,-4.538c-0.25,-1.65 -0.637,-3.338 -1.162,-5.063c-0.525,-1.725 -1.288,-3.301 -2.288,-4.726c-1,-1.425 -2.275,-2.6 -3.826,-3.525c-1.55,-0.925 -3.45,-1.388 -5.7,-1.388c-2.251,0 -4.151,0.463 -5.701,1.388c-1.55,0.925 -2.826,2.1 -3.826,3.525c-1,1.425 -1.762,3.001 -2.288,4.726c-0.525,1.725 -0.912,3.413 -1.162,5.063c-0.25,1.65 -0.4,3.163 -0.45,4.538c-0.05,1.375 -0.075,2.413 -0.075,3.113Zm-4.951,0c0,-0.75 0.025,-1.938 0.075,-3.563c0.05,-1.625 0.25,-3.425 0.6,-5.401c0.35,-1.975 0.9,-4.013 1.65,-6.113c0.75,-2.1 1.801,-4.013 3.151,-5.738c1.35,-1.726 3.075,-3.138 5.176,-4.238c2.1,-1.101 4.7,-1.651 7.801,-1.651c3.1,0 5.7,0.55 7.801,1.651c2.1,1.1 3.825,2.512 5.175,4.238c1.351,1.725 2.401,3.638 3.151,5.738c0.75,2.1 1.3,4.138 1.65,6.113c0.35,1.976 0.55,3.776 0.6,5.401c0.05,1.625 0.075,2.813 0.075,3.563c0,0.75 -0.025,1.938 -0.075,3.563c-0.05,1.625 -0.25,3.426 -0.6,5.401c-0.35,1.975 -0.9,4.013 -1.65,6.113c-0.75,2.101 -1.8,4.013 -3.151,5.739c-1.35,1.725 -3.087,3.137 -5.213,4.238c-2.125,1.1 -4.713,1.65 -7.763,1.65c-3.051,0 -5.639,-0.55 -7.764,-1.65c-2.125,-1.101 -3.863,-2.513 -5.213,-4.238c-1.35,-1.726 -2.401,-3.638 -3.151,-5.739c-0.75,-2.1 -1.3,-4.138 -1.65,-6.113c-0.35,-1.975 -0.55,-3.776 -0.6,-5.401c-0.05,-1.625 -0.075,-2.813 -0.075,-3.563Z" style="fill-rule:nonzero;"/><path d="M351.046,117.992l6,0l21.979,46.507l0.15,0l0,-46.507l4.35,0l0,52.358l-6.001,0l-21.978,-46.207l-0.15,0l0,46.207l-4.35,0l0,-52.358Z" style="fill-rule:nonzero;"/><path d="M395.527,117.992l6.001,0l21.978,46.507l0.15,0l0,-46.507l4.35,0l0,52.358l-6,0l-21.978,-46.207l-0.15,0l0,46.207l-4.351,0l0,-52.358Z" style="fill-rule:nonzero;"/><path d="M440.008,117.992l22.203,0l0,4.351l-17.552,0l0,18.603l16.727,0l0,4.35l-16.727,0l0,20.703l18.377,0l0,4.351l-23.028,0l0,-52.358Z" style="fill-rule:nonzero;"/><path d="M502.717,169.225c-0.7,0.25 -1.813,0.587 -3.338,1.012c-1.525,0.425 -3.388,0.638 -5.588,0.638c-3.901,0 -7.251,-0.75 -10.052,-2.25c-2.8,-1.501 -5.1,-3.501 -6.901,-6.001c-1.8,-2.501 -3.125,-5.376 -3.975,-8.627c-0.85,-3.25 -1.275,-6.625 -1.275,-10.126c0,-3.35 0.412,-6.613 1.237,-9.789c0.825,-3.175 2.138,-6.001 3.938,-8.476c1.801,-2.475 4.126,-4.451 6.976,-5.926c2.851,-1.475 6.301,-2.213 10.352,-2.213c1.35,0 2.838,0.138 4.463,0.413c1.625,0.275 3.063,0.712 4.313,1.313l-0.225,5.25c-0.35,-0.3 -0.838,-0.6 -1.463,-0.9c-0.625,-0.3 -1.337,-0.587 -2.137,-0.862c-0.801,-0.275 -1.651,-0.488 -2.551,-0.638c-0.9,-0.15 -1.825,-0.225 -2.775,-0.225c-0.6,0 -1.45,0.075 -2.551,0.225c-1.1,0.15 -2.287,0.475 -3.563,0.975c-1.275,0.5 -2.562,1.238 -3.863,2.213c-1.3,0.975 -2.488,2.288 -3.563,3.938c-1.075,1.65 -1.95,3.688 -2.625,6.113c-0.675,2.426 -1.013,5.339 -1.013,8.739c0,4.551 0.613,8.289 1.838,11.214c1.225,2.926 2.713,5.226 4.463,6.901c1.75,1.675 3.613,2.826 5.589,3.451c1.975,0.625 3.713,0.937 5.213,0.937c1,0 1.888,-0.062 2.663,-0.187c0.775,-0.125 1.5,-0.288 2.175,-0.488c0.675,-0.2 1.338,-0.437 1.988,-0.712c0.65,-0.275 1.325,-0.588 2.025,-0.938l0.225,5.026Z" style="fill-rule:nonzero;"/><path d="M509.093,117.992l28.954,0l0,4.351l-12.152,0l0,48.007l-4.65,0l0,-48.007l-12.152,0l0,-4.351Z" style="fill-rule:nonzero;"/></svg>