<svg clip-rule="evenodd" fill-rule="evenodd" stroke-linejoin="round" stroke-miterlimit="1.41421" viewBox="0 0 545 211" xmlns="http://www.w3.org/2000/svg"><g fill-rule="nonzero"><g fill="#1e1c1a"><path d="m189.169 168.253c-1.043.466-2.089.896-3.139 1.301-18.459 21.551-45.857 35.231-76.392 35.231-55.463 0-100.586-45.12-100.586-100.582 0-14.137 2.94-27.6 8.224-39.819h-2.547c-5.159 12.255-8.019 25.711-8.019 39.819 0 56.752 46.175 102.925 102.928 102.925 32.892 0 62.229-15.514 81.086-39.612-.516.254-1.032.501-1.555.737"/><path d="m42.878 29.041c17.773-15.804 41.162-25.419 66.76-25.419 25.494 0 48.797 9.537 66.539 25.23h3.486c-18.383-17.097-43.001-27.572-70.025-27.572-27.124 0-51.825 10.552-70.23 27.761z"/><path d="m19.625 101.263h30.13c3.243 0 6.301-.344 9.169-1.03 2.871-.683 5.361-1.84 7.484-3.463 2.121-1.62 3.773-3.678 4.963-6.175 1.182-2.494 1.777-5.548 1.777-9.169 0-3.491-.625-6.456-1.874-8.889-1.247-2.431-2.931-4.396-5.052-5.896-2.123-1.495-4.584-2.587-7.393-3.275-2.806-.684-5.706-1.03-8.698-1.03h-13.287-34.247v-31.249h44.163c3.744 0 7.517.064 11.322.186 3.805.125 7.577.5 11.324 1.123 3.742.625 7.359 1.621 10.852 2.995 3.492 1.374 6.797 3.245 9.918 5.613 5.738 4.742 10.044 10.48 12.914 17.219 2.866 6.734 4.303 13.784 4.303 21.145 0 5.367-.779 10.51-2.34 15.438-1.56 4.931-3.835 9.357-6.83 13.288-2.992 3.93-6.645 7.233-10.948 9.917-4.303 2.687-9.199 4.461-14.69 5.335l37.802 47.716h-40.793l-49.969-69.799z"/><path d="m214.432 30.898v82.903c0 3.368-.033 6.8-.093 10.29-.068 3.497-.373 6.926-.939 10.297-.559 3.364-1.433 6.643-2.619 9.825-1.186 3.178-2.899 6.076-5.145 8.699-4.619 5.868-10.387 10.358-17.309 13.475-6.926 3.12-14.07 4.675-21.426 4.675-3.249 0-6.46-.279-9.641-.838-3.178-.562-6.206-1.404-9.076-2.53-9.731-3.618-16.778-9.264-21.146-16.932-4.368-7.675-6.549-16.567-6.549-26.671h37.426c.122 1.749.312 3.554.563 5.432.251 1.87.745 3.583 1.497 5.141.749 1.566 1.806 2.841 3.182 3.837 1.372 1.004 3.182 1.498 5.425 1.498 2.497 0 4.46-.527 5.897-1.591 1.433-1.057 2.494-2.429 3.178-4.116.688-1.684 1.125-3.555 1.315-5.615.186-2.056.279-4.02.279-5.894v-61.194h-18.527v-30.691h53.708z"/></g><path d="m295.613 169.225c-.7.25-1.813.587-3.338 1.012s-3.388.638-5.588.638c-3.901 0-7.251-.75-10.052-2.25-2.8-1.501-5.101-3.501-6.901-6.001-1.8-2.501-3.125-5.376-3.975-8.627-.851-3.25-1.276-6.625-1.276-10.126 0-3.35.413-6.613 1.238-9.789.825-3.175 2.138-6.001 3.938-8.476s4.126-4.451 6.976-5.926c2.851-1.475 6.301-2.213 10.352-2.213 1.35 0 2.837.138 4.463.413 1.625.275 3.063.712 4.313 1.313l-.225 5.25c-.35-.3-.838-.6-1.463-.9s-1.338-.587-2.138-.862-1.65-.488-2.55-.638-1.825-.225-2.775-.225c-.601 0-1.451.075-2.551.225s-2.288.475-3.563.975-2.563 1.238-3.863 2.213-2.488 2.288-3.563 3.938-1.95 3.688-2.625 6.113c-.675 2.426-1.013 5.339-1.013 8.739 0 4.551.613 8.289 1.838 11.214 1.225 2.926 2.713 5.226 4.463 6.901s3.613 2.826 5.588 3.451c1.976.625 3.713.937 5.214.937 1 0 1.887-.062 2.662-.187.776-.125 1.501-.288 2.176-.488s1.337-.437 1.987-.712c.651-.275 1.326-.588 2.026-.938z"/><path d="m309.265 144.171c0 .7.025 1.738.075 3.113s.2 2.888.45 4.538.637 3.338 1.162 5.063c.526 1.726 1.288 3.301 2.288 4.726s2.276 2.6 3.826 3.526c1.55.925 3.45 1.387 5.701 1.387 2.25 0 4.15-.462 5.7-1.387 1.551-.926 2.826-2.101 3.826-3.526s1.763-3 2.288-4.726c.525-1.725.912-3.413 1.162-5.063s.401-3.163.451-4.538.075-2.413.075-3.113-.025-1.738-.075-3.113-.201-2.888-.451-4.538-.637-3.338-1.162-5.063-1.288-3.301-2.288-4.726-2.275-2.6-3.826-3.525c-1.55-.925-3.45-1.388-5.7-1.388-2.251 0-4.151.463-5.701 1.388s-2.826 2.1-3.826 3.525-1.762 3.001-2.288 4.726c-.525 1.725-.912 3.413-1.162 5.063s-.4 3.163-.45 4.538-.075 2.413-.075 3.113zm-4.951 0c0-.75.025-1.938.075-3.563s.25-3.425.6-5.401c.35-1.975.9-4.013 1.65-6.113s1.801-4.013 3.151-5.738c1.35-1.726 3.075-3.138 5.176-4.238 2.1-1.101 4.7-1.651 7.801-1.651 3.1 0 5.7.55 7.801 1.651 2.1 1.1 3.825 2.512 5.175 4.238 1.351 1.725 2.401 3.638 3.151 5.738s1.3 4.138 1.65 6.113c.35 1.976.55 3.776.6 5.401s.075 2.813.075 3.563-.025 1.938-.075 3.563-.25 3.426-.6 5.401-.9 4.013-1.65 6.113c-.75 2.101-1.8 4.013-3.151 5.739-1.35 1.725-3.087 3.137-5.213 4.238-2.125 1.1-4.713 1.65-7.763 1.65-3.051 0-5.639-.55-7.764-1.65-2.125-1.101-3.863-2.513-5.213-4.238-1.35-1.726-2.401-3.638-3.151-5.739-.75-2.1-1.3-4.138-1.65-6.113s-.55-3.776-.6-5.401-.075-2.813-.075-3.563z"/><path d="m351.046 117.992h6l21.979 46.507h.15v-46.507h4.35v52.358h-6.001l-21.978-46.207h-.15v46.207h-4.35z"/><path d="m395.527 117.992h6.001l21.978 46.507h.15v-46.507h4.35v52.358h-6l-21.978-46.207h-.15v46.207h-4.351z"/><path d="m440.008 117.992h22.203v4.351h-17.552v18.603h16.727v4.35h-16.727v20.703h18.377v4.351h-23.028z"/><path d="m502.717 169.225c-.7.25-1.813.587-3.338 1.012s-3.388.638-5.588.638c-3.901 0-7.251-.75-10.052-2.25-2.8-1.501-5.1-3.501-6.901-6.001-1.8-2.501-3.125-5.376-3.975-8.627-.85-3.25-1.275-6.625-1.275-10.126 0-3.35.412-6.613 1.237-9.789.825-3.175 2.138-6.001 3.938-8.476 1.801-2.475 4.126-4.451 6.976-5.926 2.851-1.475 6.301-2.213 10.352-2.213 1.35 0 2.838.138 4.463.413s3.063.712 4.313 1.313l-.225 5.25c-.35-.3-.838-.6-1.463-.9s-1.337-.587-2.137-.862c-.801-.275-1.651-.488-2.551-.638s-1.825-.225-2.775-.225c-.6 0-1.45.075-2.551.225-1.1.15-2.287.475-3.563.975-1.275.5-2.562 1.238-3.863 2.213-1.3.975-2.488 2.288-3.563 3.938s-1.95 3.688-2.625 6.113c-.675 2.426-1.013 5.339-1.013 8.739 0 4.551.613 8.289 1.838 11.214 1.225 2.926 2.713 5.226 4.463 6.901s3.613 2.826 5.589 3.451c1.975.625 3.713.937 5.213.937 1 0 1.888-.062 2.663-.187s1.5-.288 2.175-.488 1.338-.437 1.988-.712 1.325-.588 2.025-.938z"/><path d="m509.093 117.992h28.954v4.351h-12.152v48.007h-4.65v-48.007h-12.152z"/></g></svg>