<svg clip-rule="evenodd" fill-rule="evenodd" stroke-linejoin="round" stroke-miterlimit="1.41421" viewBox="0 0 426 426" xmlns="http://www.w3.org/2000/svg"><g fill="#1e1c1a" fill-rule="nonzero"><path d="m372.083 340.903c-2.068.924-4.143 1.776-6.225 2.58-36.615 42.747-90.961 69.881-151.529 69.881-110.014 0-199.518-89.496-199.518-199.51 0-28.04 5.832-54.744 16.314-78.982h-5.053c-10.234 24.309-15.905 50.999-15.905 78.982 0 112.573 91.589 204.158 204.162 204.158 65.244 0 123.435-30.773 160.839-78.573-1.024.504-2.047.995-3.085 1.464"/><path d="m81.907 64.766c35.254-31.348 81.647-50.419 132.422-50.419 50.569 0 96.792 18.918 131.985 50.046h6.915c-36.466-33.913-85.297-54.69-138.9-54.69-53.802 0-102.798 20.929-139.305 55.063z"/><path d="m35.784 208.023h59.765c6.431 0 12.497-.682 18.186-2.043 5.696-1.354 10.635-3.65 14.846-6.869 4.207-3.212 7.483-7.295 9.843-12.249 2.345-4.946 3.525-11.005 3.525-18.186 0-6.926-1.24-12.807-3.717-17.632-2.473-4.822-5.813-8.72-10.02-11.695-4.211-2.967-9.094-5.131-14.665-6.495-5.565-1.358-11.318-2.044-17.252-2.044h-26.356-67.931v-61.985h87.599c7.427 0 14.91.128 22.458.369 7.547.249 15.031.992 22.461 2.228 7.423 1.24 14.597 3.216 21.527 5.941 6.925 2.726 13.481 6.436 19.672 11.134 11.381 9.405 19.923 20.787 25.616 34.155 5.686 13.357 8.535 27.34 8.535 41.941 0 10.646-1.545 20.848-4.641 30.623-3.094 9.78-7.607 18.56-13.549 26.356-5.933 7.796-13.179 14.348-21.715 19.672-8.535 5.33-18.246 8.848-29.138 10.582l74.981 94.648h-80.915z"/><path d="m422.193 68.451v164.442c0 6.681-.064 13.489-.184 20.411-.135 6.936-.739 13.738-1.862 20.425-1.109 6.673-2.843 13.176-5.195 19.487-2.352 6.304-5.75 12.053-10.206 17.255-9.161 11.641-20.602 20.546-34.333 26.729-13.738 6.19-27.908 9.274-42.499 9.274-6.446 0-12.814-.554-19.124-1.662-6.304-1.116-12.31-2.786-18.002-5.018-19.302-7.178-33.281-18.378-41.945-33.587-8.663-15.223-12.991-32.861-12.991-52.903h74.238c.242 3.468.618 7.05 1.116 10.774.497 3.71 1.478 7.107 2.97 10.198 1.486 3.106 3.583 5.636 6.311 7.612 2.722 1.99 6.311 2.97 10.76 2.97 4.954 0 8.848-1.044 11.698-3.155 2.843-2.096 4.946-4.818 6.304-8.166 1.364-3.34 2.231-7.05 2.608-11.136.369-4.08.554-7.974.554-11.691v-121.381h-36.749v-60.878h106.531z"/></g></svg>