<svg enable-background="new 0 0 60.734 60.733" height="512" viewBox="0 0 60.734 60.733" width="512" xmlns="http://www.w3.org/2000/svg"><path d="m57.378.001h-54.026c-1.85 0-3.352 1.499-3.352 3.352v54.026c0 1.853 1.502 3.354 3.352 3.354h29.086v-23.519h-7.914v-9.167h7.914v-6.76c0-7.843 4.789-12.116 11.787-12.116 3.355 0 6.232.251 7.071.36v8.198l-4.854.002c-3.805 0-4.539 1.809-4.539 4.462v5.851h9.078l-1.187 9.166h-7.892v23.52h15.475c1.852 0 3.355-1.503 3.355-3.351v-54.028c-.001-1.851-1.502-3.35-3.354-3.35z" fill="#fff"/></svg>