<svg clip-rule="evenodd" fill-rule="evenodd" stroke-linejoin="round" stroke-miterlimit="1.41421" viewBox="0 0 512 360" xmlns="http://www.w3.org/2000/svg"><path d="m492.044 30.769c-18.482-21.97-52.604-30.932-117.77-30.932h-236.553c-66.657 0-101.357 9.54-119.77 32.93-17.951 22.805-17.951 56.408-17.951 102.914v88.64c0 90.097 21.299 135.842 137.721 135.842h236.554c56.512 0 87.826-7.908 108.085-27.296 20.776-19.882 29.64-52.345 29.64-108.546v-88.64c0-49.045-1.389-82.845-19.956-104.912zm-163.338 161.469-107.418 56.14c-2.401 1.256-5.027 1.878-7.65 1.878-2.97 0-5.933-.799-8.557-2.388-4.942-2.994-7.959-8.35-7.959-14.128v-111.92c0-5.767 3.009-11.118 7.941-14.114 4.933-2.996 11.069-3.201 16.187-.542l107.418 55.778c5.465 2.838 8.897 8.48 8.905 14.635.007 6.161-3.41 11.811-8.867 14.661z" fill="#fff" fill-rule="nonzero"/></svg>