<svg enable-background="new 0 0 512 512" viewBox="0 0 512 512" xmlns="http://www.w3.org/2000/svg"><path d="m272.68 196.543 92.313-192.008c1.336-2.773 4.133-4.535 7.211-4.535h128.961c2.75 0 5.305 1.414 6.773 3.742 1.461 2.328 1.625 5.246.438 7.723l-122.391 254.574c-.992 2.059-2.813 3.598-5.008 4.227-.719.207-1.461.309-2.203.309-1.5 0-2.984-.422-4.281-1.238l-98.883-62.566c-3.43-2.173-4.687-6.572-2.93-10.228z" fill="#ff4f19"/><path d="m441.982 0h59.183c2.75 0 5.305 1.414 6.773 3.742 1.461 2.328 1.625 5.246.438 7.723l-122.391 254.574c-.992 2.059-2.813 3.598-5.008 4.227-.719.207-1.461.309-2.203.309-1.5 0-2.984-.422-4.281-1.238l-47.538-30.079z" fill="#e3001e"/><path d="m239.319 196.543-92.312-192.008c-1.336-2.773-4.133-4.535-7.211-4.535h-128.961c-2.75 0-5.305 1.414-6.773 3.742-1.461 2.328-1.625 5.246-.438 7.723l122.391 254.574c.992 2.059 2.813 3.598 5.008 4.227.719.207 1.461.309 2.203.309 1.5 0 2.984-.422 4.281-1.238l98.883-62.566c3.429-2.173 4.687-6.572 2.929-10.228z" fill="#ff4f19"/><path d="m70.018 0h-59.183c-2.75 0-5.305 1.414-6.773 3.742-1.461 2.328-1.625 5.246-.438 7.723l122.391 254.574c.992 2.059 2.813 3.598 5.008 4.227.719.207 1.461.309 2.203.309 1.5 0 2.984-.422 4.281-1.238l47.538-30.079z" fill="#e3001e"/><circle cx="256.109" cy="352" fill="#ffcd00" r="160"/><path d="m256.109 512c44.183 0 84.183-17.909 113.136-46.863l-226.273-226.274c-28.955 28.954-46.863 68.954-46.863 113.137 0 88.365 71.634 160 160 160z" fill="#ff9100"/><path d="m297.944 431.207c-2.625 0-5.266-.633-7.703-1.914l-34.133-17.941-34.133 17.941c-5.609 2.941-12.289 2.453-17.398-1.262-5.133-3.727-7.648-9.922-6.578-16.168l6.516-38-27.617-26.91c-4.539-4.43-6.141-10.922-4.18-16.949s7.07-10.344 13.344-11.258l38.156-5.543 17.07-34.574c2.797-5.68 8.477-9.211 14.812-9.215h.008c6.344 0 12.023 3.531 14.828 9.215l17.063 34.574 38.148 5.543c6.281.914 11.391 5.23 13.352 11.258s.359 12.52-4.18 16.945l-27.617 26.914 6.523 38c1.07 6.246-1.445 12.441-6.578 16.168-2.898 2.106-6.289 3.176-9.703 3.176zm-109.875-95.715 30.625 29.848c1.883 1.84 2.742 4.488 2.297 7.082l-7.227 42.145 4.492 7.645-3.719-7.082 37.852-19.898c2.328-1.227 5.109-1.227 7.437 0l37.852 19.898 8.664-1.914-7.883 1.352-7.234-42.145c-.445-2.594.414-5.242 2.297-7.082l30.625-29.848.852-8.828-1.148 7.918-42.313-6.148c-2.609-.379-4.859-2.016-6.023-4.379l-18.922-38.344c0 .008-.477.004-.766 0-.117 0-.195 0-.195 0l-18.93 38.348c-1.164 2.359-3.414 3.996-6.023 4.375l-42.312 6.148-5.883 6.641z" fill="#fff"/><path d="m384.132 360c-2.086 0-4.164-.883-5.688-2.32-1.516-1.52-2.313-3.602-2.313-5.68 0-2.082.797-4.16 2.313-5.68 2.961-2.961 8.32-2.961 11.281 0 1.523 1.52 2.406 3.598 2.406 5.68 0 2.078-.883 4.16-2.406 5.68-1.437 1.437-3.515 2.32-5.593 2.32z" fill="#fff"/><path d="m256.132 232c-2.164 0-4.164-.883-5.687-2.32-1.516-1.52-2.313-3.602-2.313-5.68 0-2.082.797-4.16 2.313-5.68 2.961-2.961 8.32-2.961 11.281 0 1.523 1.52 2.406 3.598 2.406 5.68 0 2.078-.883 4.16-2.406 5.68-1.438 1.437-3.516 2.32-5.594 2.32z" fill="#fff"/><path d="m165.569 269.519c-2.078 0-4.164-.883-5.602-2.402-1.523-1.438-2.398-3.52-2.398-5.598 0-2.16.875-4.242 2.398-5.68 2.883-2.961 8.32-2.961 11.281 0 1.516 1.52 2.32 3.52 2.32 5.68 0 2.078-.805 4.16-2.32 5.598-1.522 1.52-3.522 2.402-5.679 2.402z" fill="#fff"/><path d="m346.608 450.48c-2.078 0-4.164-.801-5.68-2.32-1.438-1.441-2.32-3.523-2.32-5.68 0-2.082.883-4.16 2.32-5.602 3.039-3.039 8.32-3.039 11.359 0 1.438 1.441 2.32 3.52 2.32 5.602 0 2.156-.883 4.156-2.32 5.68-1.522 1.52-3.6 2.32-5.679 2.32z" fill="#fff"/><path d="m346.608 269.519c-2.078 0-4.164-.883-5.68-2.32-1.438-1.52-2.32-3.602-2.32-5.68 0-2.16.883-4.242 2.32-5.68 2.961-2.961 8.32-2.961 11.359 0 1.438 1.438 2.32 3.52 2.32 5.68 0 2.078-.883 4.16-2.32 5.68-1.522 1.438-3.6 2.32-5.679 2.32z" fill="#fff"/><path d="m374.366 311.039c-2.078 0-4.156-.879-5.68-2.402-1.438-1.438-2.32-3.52-2.32-5.598 0-2.16.883-4.242 2.32-5.68 3.039-2.961 8.32-2.961 11.359 0 1.445 1.438 2.32 3.52 2.32 5.68 0 2.078-.875 4.16-2.32 5.598-1.515 1.523-3.601 2.402-5.679 2.402z" fill="#fff"/><path d="m207.085 241.758c-2.078 0-4.156-.879-5.594-2.398-1.523-1.441-2.406-3.52-2.406-5.602 0-2.078.883-4.16 2.406-5.68 2.953-2.961 8.32-2.961 11.273 0 1.523 1.52 2.32 3.52 2.32 5.68 0 2.082-.797 4.16-2.32 5.68-1.515 1.441-3.515 2.32-5.679 2.32z" fill="#fff"/><path d="m374.366 408.957c-2.078 0-4.156-.797-5.68-2.32-1.438-1.52-2.32-3.52-2.32-5.68 0-2.078.883-4.16 2.32-5.598 2.961-3.039 8.398-3.039 11.359 0 1.445 1.438 2.32 3.52 2.32 5.598 0 2.16-.875 4.16-2.32 5.68-1.515 1.523-3.601 2.32-5.679 2.32z" fill="#fff"/><path d="m305.085 241.758c-2.078 0-4.156-.879-5.68-2.32-1.438-1.52-2.32-3.598-2.32-5.68 0-2.16.883-4.238 2.32-5.68 2.961-2.961 8.32-2.961 11.359 0 1.445 1.52 2.32 3.52 2.32 5.68 0 2.082-.875 4.16-2.32 5.68-1.515 1.441-3.593 2.32-5.679 2.32z" fill="#fff"/><path d="m381.569 334.48c-2.164 0-4.242-.883-5.68-2.32-1.523-1.523-2.32-3.602-2.32-5.68 0-2.082.797-4.16 2.32-5.684 2.961-2.957 8.32-2.957 11.281 0 1.516 1.523 2.398 3.602 2.398 5.684 0 2.078-.883 4.156-2.398 5.68-1.444 1.438-3.523 2.32-5.601 2.32z" fill="#fff"/><path d="m230.608 234.559c-2.164 0-4.164-.879-5.68-2.32-1.523-1.52-2.32-3.52-2.32-5.68 0-2.078.797-4.16 2.32-5.68 2.961-2.961 8.32-2.961 11.359 0 1.438 1.52 2.32 3.602 2.32 5.68s-.883 4.16-2.32 5.68c-1.522 1.441-3.6 2.32-5.679 2.32z" fill="#fff"/><path d="m362.851 430.637c-2.086 0-4.164-.879-5.68-2.316-1.445-1.523-2.32-3.523-2.32-5.684 0-2.078.875-4.156 2.32-5.68 2.961-2.957 8.398-2.957 11.359 0 1.438 1.523 2.32 3.602 2.32 5.68 0 2.16-.883 4.16-2.32 5.684-1.523 1.437-3.601 2.316-5.679 2.316z" fill="#fff"/><path d="m326.765 253.277c-2.078 0-4.156-.879-5.68-2.32-1.438-1.52-2.32-3.598-2.32-5.68 0-2.16.883-4.16 2.32-5.68 2.961-2.961 8.406-2.961 11.281 0 1.523 1.441 2.398 3.52 2.398 5.68 0 2.082-.875 4.16-2.398 5.68-1.437 1.441-3.515 2.32-5.601 2.32z" fill="#fff"/><path d="m362.21 288.398c-2.078 0-4.164-.801-5.68-2.32-1.445-1.441-2.32-3.52-2.32-5.68 0-2.078.875-4.16 2.32-5.68 3.039-2.961 8.32-2.961 11.359 0 1.516 1.52 2.32 3.602 2.32 5.68 0 2.16-.805 4.238-2.32 5.68-1.523 1.52-3.523 2.32-5.679 2.32z" fill="#fff"/><path d="m184.53 253.84c-2.164 0-4.164-.801-5.68-2.32-1.445-1.441-2.32-3.52-2.32-5.602 0-2.16.875-4.238 2.32-5.68 2.961-2.961 8.398-2.961 11.359 0 1.438 1.441 2.32 3.52 2.32 5.68 0 2.082-.883 4.16-2.32 5.602-1.522 1.519-3.601 2.32-5.679 2.32z" fill="#fff"/><path d="m381.726 384.398c-2.078 0-4.156-.801-5.68-2.32-1.438-1.52-2.32-3.52-2.32-5.68 0-2.078.883-4.16 2.32-5.68 3.039-2.961 8.32-2.961 11.359 0 1.523 1.52 2.32 3.602 2.32 5.68 0 2.16-.797 4.16-2.32 5.68-1.515 1.52-3.515 2.32-5.679 2.32z" fill="#fff"/><path d="m280.53 234.32c-2.164 0-4.164-.801-5.68-2.32-1.445-1.52-2.32-3.52-2.32-5.68 0-2.082.875-4.16 2.32-5.602 2.961-3.039 8.32-3.039 11.359 0 1.438 1.441 2.32 3.52 2.32 5.602 0 2.16-.883 4.238-2.32 5.68-1.522 1.519-3.601 2.32-5.679 2.32z" fill="#fff"/><g fill="#ffcd00"><path d="m297.944 431.207c3.414 0 6.805-1.07 9.703-3.176 5.133-3.727 7.648-9.922 6.578-16.168l-.362-2.108-19.593-19.593 4.189 24.404 7.883-1.352-8.664 1.914-37.852-19.898c-2.328-1.227-5.109-1.227-7.437 0l-37.852 19.898 3.719 7.082-4.492-7.645 7.227-42.145c.445-2.594-.414-5.242-2.297-7.082l-30.625-29.848-5.586 5.73 5.883-6.641 42.312-6.148c.509-.074.988-.233 1.464-.399l-13.955-13.956-32.126 4.667c-6.273.914-11.383 5.23-13.344 11.258s-.359 12.52 4.18 16.949l27.617 26.91-6.516 38c-1.07 6.246 1.445 12.441 6.578 16.168 5.109 3.715 11.789 4.203 17.398 1.262l34.133-17.941 34.133 17.941c2.439 1.284 5.079 1.917 7.704 1.917z"/><path d="m128.132 360c-2.086 0-4.164-.883-5.688-2.32-1.438-1.52-2.312-3.602-2.312-5.68 0-2.082.875-4.16 2.312-5.68 2.961-2.961 8.32-2.961 11.281 0 1.523 1.52 2.406 3.598 2.406 5.68 0 2.078-.883 4.16-2.406 5.68-1.437 1.437-3.515 2.32-5.593 2.32z"/><path d="m256.132 488c-2.086 0-4.164-.883-5.687-2.32-1.516-1.52-2.313-3.602-2.313-5.68 0-2.082.797-4.16 2.313-5.68 3.047-2.961 8.32-2.961 11.281 0 1.523 1.52 2.406 3.598 2.406 5.68 0 2.078-.883 4.16-2.406 5.68-1.438 1.437-3.516 2.32-5.594 2.32z"/><path d="m165.569 450.48c-2.078 0-4.164-.801-5.602-2.32-1.523-1.523-2.398-3.602-2.398-5.68 0-2.082.875-4.16 2.398-5.602 2.961-2.961 8.32-3.039 11.281 0 1.516 1.441 2.32 3.52 2.32 5.602 0 2.078-.805 4.156-2.32 5.68-1.436 1.52-3.522 2.32-5.679 2.32z"/><path d="m137.89 408.957c-2.164 0-4.242-.797-5.68-2.32-1.523-1.52-2.32-3.598-2.32-5.68 0-2.078.797-4.16 2.32-5.598 2.961-3.039 8.32-3.039 11.281 0 1.516 1.438 2.398 3.52 2.398 5.598 0 2.082-.883 4.16-2.398 5.68-1.445 1.523-3.523 2.32-5.601 2.32z"/><path d="m305.085 478.238c-2.078 0-4.156-.801-5.68-2.32-1.438-1.438-2.32-3.52-2.32-5.68 0-2.078.883-4.16 2.32-5.68 3.039-2.961 8.32-2.961 11.359 0 1.445 1.52 2.32 3.602 2.32 5.68 0 2.082-.875 4.16-2.32 5.68-1.515 1.519-3.593 2.32-5.679 2.32z"/><path d="m137.89 311.039c-2.164 0-4.242-.879-5.68-2.402-1.523-1.438-2.32-3.52-2.32-5.598 0-2.16.797-4.242 2.32-5.68 2.961-2.961 8.32-2.961 11.281 0 1.516 1.52 2.398 3.52 2.398 5.68 0 2.078-.883 4.16-2.398 5.598-1.445 1.523-3.523 2.402-5.601 2.402z"/><path d="m207.085 478.238c-2.078 0-4.156-.801-5.594-2.32-1.523-1.52-2.406-3.52-2.406-5.68 0-2.078.883-4.16 2.406-5.602 2.953-3.039 8.32-3.039 11.273 0 1.523 1.441 2.32 3.523 2.32 5.602 0 2.16-.797 4.16-2.32 5.68-1.437 1.519-3.515 2.32-5.679 2.32z"/><path d="m130.687 385.519c-2.078 0-4.156-.883-5.68-2.32-1.438-1.52-2.32-3.602-2.32-5.68 0-2.082.883-4.16 2.32-5.68 3.039-2.961 8.32-2.961 11.359 0 1.445 1.52 2.32 3.598 2.32 5.68 0 2.078-.875 4.16-2.32 5.68-1.515 1.438-3.601 2.32-5.679 2.32z"/><path d="m281.647 485.437c-2.156 0-4.242-.879-5.68-2.32-1.523-1.52-2.32-3.598-2.32-5.68 0-2.078.797-4.16 2.32-5.68 2.961-2.961 8.32-2.961 11.281 0 1.516 1.52 2.398 3.602 2.398 5.68 0 2.082-.883 4.16-2.398 5.68-1.436 1.441-3.522 2.32-5.601 2.32z"/><path d="m149.405 289.359c-2.156 0-4.234-.879-5.68-2.32-1.516-1.52-2.32-3.602-2.32-5.68 0-2.16.805-4.16 2.32-5.68 2.961-2.961 8.32-2.961 11.281 0 1.523 1.52 2.398 3.598 2.398 5.68 0 2.078-.875 4.16-2.398 5.68-1.437 1.441-3.515 2.32-5.601 2.32z"/><path d="m185.491 466.719c-2.164 0-4.242-.879-5.68-2.32-1.523-1.52-2.32-3.52-2.32-5.68 0-2.082.797-4.16 2.32-5.602 2.953-3.039 8.32-3.039 11.273 0 1.523 1.441 2.406 3.52 2.406 5.602 0 2.16-.883 4.16-2.406 5.68-1.436 1.441-3.515 2.32-5.593 2.32z"/><path d="m149.968 431.598c-2.078 0-4.156-.879-5.68-2.398-1.438-1.441-2.32-3.52-2.32-5.602 0-2.16.883-4.16 2.32-5.68 3.039-2.961 8.398-2.961 11.359 0 1.523 1.52 2.32 3.52 2.32 5.68 0 2.082-.797 4.16-2.32 5.602-1.515 1.519-3.515 2.398-5.679 2.398z"/><path d="m327.726 466.078c-2.156 0-4.234-.801-5.68-2.32-1.516-1.438-2.32-3.52-2.32-5.68 0-2.078.805-4.16 2.32-5.598 2.883-2.961 8.32-3.043 11.281 0 1.523 1.438 2.398 3.52 2.398 5.598 0 2.16-.875 4.242-2.398 5.68-1.437 1.519-3.515 2.32-5.601 2.32z"/><path d="m130.444 335.598c-2.078 0-4.156-.879-5.68-2.398-1.438-1.441-2.32-3.52-2.32-5.602 0-2.16.883-4.16 2.32-5.68 2.961-2.961 8.406-2.961 11.367 0 1.516 1.52 2.313 3.52 2.313 5.68 0 2.082-.797 4.16-2.313 5.602-1.523 1.519-3.601 2.398-5.687 2.398z"/><path d="m231.648 485.68c-2.078 0-4.156-.883-5.602-2.402-1.516-1.438-2.32-3.52-2.32-5.598 0-2.16.805-4.242 2.32-5.68 2.961-2.961 8.32-2.961 11.281 0 1.523 1.438 2.32 3.52 2.32 5.68 0 2.078-.797 4.16-2.32 5.598-1.437 1.519-3.515 2.402-5.679 2.402z"/><path d="m159.96 255.851c-1.517 1.438-2.391 3.513-2.391 5.668 0 2.078.875 4.16 2.398 5.598 1.438 1.52 3.523 2.402 5.602 2.402 2.15 0 4.144-.88 5.666-2.393z"/><path d="m346.608 450.48c2.073 0 4.145-.799 5.668-2.313l-11.312-11.312c-.01.01-.025.013-.036.023-1.438 1.441-2.32 3.52-2.32 5.602 0 2.156.883 4.238 2.32 5.68 1.516 1.52 3.602 2.32 5.68 2.32z"/></g></svg>