<?xml version="1.0" standalone="no"?>
<!DOCTYPE svg PUBLIC "-//W3C//DTD SVG 20010904//EN"
 "http://www.w3.org/TR/2001/REC-SVG-20010904/DTD/svg10.dtd">
<svg version="1.0" xmlns="http://www.w3.org/2000/svg"
 width="90.000000pt" height="90.000000pt" viewBox="0 0 90.000000 90.000000"
 preserveAspectRatio="xMidYMid meet">
<metadata>
Created by potrace 1.11, written by Peter Selinger 2001-2013
</metadata>
<g transform="translate(0.000000,90.000000) scale(0.100000,-0.100000)"
fill="#000000" stroke="none">
<path d="M344 876 c-55 -16 -116 -48 -152 -80 -20 -18 -37 -21 -105 -22 l-82
0 -3 -82 c-3 -82 -3 -82 23 -82 28 0 29 -2 15 -50 -16 -53 -14 -169 4 -231 21
-71 71 -155 122 -202 21 -21 73 -54 113 -75 72 -35 79 -37 175 -37 96 0 105 2
176 37 88 44 231 173 254 228 11 28 15 90 16 266 l1 230 -76 -1 c-70 -1 -79 2
-120 31 -106 75 -246 102 -361 70z m247 -36 c30 -11 68 -31 84 -44 l30 -25
-27 5 -28 4 0 -85 0 -85 35 0 c40 0 37 10 37 -150 -1 -149 1 -142 -24 -138
-16 2 -24 11 -27 28 -1 14 -7 27 -11 30 -4 3 -46 4 -92 4 l-83 -1 3 -48 c6
-109 80 -178 194 -179 l57 -1 -22 -23 c-26 -28 -128 -78 -182 -90 -99 -22
-229 7 -314 68 -56 41 -115 119 -142 187 -29 75 -35 202 -12 269 l16 46 88 -4
c74 -2 91 -6 103 -23 21 -28 20 -61 -4 -85 -17 -17 -33 -20 -116 -20 -53 0
-94 -4 -92 -8 2 -4 52 -79 112 -165 l108 -157 105 0 c83 0 103 3 96 13 -5 6
-41 52 -78 101 l-69 89 24 16 c75 48 104 109 97 204 -4 55 -10 77 -33 110 -35
50 -101 86 -166 89 -27 2 -48 6 -48 9 0 12 98 59 151 72 69 18 163 13 230 -13z"/>
</g>
</svg>
