<svg enable-background="new 0 0 484.999 484.999" height="512" viewBox="0 0 484.999 484.999" width="512" xmlns="http://www.w3.org/2000/svg"><path d="m471.388 84.549-9.046-19.435-91.816 91.814-42.426-42.426 91.815-91.815-19.435-9.047c-19.171-8.923-40.532-13.64-61.777-13.64-39.084 0-75.827 15.22-103.463 42.856-40.792 40.791-53.58 102.061-33.353 155.429l-184.247 184.265c-11.338 11.3-17.593 26.349-17.61 42.375-.019 16.05 6.214 31.138 17.554 42.49 11.338 11.339 26.408 17.583 42.434 17.583 16.038 0 31.115-6.249 42.453-17.593l184.267-184.275c16.517 6.244 34.282 9.512 51.971 9.513 39.084 0 75.829-15.221 103.464-42.856 43.317-43.317 55.057-109.721 29.215-165.238zm-50.429 144.026c-21.97 21.97-51.178 34.069-82.243 34.069-16.911-.001-33.898-3.75-49.131-10.841l-9.516-4.431-198.815 198.824c-5.674 5.677-13.216 8.803-21.237 8.803-8.012 0-15.548-3.124-21.215-8.791-5.666-5.672-8.781-13.219-8.772-21.249.009-8.006 3.13-15.521 8.807-21.178l198.813-198.833-4.429-9.515c-20.542-44.135-11.206-96.926 23.232-131.364 21.97-21.97 51.18-34.069 82.25-34.069 9.428 0 18.882 1.167 28.044 3.429l-81.073 81.073 84.852 84.853 81.086-81.085c9.623 39.01-1.555 81.207-30.653 110.305z" fill="#fff"/></svg>