<?xml version="1.0" encoding="iso-8859-1"?>
<!-- Generator: Adobe Illustrator 19.0.0, SVG Export Plug-In . SVG Version: 6.00 Build 0)  -->
<svg xmlns="http://www.w3.org/2000/svg" xmlns:xlink="http://www.w3.org/1999/xlink" version="1.1" id="Layer_1" x="0px" y="0px" viewBox="0 0 484.999 484.999" style="enable-background:new 0 0 484.999 484.999;" xml:space="preserve" width="512px" height="512px">
<path d="M471.388,84.549l-9.046-19.435l-91.816,91.814L328.1,114.502l91.815-91.815L400.48,13.64C381.309,4.717,359.948,0,338.703,0  c-39.084,0-75.827,15.22-103.463,42.856c-40.792,40.791-53.58,102.061-33.353,155.429L17.64,382.55  c-11.338,11.3-17.593,26.349-17.61,42.375c-0.019,16.05,6.214,31.138,17.554,42.49c11.338,11.339,26.408,17.583,42.434,17.583  c16.038,0,31.115-6.249,42.453-17.593L286.738,283.13c16.517,6.244,34.282,9.512,51.971,9.513  c39.084,0,75.829-15.221,103.464-42.856C485.49,206.47,497.23,140.066,471.388,84.549z M420.959,228.575  c-21.97,21.97-51.178,34.069-82.243,34.069c-16.911-0.001-33.898-3.75-49.131-10.841l-9.516-4.431L81.254,446.196  c-5.674,5.677-13.216,8.803-21.237,8.803c-8.012,0-15.548-3.124-21.215-8.791c-5.666-5.672-8.781-13.219-8.772-21.249  c0.009-8.006,3.13-15.521,8.807-21.178L237.65,204.948l-4.429-9.515c-20.542-44.135-11.206-96.926,23.232-131.364  C278.423,42.099,307.633,30,338.703,30c9.428,0,18.882,1.167,28.044,3.429l-81.073,81.073l84.852,84.853l81.086-81.085  C461.235,157.28,450.057,199.477,420.959,228.575z" fill="#FFFFFF"/>
</svg>
