<?xml version="1.0" encoding="iso-8859-1"?>
<!-- Generator: Adobe Illustrator 18.0.0, SVG Export Plug-In . SVG Version: 6.00 Build 0)  -->
<!DOCTYPE svg PUBLIC "-//W3C//DTD SVG 1.1//EN" "http://www.w3.org/Graphics/SVG/1.1/DTD/svg11.dtd">
<svg xmlns="http://www.w3.org/2000/svg" xmlns:xlink="http://www.w3.org/1999/xlink" version="1.1" id="Capa_1" x="0px" y="0px" viewBox="0 0 196.081 196.081" style="enable-background:new 0 0 196.081 196.081;" xml:space="preserve" width="512px" height="512px">
<path d="M168.462,69.594l-14.768-10.891l0.546-0.741c2.457-3.334,1.748-8.028-1.585-10.486L137.89,36.586l1.191-1.617  c2.458-3.334,1.747-8.029-1.587-10.487L116.689,9.143c-1.601-1.181-3.602-1.679-5.572-1.379c-1.967,0.297-3.734,1.364-4.915,2.965  l-1.193,1.619L90.243,1.463c-3.332-2.457-8.028-1.748-10.487,1.586L61.901,27.263l-5.164-2.762c-1.857-0.993-4.047-1.16-6.032-0.459  c-1.986,0.701-3.586,2.204-4.409,4.142L25.166,77.966c-0.999,2.354-0.73,5.053,0.712,7.164l38.724,56.641l-6.147,45.709  c-0.552,4.105,2.329,7.88,6.434,8.433c0.339,0.045,0.676,0.068,1.009,0.068c3.698,0,6.917-2.735,7.424-6.501l6.53-48.564  c0.247-1.838-0.195-3.702-1.242-5.232L40.577,80.051l16.322-38.453l42.072,22.501l-5.313,7.207l-14.77-10.889  c-3.334-2.458-8.029-1.749-10.487,1.586c-2.458,3.334-1.748,8.029,1.586,10.487L90.794,87.83c0,0.001,0.001,0.001,0.002,0.001  l20.797,15.337c0.001,0.001,0.002,0.001,0.003,0.002l20.807,15.336c1.34,0.988,2.898,1.463,4.444,1.463  c1.24,0,2.468-0.317,3.57-0.913l-1.014,8.392l-14.39,15.611c-1.371,1.488-2.084,3.467-1.975,5.488l2.185,40.439  c0.216,3.999,3.525,7.096,7.482,7.095c0.137,0,0.273-0.003,0.411-0.011c4.137-0.224,7.309-3.758,7.085-7.894l-2.014-37.279  l13.885-15.063c1.066-1.157,1.742-2.621,1.932-4.183l4.31-35.655l11.733-15.916C172.505,76.747,171.796,72.052,168.462,69.594z   M87.378,17.987l8.729,6.435L84.933,39.581l-9.666-5.169L87.378,17.987z M98.299,46.729l15.527-21.062l8.731,6.438l-14.592,19.794  L98.299,46.729z M116.827,65.158C116.827,65.158,116.828,65.158,116.827,65.158l1.111-1.507L128.99,48.66l8.728,6.437l-0.513,0.696  c-0.012,0.015-0.025,0.029-0.036,0.044L114.46,86.644l-8.729-6.436L116.827,65.158z M135.266,101.982l-8.732-6.436l18.259-24.769  l8.731,6.438l-8.534,11.576l-0.001,0.002L135.266,101.982z" fill="#FFFFFF"/>
<g>
</g>
<g>
</g>
<g>
</g>
<g>
</g>
<g>
</g>
<g>
</g>
<g>
</g>
<g>
</g>
<g>
</g>
<g>
</g>
<g>
</g>
<g>
</g>
<g>
</g>
<g>
</g>
<g>
</g>
</svg>
