<svg enable-background="new 0 0 196.081 196.081" height="512" viewBox="0 0 196.081 196.081" width="512" xmlns="http://www.w3.org/2000/svg"><path d="m168.462 69.594-14.768-10.891.546-.741c2.457-3.334 1.748-8.028-1.585-10.486l-14.765-10.89 1.191-1.617c2.458-3.334 1.747-8.029-1.587-10.487l-20.805-15.339c-1.601-1.181-3.602-1.679-5.572-1.379-1.967.297-3.734 1.364-4.915 2.965l-1.193 1.619-14.766-10.885c-3.332-2.457-8.028-1.748-10.487 1.586l-17.855 24.214-5.164-2.762c-1.857-.993-4.047-1.16-6.032-.459-1.986.701-3.586 2.204-4.409 4.142l-21.13 49.782c-.999 2.354-.73 5.053.712 7.164l38.724 56.641-6.147 45.709c-.552 4.105 2.329 7.88 6.434 8.433.339.045.676.068 1.009.068 3.698 0 6.917-2.735 7.424-6.501l6.53-48.564c.247-1.838-.195-3.702-1.242-5.232l-38.033-55.633 16.322-38.453 42.072 22.501-5.313 7.207-14.77-10.889c-3.334-2.458-8.029-1.749-10.487 1.586-2.458 3.334-1.748 8.029 1.586 10.487l20.807 15.34c0 .001.001.001.002.001l20.797 15.337c.001.001.002.001.003.002l20.807 15.336c1.34.988 2.898 1.463 4.444 1.463 1.24 0 2.468-.317 3.57-.913l-1.014 8.392-14.39 15.611c-1.371 1.488-2.084 3.467-1.975 5.488l2.185 40.439c.216 3.999 3.525 7.096 7.482 7.095.137 0 .273-.003.411-.011 4.137-.224 7.309-3.758 7.085-7.894l-2.014-37.279 13.885-15.063c1.066-1.157 1.742-2.621 1.932-4.183l4.31-35.655 11.733-15.916c2.458-3.333 1.749-8.028-1.585-10.486zm-81.084-51.607 8.729 6.435-11.174 15.159-9.666-5.169zm10.921 28.742 15.527-21.062 8.731 6.438-14.592 19.794zm18.528 18.429s.001 0 0 0l1.111-1.507 11.052-14.991 8.728 6.437-.513.696c-.012.015-.025.029-.036.044l-22.709 30.807-8.729-6.436zm18.439 36.824-8.732-6.436 18.259-24.769 8.731 6.438-8.534 11.576-.001.002z" fill="#fff"/></svg>