<svg clip-rule="evenodd" fill-rule="evenodd" stroke-linejoin="round" stroke-miterlimit="1.41421" viewBox="0 0 485 485" xmlns="http://www.w3.org/2000/svg"><path d="m352.788.001.504.003.505.005.504.007.504.008.505.011.504.013.505.014.504.017.504.018.505.021.504.022.504.024.504.026.505.028.504.03.503.032.504.034.504.036.504.038.503.039.503.042.504.043.503.046.503.047.502.049.503.051.502.053.502.055.502.056.502.059.502.061.501.062.501.064.501.066.501.069.5.069.5.072.5.074.5.076.499.077.499.079.499.082.498.083.498.085.498.086.497.089.497.091.497.092.496.094.496.096.496.098.495.1.495.102.494.103.494.106.493.107.493.109.493.111.492.113.492.114.491.117.491.118.491.12-92.519 92.519 96.831 96.832 92.534-92.532.127.522.126.522.123.522.121.523.119.523.117.524.114.523.113.524.11.525.108.524.106.525.104.525.101.525.1.526.097.526.095.526.093.526.091.527.089.526.086.527.085.527.082.528.08.527.078.528.076.528.073.528.072.528.069.528.067.529.066.528.063.529.06.529.059.529.057.529.054.529.052.529.05.53.048.529.046.53.044.53.042.529.039.53.038.53.035.53.033.53.031.53.029.53.027.53.024.53.023.53.02.53.019.53.016.53.014.53.012.53.01.53.008.53.005.529.004.53.001.53v.53l-.003.529-.005.53-.007.529-.009.53-.011.529-.013.529-.015.529-.018.529-.019.529-.022.528-.024.529-.025.528-.028.528-.03.528-.032.528-.034.528-.037.527-.038.528-.04.527-.043.527-.044.527-.047.526-.049.527-.05.526-.053.526-.055.525-.057.526-.059.525-.061.524-.063.525-.066.524-.067.524-.069.524-.072.524-.073.523-.076.523-.077.522-.08.523-.082.521-.084.522-.085.521-.088.521-.09.521-.092.52-.094.52-.096.519-.098.519-.101.519-.102.518-.104.518-.106.518-.109.517-.11.516-.113.517-.114.516-.117.515-.118.515-.121.514-.122.514-.125.514-.127.513-.128.513-.131.512-.133.511-.135.511-.137.511-.138.51-.141.51-.143.509-.145.508-.147.508-.149.508-.151.507-.153.506-.155.506-.157.505-.159.505-.161.504-.163.503-.165.503-.167.502-.169.502-.171.501-.173.501-.175.499-.177.499-.179.499-.182.498-.183.497-.185.496-.187.496-.189.496-.191.494-.193.494-.195.493-.197.492-.199.492-.201.491-.203.49-.205.49-.207.489-.209.488-.211.487-.213.486-.214.486-.217.485-.219.484-.221.484-.223.482-.225.482-.226.481-.229.481-.231.479-.232.479-.235.477-.236.477-.239.476-.24.476-.243.474-.244.474-.247.472-.248.472-.25.471-.253.47-.254.469-.256.468-.258.467-.26.467-.262.465-.264.465-.266.463-.268.463-.27.462-.272.46-.273.46-.276.459-.278.458-.279.457-.282.455-.283.455-.285.454-.288.453-.289.452-.291.451-.293.449-.295.449-.297.448-.299.446-.301.446-.303.445-.304.443-.307.442-.308.442-.311.44-.312.439-.314.438-.316.437-.319.436-.32.434-.321.434-.324.432-.326.431-.328.431-.329.428-.332.428-.333.427-.335.425-.338.425-.339.423-.341.422-.343.42-.345.42-.346.418-.349.417-.35.416-.353.414-.354.414-.356.412-.358.41-.36.41-.362.408-.364.407-.366.406-.367.404-.369.404-.372.401-.373.401-.375.399-.377.398-.379.397-.38.395-.383.394-.384.392-.387.391-.388.39-.294.293-.295.293-.296.291-.296.29-.297.289-.298.288-.299.288-.299.286-.301.285-.3.284-.302.282-.302.282-.304.281-.303.28-.305.279-.305.277-.306.277-.307.276-.307.274-.308.274-.309.272-.31.272-.31.27-.311.269-.312.269-.312.267-.313.266-.314.265-.314.264-.316.263-.315.262-.317.261-.317.26-.318.259-.319.257-.319.257-.32.255-.321.255-.321.253-.322.253-.322.251-.324.25-.324.249-.324.249-.326.247-.326.246-.326.244-.327.244-.328.243-.329.242-.329.24-.33.24-.33.238-.332.237-.331.237-.333.235-.333.234-.333.233-.335.232-.335.231-.335.229-.336.229-.337.228-.337.226-.338.225-.339.225-.339.223-.34.222-.341.221-.341.22-.341.219-.343.218-.343.216-.343.216-.344.214-.345.214-.345.212-.346.211-.346.21-.347.209-.348.208-.348.207-.349.205-.349.205-.35.203-.35.203-.351.201-.352.2-.352.199-.353.198-.353.196-.354.196-.354.195-.355.193-.355.192-.356.191-.357.191-.357.188-.358.188-.358.187-.359.186-.359.184-.36.183-.36.183-.361.181-.361.18-.362.178-.362.178-.363.177-.364.175-.364.174-.364.173-.365.173-.366.17-.366.17-.366.169-.367.167-.368.167-.368.165-.368.164-.369.163-.37.162-.37.16-.37.16-.371.158-.371.157-.372.157-.373.154-.373.154-.373.153-.374.151-.374.151-.375.149-.375.148-.376.147-.376.145-.376.145-.377.143-.378.143-.378.141-.378.14-.379.138-.379.138-.38.137-.38.135-.381.134-.381.133-.381.132-.382.13-.382.13-.383.128-.383.127-.384.126-.384.125-.384.124-.385.122-.385.121-.386.12-.386.119-.387.118-.387.117-.387.115-.388.114-.388.113-.388.112-.389.111-.389.109-.39.109-.39.107-.39.106-.391.105-.391.103-.392.102-.392.102-.392.1-.393.098-.393.098-.394.097-.393.095-.395.094-.394.093-.395.091-.395.091-.396.089-.396.088-.396.087-.397.086-.397.084-.397.083-.398.082-.398.081-.398.08-.399.078-.399.077-.399.077-.4.074-.4.074-.4.072-.401.072-.401.069-.401.069-.402.068-.402.066-.402.065-.402.064-.403.063-.403.061-.404.06-.403.059-.405.058-.404.057-.404.055-.405.054-.406.053-.405.052-.406.05-.406.05-.406.048-.407.046-.407.046-.407.044-.407.043-.408.042-.408.041-.408.039-.409.038-.409.037-.409.036-.409.034-.409.033-.41.032-.41.031-.41.029-.411.029-.411.027-.411.025-.411.025-.411.023-.412.022-.412.021-.412.019-.413.018-.412.017-.413.016-.413.015-.413.013-.414.012-.414.011-.414.009-.414.008-.414.007-.415.006-.414.004-.415.003-.415.002-.416.001-.452-.001-.452-.002-.453-.004-.452-.006-.453-.007-.452-.008-.452-.011-.453-.011-.452-.014-.452-.014-.453-.017-.452-.018-.452-.019-.452-.021-.453-.023-.452-.024-.452-.026-.452-.027-.451-.029-.452-.03-.452-.032-.452-.033-.451-.035-.452-.037-.451-.038-.451-.039-.451-.041-.451-.043-.451-.044-.45-.046-.451-.047-.45-.049-.45-.05-.45-.052-.45-.053-.45-.055-.449-.056-.45-.058-.449-.059-.449-.061-.448-.062-.449-.064-.448-.066-.448-.067-.448-.068-.448-.07-.447-.071-.447-.073-.447-.075-.446-.076-.447-.077-.446-.079-.445-.081-.446-.081-.445-.084-.445-.085-.444-.086-.445-.088-.444-.089-.443-.091-.444-.093-.443-.094-.442-.095-.442-.097-.442-.098-.442-.1-.441-.101-.441-.103-.44-.104-.441-.106-.439-.107-.44-.108-.438-.111-.439-.111-.438-.113-.438-.115-.437-.116-.437-.117-.436-.119-.436-.12-.436-.122-.435-.123-.434-.125-.434-.126-.434-.128-.433-.129-.433-.131-.432-.132-.432-.133-.431-.135-.431-.136-.43-.138-.43-.139-.429-.141-.428-.142-.429-.144-.427-.145-.427-.146-.427-.148-.425-.149-.426-.151-.425-.152-.424-.154-.423-.155-.423-.157-.423-.157-.422-.16-.421-.16-.42-.163-.42-.163-.42-.165-.418-.167-.418-.168-.418-.169-.417-.171-.416-.172-.415-.173-.415-.175-.414-.176-.414-.178-.412-.179-.412-.181-.412-.182-.41-.183-.41-.185-.41-.186-.408-.188-.408-.189-10.859-5.056-226.883 226.893-.153.152-.152.15-.154.149-.155.148-.155.147-.156.146-.157.145-.157.144-.158.142-.159.142-.16.141-.16.139-.162.138-.161.138-.163.136-.163.135-.164.134-.165.133-.166.132-.166.13-.166.13-.168.128-.168.128-.169.126-.17.125-.17.124-.171.123-.171.122-.172.121-.173.119-.174.119-.174.117-.174.116-.176.115-.176.114-.176.113-.178.112-.177.11-.179.11-.179.108-.18.107-.18.106-.181.105-.181.104-.182.102-.183.101-.183.101-.184.099-.184.098-.185.096-.185.096-.186.094-.187.094-.187.092-.187.091-.188.09-.189.088-.189.088-.19.086-.19.085-.191.084-.191.083-.191.081-.193.081-.192.079-.193.078-.194.076-.194.076-.195.074-.195.074-.195.072-.196.071-.197.069-.197.069-.197.067-.198.066-.198.065-.199.063-.199.062-.199.062-.2.06-.2.058-.201.058-.201.056-.202.055-.202.054-.202.053-.203.051-.203.05-.203.049-.204.048-.204.046-.205.045-.205.044-.205.043-.206.041-.206.041-.206.039-.207.037-.207.037-.207.035-.208.034-.208.033-.208.031-.208.03-.209.029-.21.028-.209.026-.21.025-.21.024-.21.023-.211.021-.211.02-.211.019-.211.017-.212.016-.212.015-.212.014-.212.012-.213.011-.213.01-.213.009-.214.007-.213.006-.214.004-.214.003-.214.002-.215.001-.214-.001-.214-.002-.214-.003-.213-.004-.213-.006-.214-.007-.213-.009-.212-.01-.213-.011-.212-.012-.212-.014-.211-.014-.212-.017-.211-.017-.211-.019-.211-.02-.21-.021-.21-.023-.21-.023-.21-.026-.209-.026-.209-.028-.208-.028-.209-.031-.208-.031-.208-.033-.207-.034-.207-.035-.207-.036-.206-.038-.206-.039-.206-.04-.206-.042-.205-.042-.204-.044-.205-.045-.204-.047-.203-.047-.204-.049-.203-.05-.202-.052-.202-.052-.202-.054-.201-.055-.201-.056-.201-.058-.2-.058-.2-.06-.199-.061-.199-.062-.198-.064-.198-.065-.198-.066-.197-.067-.197-.068-.196-.07-.196-.07-.195-.072-.195-.073-.194-.075-.194-.075-.194-.077-.193-.078-.192-.079-.192-.08-.192-.082-.191-.082-.19-.084-.19-.085-.19-.086-.189-.087-.188-.089-.188-.09-.187-.09-.187-.092-.187-.094-.185-.094-.185-.095-.185-.097-.184-.098-.184-.099-.183-.1-.182-.101-.182-.103-.181-.103-.181-.105-.18-.106-.179-.107-.179-.108-.179-.109-.177-.11-.177-.112-.177-.113-.176-.113-.175-.115-.174-.116-.174-.117-.173-.119-.173-.119-.172-.121-.171-.121-.171-.123-.17-.124-.169-.125-.169-.126-.168-.127-.167-.128-.167-.13-.166-.13-.165-.132-.165-.132-.164-.134-.163-.135-.162-.136-.162-.137-.161-.138-.16-.14-.16-.14-.158-.141-.158-.143-.158-.143-.156-.145-.156-.146-.155-.146-.154-.148-.154-.149-.153-.15-.152-.151-.151-.152-.15-.153-.148-.154-.148-.154-.147-.155-.146-.156-.144-.157-.144-.157-.142-.159-.141-.159-.141-.159-.139-.161-.138-.161-.137-.162-.136-.162-.135-.164-.133-.164-.133-.164-.131-.166-.131-.166-.129-.167-.128-.167-.127-.168-.126-.169-.125-.17-.124-.17-.123-.171-.121-.171-.121-.173-.119-.172-.118-.174-.117-.174-.116-.175-.115-.175-.113-.176-.113-.177-.111-.177-.111-.178-.109-.179-.108-.179-.106-.179-.106-.181-.105-.181-.103-.181-.102-.182-.101-.183-.1-.183-.099-.184-.098-.184-.096-.185-.096-.186-.094-.186-.093-.186-.092-.187-.09-.188-.09-.188-.088-.189-.087-.189-.086-.19-.085-.19-.084-.191-.082-.191-.081-.192-.08-.192-.079-.193-.078-.194-.077-.193-.075-.195-.074-.194-.073-.195-.072-.196-.07-.196-.07-.197-.068-.197-.067-.197-.065-.198-.065-.199-.063-.198-.062-.2-.061-.199-.06-.2-.058-.201-.057-.201-.056-.201-.055-.202-.054-.202-.052-.202-.051-.203-.05-.203-.049-.204-.047-.204-.046-.204-.045-.205-.044-.205-.042-.206-.042-.205-.039-.207-.039-.206-.038-.207-.036-.207-.035-.208-.034-.207-.032-.209-.031-.208-.03-.209-.029-.209-.027-.209-.026-.21-.025-.21-.024-.21-.022-.211-.021-.211-.02-.211-.018-.211-.018-.212-.015-.212-.015-.212-.014-.212-.012-.213-.01-.213-.01-.213-.008-.213-.007-.214-.006-.214-.004-.214-.003-.214-.002-.214v-.215l.001-.214.002-.214.004-.213.004-.214.006-.213.008-.213.008-.213.01-.212.012-.212.012-.212.014-.212.015-.211.016-.212.018-.211.019-.21.02-.211.021-.21.023-.21.024-.209.025-.21.027-.209.028-.208.029-.209.03-.208.032-.207.032-.208.035-.207.035-.207.036-.206.038-.206.039-.206.041-.206.041-.205.043-.205.044-.204.045-.204.047-.204.047-.203.049-.203.051-.202.051-.203.053-.201.054-.202.055-.201.056-.2.058-.2.058-.2.06-.2.061-.199.063-.198.063-.198.065-.198.066-.197.067-.197.069-.196.07-.196.07-.195.072-.195.074-.195.074-.194.076-.193.076-.193.078-.193.08-.192.08-.192.081-.191.083-.19.084-.191.085-.189.086-.189.088-.189.088-.188.09-.187.091-.187.092-.187.093-.186.095-.185.095-.185.097-.184.098-.184.099-.183.1-.183.102-.182.102-.181.104-.181.105-.18.106-.18.107-.179.108-.179.109-.177.111-.178.111-.176.113-.176.114-.176.115-.175.116-.174.118-.173.118-.173.12-.173.12-.171.122-.171.123-.171.124-.169.125-.169.126-.168.128-.168.128-.167.13-.166.13-.166.132-.165.133-.164.134-.164.135-.162.136-.162.137-.162.139-.161.139-.159.141-.16.141-.158.143-.158.144-.157.145-.156.145-.156.147-.154.149-.154.149-.154.15-.152.151-.152 226.881-226.903-5.054-10.859-.137-.295-.136-.295-.136-.296-.134-.296-.134-.296-.133-.296-.133-.297-.131-.297-.131-.297-.13-.297-.129-.297-.128-.298-.128-.298-.127-.298-.126-.298-.125-.298-.125-.299-.123-.299-.123-.299-.123-.299-.121-.3-.121-.299-.119-.3-.12-.3-.118-.301-.117-.3-.117-.301-.116-.3-.115-.301-.115-.302-.113-.301-.113-.302-.112-.301-.112-.302-.11-.302-.11-.303-.109-.302-.109-.303-.107-.302-.107-.303-.106-.304-.105-.303-.104-.303-.104-.304-.103-.304-.102-.304-.101-.304-.101-.304-.1-.305-.099-.304-.098-.305-.097-.305-.097-.305-.096-.305-.095-.306-.095-.305-.093-.306-.093-.306-.092-.306-.092-.306-.09-.306-.09-.306-.089-.307-.088-.307-.088-.307-.087-.307-.086-.307-.085-.307-.084-.307-.084-.308-.083-.307-.082-.308-.082-.308-.08-.308-.08-.308-.079-.308-.079-.309-.077-.308-.077-.309-.076-.309-.076-.308-.074-.309-.074-.309-.073-.31-.072-.309-.072-.309-.07-.31-.07-.31-.07-.309-.068-.31-.068-.31-.067-.31-.066-.31-.066-.31-.064-.311-.064-.31-.063-.311-.063-.31-.061-.311-.061-.311-.061-.311-.059-.311-.059-.311-.057-.311-.058-.311-.056-.311-.056-.312-.055-.311-.054-.312-.053-.311-.053-.312-.051-.312-.052-.312-.05-.311-.05-.312-.048-.312-.048-.313-.048-.312-.046-.312-.046-.312-.045-.313-.045-.312-.043-.312-.043-.313-.042-.313-.041-.312-.081-.626-.077-.625-.075-.626-.071-.626-.069-.626-.065-.627-.063-.626-.059-.627-.057-.626-.053-.627-.051-.627-.047-.627-.045-.627-.041-.627-.039-.627-.036-.628-.032-.627-.03-.627-.027-.628-.024-.627-.021-.627-.017-.628-.015-.627-.012-.627-.009-.627-.006-.627-.004-.627v-.627l.003-.627.006-.627.008-.626.012-.627.014-.626.018-.626.02-.626.023-.626.027-.626.029-.625.032-.626.035-.625.038-.624.041-.625.044-.624.046-.624.05-.624.052-.623.056-.624.058-.622.061-.623.064-.622.067-.622.07-.622.073-.621.076-.62.079-.621.081-.62.084-.619.088-.62.09-.618.093-.619.096-.618.099-.617.101-.617.105-.616.107-.616.111-.616.113-.615.116-.614.119-.614.122-.613.124-.613.128-.612.13-.612.134-.611.136-.61.139-.61.141-.609.145-.608.147-.608.151-.607.153-.607.156-.606.159-.605.161-.604.165-.604.167-.603.171-.602.173-.602.175-.6.179-.6.182-.599.184-.599.187-.597.19-.597.193-.596.195-.595.199-.595.201-.593.204-.592.207-.592.209-.591.213-.59.215-.589.218-.588.221-.587.223-.586.227-.585.229-.584.232-.583.235-.583.237-.581.241-.58.243-.579.246-.578.248-.578.252-.576.254-.575.257-.573.26-.573.262-.572.265-.571.268-.569.271-.568.274-.568.276-.566.279-.564.282-.564.285-.563.287-.561.29-.56.146-.28.147-.279.147-.279.148-.279.149-.278.15-.278.15-.278.151-.277.151-.277.153-.277.153-.276.153-.276.154-.276.155-.276.156-.275.156-.275.157-.274.158-.274.158-.274.16-.274.159-.273.161-.273.161-.272.162-.272.162-.272.163-.272.164-.271.165-.271.165-.27.166-.27.166-.27.167-.27.168-.269.169-.268.169-.269.17-.268.171-.267.171-.268.172-.267.173-.266.173-.266.174-.266.175-.266.175-.265.176-.265.177-.264.177-.264.178-.264.179-.263.179-.263.18-.262.181-.263.181-.261.183-.262.182-.261.184-.26.184-.261.185-.26.185-.259.186-.259.187-.259.188-.258.188-.258.189-.258.189-.257.19-.257.191-.256.192-.256.192-.256.193-.255.193-.254.194-.255.195-.254.196-.253.196-.253.197-.253.197-.252.198-.252.199-.252.2-.251.2-.251.201-.25.201-.25.202-.249.203-.249.204-.249.204-.248.205-.247.205-.248.207-.247.206-.246.208-.246.208-.245.209-.246.209-.244.211-.245.21-.243.212-.244.212-.243.213-.242.213-.242.214-.242.215-.241.216-.241.216-.24.217-.24.217-.239.218-.239.219-.238.219-.238.22-.238.221-.237.222-.237.222-.236.222-.236.224-.235.224-.235.224-.234.226-.234.226-.233.226-.233.228-.232.228-.232.228-.232.23-.231.23-.23.294-.294.295-.292.295-.291.297-.29.297-.289.298-.289.299-.287.299-.286.3-.285.301-.284.302-.283.302-.281.303-.281.304-.28.305-.279.305-.278.306-.276.307-.276.307-.274.308-.274.309-.272.31-.272.31-.27.311-.27.311-.268.313-.267.313-.266.314-.265.314-.264.315-.263.316-.262.317-.261.317-.26.318-.259.319-.257.319-.257.32-.256.32-.254.322-.253.322-.253.322-.251.324-.25.324-.25.324-.248.326-.247.325-.246.327-.244.327-.244.328-.243.329-.242.329-.24.33-.24.33-.238.332-.237.331-.237.333-.235.333-.234.333-.233.335-.232.335-.231.335-.229.336-.229.337-.228.338-.226.338-.226.338-.224.34-.223.339-.222.341-.221.341-.22.342-.219.342-.218.343-.216.343-.216.344-.214.345-.214.345-.212.346-.211.346-.21.347-.209.348-.208.348-.207.349-.205.349-.205.35-.203.351-.203.351-.201.351-.2.352-.199.353-.198.353-.197.354-.195.355-.195.355-.193.355-.192.356-.192.357-.19.357-.189.357-.187.359-.187.358-.186.36-.184.359-.183.361-.183.361-.181.361-.18.362-.178.362-.178.363-.177.364-.175.364-.174.364-.174.365-.172.366-.17.366-.17.366-.169.367-.167.368-.167.368-.165.368-.164.37-.163.369-.162.37-.16.37-.16.371-.158.372-.157.372-.157.372-.154.373-.154.373-.153.374-.151.375-.151.374-.149.376-.148.375-.147.376-.146.377-.144.377-.143.378-.143.378-.141.378-.14.379-.139.379-.137.38-.137.38-.135.381-.134.381-.133.381-.132.382-.13.383-.13.382-.128.384-.127.383-.126.384-.125.385-.124.385-.122.385-.121.386-.121.386-.118.386-.118.387-.117.387-.115.388-.114.388-.113.389-.112.389-.111.389-.109.39-.109.39-.107.39-.106.391-.105.392-.103.391-.103.392-.101.393-.1.392-.099.393-.097.394-.097.394-.095.394-.094.395-.093.394-.091.396-.091.395-.089.396-.088.397-.087.396-.086.397-.084.398-.083.398-.082.398-.081.398-.08.399-.078.399-.078.399-.076.4-.074.4-.074.4-.072.401-.072.401-.07.401-.068.402-.068.402-.066.402-.065.403-.064.403-.063.403-.061.404-.061.403-.059.404-.057.405-.057.405-.055.404-.054.406-.053.405-.052.406-.05.406-.05.407-.048.406-.046.407-.046.407-.044.408-.043.408-.042.408-.041.408-.039.409-.038.408-.037.409-.036.41-.034.409-.033.41-.032.41-.031.411-.029.41-.029.411-.027.411-.025.411-.025.412-.023.412-.022.412-.021.412-.019.412-.019.413-.017.413-.015.413-.015.413-.013.414-.012.414-.011.414-.009.414-.008.414-.007.415-.006.415-.004.415-.003.415-.002.415-.001.505.001zm-.88 13-.376.001-.376.003-.375.004-.375.005-.375.007-.374.007-.375.009-.374.009-.374.011-.373.012-.374.013-.373.014-.373.016-.373.016-.373.018-.372.018-.372.02-.372.021-.372.022-.371.024-.371.024-.371.026-.371.026-.371.028-.37.029-.37.03-.369.031-.37.032-.369.033-.369.035-.369.035-.368.037-.368.038-.368.039-.368.04-.367.041-.368.042-.366.043-.367.045-.366.045-.366.047-.366.048-.366.048-.365.05-.365.052-.364.052-.365.053-.364.054-.364.056-.363.056-.363.058-.363.059-.363.059-.362.061-.362.062-.362.064-.361.064-.361.065-.361.066-.361.068-.36.068-.36.07-.359.071-.359.072-.359.073-.359.073-.358.076-.358.076-.358.077-.357.078-.357.08-.357.08-.356.082-.356.082-.356.084-.355.085-.355.086-.355.086-.354.088-.354.09-.354.09-.353.091-.353.092-.353.093-.352.095-.352.095-.351.097-.351.097-.351.099-.351.1-.35.101-.35.101-.349.103-.349.104-.349.105-.348.106-.348.108-.347.108-.347.109-.347.11-.346.112-.346.112-.346.114-.345.114-.345.116-.345.116-.344.118-.343.119-.344.12-.342.12-.343.122-.342.123-.342.124-.341.125-.341.126-.34.127-.34.128-.34.13-.339.13-.339.131-.338.132-.338.134-.338.134-.337.136-.337.136-.336.137-.336.139-.335.14-.335.14-.335.142-.334.142-.334.144-.333.145-.333.145-.332.147-.332.148-.332.149-.331.15-.331.151-.33.152-.329.152-.329.154-.329.155-.329.156-.327.157-.328.158-.327.159-.326.16-.326.161-.326.163-.325.163-.325.164-.324.165-.324.166-.323.167-.322.169-.323.169-.322.17-.321.171-.32.172-.321.174-.32.174-.319.175-.319.177-.318.177-.318.178-.317.179-.317.181-.316.181-.316.182-.316.184-.314.184-.315.185-.314.187-.313.187-.312.188-.313.19-.311.19-.312.191-.31.193-.311.193-.309.194-.309.196-.309.196-.308.197-.307.198-.307.2-.307.2-.305.201-.306.203-.305.203-.304.204-.304.205-.303.206-.302.208-.303.208-.301.209-.301.21-.301.211-.299.212-.299.214-.299.214-.298.215-.298.216-.297.217-.296.218-.296.219-.296.22-.294.221-.294.222-.294.223-.293.224-.292.224-.292.226-.292.227-.29.228-.29.229-.29.229-.288.231-.289.232-.287.232-.287.234-.287.235-.286.235-.285.237-.285.237-.284.239-.283.239-.283.241-.282.241-.282.243-.281.243-.28.244-.279.245-.28.247-.278.247-.278.248-.277.249-.277.25-.275.251-.276.252-.275.253-.273.254-.274.254-.273.257-.272.256-.271.258-.271.259-.27.259-.269.261-.269.261-.268.263-.268.263-.267.265-.267.266-.206.207-.207.209-.206.208-.206.209-.205.21-.204.21-.204.21-.203.211-.203.211-.201.212-.202.212-.2.212-.201.213-.199.213-.199.214-.199.214-.197.215-.198.215-.196.215-.196.216-.196.216-.195.216-.194.217-.193.218-.193.218-.193.218-.192.218-.191.219-.19.22-.191.22-.189.219-.189.221-.188.221-.188.221-.187.222-.186.222-.186.223-.185.223-.185.223-.184.223-.183.225-.183.224-.182.225-.182.225-.181.226-.181.226-.179.226-.179.226-.179.227-.178.228-.178.228-.176.228-.177.228-.175.229-.175.23-.175.229-.174.23-.173.23-.172.231-.172.231-.172.232-.171.232-.17.232-.169.232-.169.233-.169.233-.168.234-.167.234-.166.234-.166.234-.166.235-.164.236-.165.235-.163.236-.163.237-.162.236-.162.237-.161.238-.161.238-.16.237-.159.239-.159.239-.158.238-.157.24-.157.24-.156.24-.156.24-.155.241-.154.241-.154.241-.154.242-.152.241-.152.243-.151.242-.151.243-.151.244-.149.243-.149.244-.148.244-.148.245-.147.245-.147.245-.145.245-.146.246-.144.246-.145.246-.143.247-.143.247-.142.247-.142.248-.14.247-.141.249-.14.248-.139.249-.138.249-.138.249-.138.25-.136.25-.136.25-.136.25-.135.251-.134.251-.133.251-.134.252-.132.252-.128.245-.265.512-.259.507-.257.507-.254.509-.252.509-.249.511-.247.512-.244.512-.242.514-.24.515-.237.516-.234.516-.232.518-.229.519-.227.52-.224.521-.222.521-.22.523-.217.524-.214.524-.212.526-.209.526-.207.527-.204.528-.202.529-.2.53-.196.531-.195.532-.191.532-.19.533-.186.534-.184.535-.182.536-.179.536-.177.538-.174.538-.171.538-.169.54-.166.54-.164.541-.162.542-.158.542-.157.543-.153.544-.151.545-.149.545-.146.545-.143.547-.141.547-.139.547-.135.549-.133.548-.131.55-.128.55-.125.551-.123.551-.121.551-.117.553-.116.553-.112.553-.11.554-.107.554-.105.555-.102.555-.1.556-.097.556-.095.557-.091.557-.09.557-.086.558-.084.558-.082.559-.079.559-.076.56-.073.56-.071.56-.069.56-.066.561-.063.561-.06.562-.058.562-.055.562-.053.562-.05.563-.047.563-.045.563-.042.563-.04.564-.037.564-.034.564-.032.564-.029.565-.026.564-.024.565-.021.565-.018.565-.016.565-.013.566-.01.565-.008.566-.005.566-.003.565v.566l.003.566.006.566.008.566.011.566.013.566.016.566.019.567.022.566.024.566.027.566.029.566.032.566.035.566.038.565.04.566.043.566.045.566.049.565.051.566.053.565.057.565.059.565.062.565.064.564.067.565.07.564.073.572.037.274.038.282.038.282.04.282.04.282.04.281.042.282.042.281.042.282.044.281.044.282.044.281.046.282.046.28.047.281.047.282.048.281.049.281.049.28.051.281.051.281.051.281.052.28.053.281.054.28.054.28.055.281.055.28.057.28.057.28.057.279.059.28.059.28.059.279.061.28.061.279.061.279.063.28.063.279.064.279.064.279.065.279.066.278.067.279.067.279.068.278.069.278.069.278.07.278.07.278.072.278.072.278.072.278.074.277.074.278.075.277.075.277.076.277.077.277.078.277.078.276.079.277.079.276.08.277.081.276.082.276.082.276.083.276.084.275.084.275.086.276.085.275.087.275.087.275.088.275.088.275.09.274.09.275.09.274.092.274.092.274.092.274.094.273.094.274.095.273.095.274.096.272.097.273.098.273.098.273.099.272.1.272.1.272.101.273.102.271.102.272.103.271.104.271.105.271.105.272.106.27.106.271.108.27.108.27.108.271.11.27.11.269.111.27.111.269.113.269.113.269.113.269.115.269.114.268.116.268.117.269.117.267.118.268.118.267.119.268.12.267.121.267.121.267.123.266.122.267.127.273 5.051 10.851.977 3.012.219 3.159-.551 3.118-1.288 2.893-1.95 2.496-226.875 226.897-.118.118-.095.097-.094.096-.093.097-.092.098-.092.097-.091.098-.09.099-.089.098-.089.1-.088.099-.087.1-.087.101-.086.101-.084.101-.084.101-.084.102-.083.103-.082.102-.081.103-.081.103-.079.104-.08.104-.078.105-.077.104-.077.106-.077.105-.075.106-.075.106-.074.107-.073.107-.073.108-.071.107-.071.108-.071.108-.069.109-.069.109-.068.109-.068.11-.066.11-.066.11-.066.111-.064.111-.064.111-.063.112-.063.112-.061.113-.061.112-.06.113-.06.113-.058.114-.059.114-.057.114-.056.115-.056.114-.055.116-.055.115-.053.116-.053.116-.053.117-.051.116-.051.117-.05.117-.049.118-.049.118-.048.118-.047.119-.046.119-.046.119-.045.119-.044.12-.044.12-.043.12-.042.121-.041.121-.04.121-.04.122-.039.121-.039.122-.037.123-.037.122-.036.123-.036.124-.035.123-.033.124-.034.124-.032.124-.032.125-.031.124-.03.126-.029.125-.029.126-.028.126-.027.126-.027.126-.025.127-.025.127-.024.128-.024.127-.022.128-.022.128-.021.129-.021.128-.019.129-.019.129-.018.13-.017.129-.017.13-.016.131-.015.13-.014.131-.013.131-.013.131-.012.132-.011.132-.01.132-.009.132-.009.132-.008.133-.007.133-.006.134-.005.133-.005.134-.004.134-.003.134-.002.135-.001.135-.001.135v.135l.001.136.002.135.003.135.003.134.005.135.005.134.006.134.007.134.007.133.009.133.009.133.01.133.011.133.011.132.013.132.013.131.014.132.014.131.016.131.016.131.017.13.018.13.019.13.019.13.02.129.021.129.022.129.022.129.024.128.024.128.024.128.026.128.026.127.027.127.028.126.029.127.029.126.03.126.031.125.031.126.033.125.033.125.034.124.034.124.035.124.036.124.037.123.038.123.038.123.039.123.04.122.04.122.042.121.041.122.043.121.044.121.044.12.045.12.045.12.047.119.047.12.048.119.048.118.049.118.05.119.051.117.051.118.053.116.053.118.053.116.055.116.055.116.055.115.057.115.057.115.058.115.059.114.059.114.06.114.061.113.062.113.062.112.063.112.064.112.064.112.066.111.066.111.066.111.068.11.068.109.068.11.07.109.07.109.071.108.072.109.072.107.073.108.074.107.075.106.075.107.076.106.077.105.077.106.079.105.078.103.08.105.081.104.081.103.082.103.082.102.084.103.084.102.084.101.086.101.086.101.087.1.087.099.089.1.09.1.09.098.09.098.091.098.093.098.093.097.093.096.094.096.093.094.094.093.096.094.096.094.098.093.097.093.098.091.099.091.098.09.099.089.1.089.1.088.1.087.101.086.101.086.102.085.101.084.102.084.103.082.103.083.104.081.103.08.104.08.105.079.105.079.105.077.105.077.107.077.106.075.106.074.107.075.108.073.107.072.108.072.109.071.108.071.11.07.11.069.109.068.11.067.111.067.111.066.11.065.112.065.112.064.112.063.113.062.113.062.113.061.113.06.113.06.115.059.115.058.114.057.115.057.116.056.115.055.117.055.116.053.116.053.117.052.118.052.118.051.117.05.118.049.118.049.119.048.119.047.12.047.119.046.12.044.12.045.12.043.122.043.121.042.121.041.122.041.122.04.121.039.123.038.123.038.123.037.123.036.124.035.124.035.124.034.125.033.125.033.124.031.125.031.126.031.126.029.125.028.127.028.127.028.127.026.126.026.128.025.128.024.128.023.128.023.128.021.128.021.129.021.13.019.129.019.13.018.129.017.131.016.13.016.131.015.131.014.131.013.131.013.133.011.131.011.132.01.133.01.132.008.133.008.134.007.132.006.134.005.135.005.133.003.134.003.135.002.134.002h.135.136l.135-.002.134-.002.134-.003.136-.003.134-.005.133-.005.134-.006.133-.007.133-.008.133-.008.132-.01.133-.01.133-.011.131-.011.132-.013.131-.013.131-.014.132-.015.13-.016.13-.016.13-.017.13-.018.13-.019.129-.02.13-.02.129-.021.128-.022.128-.023.128-.023.128-.024.127-.025.127-.026.128-.026.127-.027.127-.028.126-.029.125-.029.126-.03.126-.032.124-.031.126-.033.125-.033.123-.034.125-.035.123-.035.123-.036.125-.037.122-.038.123-.038.122-.04.122-.039.122-.041.121-.041.121-.043.122-.043.12-.043.12-.044.121-.045.119-.046.12-.047.12-.047.118-.048.118-.049.118-.049.119-.051.117-.05.117-.052.118-.053.117-.053.116-.053.116-.055.116-.055.116-.056.115-.057.114-.057.115-.058.114-.059.115-.06.113-.061.113-.06.113-.062.113-.063.112-.063.112-.064.112-.065.111-.065.112-.067.11-.067.11-.067.11-.068.109-.069.11-.07.108-.07.109-.072.109-.072.107-.073.108-.073.107-.074.107-.075.106-.075.107-.077.105-.077.105-.078.106-.079.104-.079.105-.08.103-.08.104-.082.103-.082.103-.083.102-.083.102-.085.102-.085.101-.086.101-.086.101-.088.1-.088.099-.089.1-.089.099-.091.098-.091.098-.092.098-.092.097-.093.097-.094.097-.095.111-.111 226.87-226.88 2.496-1.95 2.893-1.289 3.119-.551 3.159.22 3.013.977 10.849 5.051.376.175.367.168.368.167.368.167.37.165.37.163.37.163.371.161.373.16.372.158.373.158.374.156.375.155.375.153.376.153.377.151.376.15.378.148.379.148.378.146.38.145.38.143.381.143.381.141.382.139.382.139.383.137.383.136.384.135.385.133.385.132.386.131.386.129.387.129.387.126.388.126.388.125.388.122.389.122.39.121.391.119.39.118.391.116.391.115.392.114.393.113.392.111.394.11.393.109.395.107.394.107.395.104.395.104.396.102.396.1.396.1.397.098.398.097.397.095.398.094.398.093.399.092.399.09.399.089.399.087.4.086.401.085.4.084.401.082.401.08.401.08.402.078.402.077.402.075.403.074.402.073.403.071.404.07.403.069.404.067.404.066.404.064.404.063.404.062.405.061.405.059.405.057.405.057.406.055.406.053.405.053.406.05.406.05.407.048.406.047.407.045.406.044.407.043.407.041.407.04.407.038.407.037.407.036.407.034.408.033.407.032.408.03.407.029.408.027.408.026.407.024.408.024.407.021.408.021.408.019.408.017.408.017.407.014.408.014.408.012.407.01.408.009.408.008.407.007.408.004.407.004.408.002.408.001.374-.001.375-.001.376-.003.376-.004.374-.005.375-.007.375-.007.374-.009.374-.009.373-.011.374-.012.374-.013.373-.014.373-.016.373-.016.372-.018.372-.019.372-.019.373-.021.371-.023.372-.023.371-.024.37-.026.371-.026.371-.028.369-.029.371-.03.369-.031.369-.032.37-.033.369-.035.368-.035.368-.037.369-.038.368-.039.367-.04.368-.041.367-.042.366-.043.367-.045.366-.045.367-.047.365-.048.365-.048.365-.05.365-.052.365-.052.365-.053.363-.054.364-.056.363-.056.364-.058.362-.059.363-.059.362-.061.362-.062.362-.064.361-.064.361-.065.361-.066.36-.068.36-.068.361-.07.359-.071.359-.072.359-.073.359-.073.358-.076.358-.076.357-.077.357-.078.357-.08.357-.08.357-.082.356-.082.355-.084.356-.085.354-.086.355-.086.354-.088.354-.089.354-.091.353-.091.353-.092.352-.093.353-.095.352-.095.351-.097.351-.097.351-.099.35-.1.351-.101.349-.101.349-.103.349-.104.348-.105.349-.107.348-.107.347-.108.348-.109.346-.11.346-.112.346-.112.346-.114.345-.114.345-.116.344-.116.344-.118.344-.119.343-.12.343-.12.343-.122.342-.123.341-.124.341-.125.341-.126.341-.127.34-.128.339-.129.34-.131.339-.131.337-.132.339-.134.337-.134.337-.135.337-.137.336-.137.336-.139.336-.139.334-.141.335-.142.334-.142.334-.144.333-.145.333-.145.332-.147.332-.148.332-.149.331-.15.33-.15.33-.152.33-.153.329-.154.329-.155.328-.156.328-.157.328-.158.327-.159.326-.16.326-.161.325-.162.326-.164.324-.164.324-.165.324-.166.323-.167.323-.168.322-.17.322-.17.321-.171.321-.172.32-.174.32-.174.319-.175.319-.176.318-.178.318-.178.318-.179.316-.181.316-.181.316-.182.316-.184.315-.184.314-.185.313-.187.314-.187.313-.188.312-.19.312-.19.311-.191.31-.192.311-.194.309-.194.309-.195.309-.197.308-.197.307-.198.307-.2.306-.2.307-.201.305-.203.305-.203.304-.204.304-.205.303-.207.302-.206.302-.209.302-.209.301-.21.3-.211.3-.212.299-.214.299-.214.298-.215.298-.216.297-.217.296-.218.296-.219.295-.22.295-.221.294-.222.294-.223.293-.224.292-.224.292-.226.291-.227.291-.228.29-.229.289-.229.289-.231.288-.232.288-.233.287-.233.287-.235.285-.235.286-.237.284-.237.284-.239.284-.239.283-.241.282-.241.281-.242.281-.244.281-.244.279-.245.279-.246.279-.248.278-.248.277-.249.276-.25.276-.251.276-.252.274-.253.274-.254.273-.255.273-.256.272-.256.272-.258.271-.259.27-.259.269-.261.269-.261.268-.263.268-.264.266-.264.264-.263.353-.354.348-.352.346-.354.346-.355.343-.357.341-.357.34-.359.338-.36.337-.361.334-.362.333-.363.331-.365.33-.366.328-.367.326-.368.325-.369.322-.37.321-.371.32-.373.317-.374.316-.374.315-.376.312-.377.311-.378.309-.379.307-.381.306-.381.304-.383.302-.383.301-.384.299-.386.296-.387.296-.387.293-.389.292-.39.291-.391.288-.392.287-.392.285-.394.283-.395.282-.396.279-.397.279-.397.276-.399.274-.4.273-.401.272-.402.269-.402.268-.404.266-.404.264-.406.262-.406.261-.407.259-.409.257-.409.256-.41.254-.411.252-.412.25-.413.249-.413.246-.415.246-.416.243-.416.241-.417.24-.418.238-.419.237-.42.234-.42.233-.422.231-.422.229-.423.228-.424.226-.425.224-.425.222-.427.22-.427.219-.428.217-.429.215-.429.213-.43.212-.431.21-.432.208-.432.207-.434.204-.433.203-.435.201-.436.199-.436.198-.437.195-.437.194-.439.192-.439.191-.44.188-.44.187-.441.185-.442.183-.442.181-.443.18-.444.178-.445.176-.445.174-.445.172-.446.171-.447.169-.448.167-.448.165-.449.164-.449.161-.45.16-.451.158-.451.157-.452.154-.452.153-.453.15-.453.149-.454.148-.455.145-.455.143-.455.142-.456.14-.457.138-.457.136-.458.135-.458.133-.459.131-.459.128-.46.128-.46.125-.46.124-.461.121-.462.12-.462.118-.462.116-.463.115-.464.112-.463.111-.464.109-.465.107-.465.105-.465.104-.466.101-.466.1-.467.098-.467.096-.467.094-.467.092-.469.091-.468.088-.469.087-.469.085-.469.083-.47.081-.47.08-.47.077-.471.076-.471.074-.471.072-.472.07-.472.068-.472.066-.472.065-.473.062-.473.061-.473.059-.474.057-.474.055-.473.054-.474.051-.475.05-.474.047-.475.046-.475.044-.475.042-.476.04-.475.039-.476.036-.476.035-.476.032-.476.031-.477.029-.477.027-.476.025-.477.024-.477.021-.477.019-.477.018-.478.016-.477.014-.478.012-.478.01-.477.008-.478.006-.478.004-.478.003-.478v-.478l-.001-.478-.003-.478-.005-.478-.007-.479-.009-.478-.011-.478-.013-.479-.014-.478-.009-.241-74.121 74.12-2.692 2.066-3.135 1.299-3.365.443-3.365-.443-3.135-1.299-2.692-2.066-96.831-96.832-2.066-2.692-1.299-3.136-.443-3.364.443-3.365 1.299-3.135 2.066-2.693 74.155-74.155-.358-.013-.455-.015-.454-.013-.455-.011-.454-.01-.455-.008-.454-.006-.454-.004-.454-.003-.457-.001-.373.001z" fill="#fff"/></svg>