<?xml version="1.0" encoding="UTF-8" standalone="no"?><!DOCTYPE svg PUBLIC "-//W3C//DTD SVG 1.1//EN" "http://www.w3.org/Graphics/SVG/1.1/DTD/svg11.dtd"><svg width="100%" height="100%" viewBox="0 0 485 485" version="1.1" xmlns="http://www.w3.org/2000/svg" xmlns:xlink="http://www.w3.org/1999/xlink" xml:space="preserve" style="fill-rule:evenodd;clip-rule:evenodd;stroke-linejoin:round;stroke-miterlimit:1.41421;"><path d="M352.788,0.001l0.504,0.003l0.505,0.005l0.504,0.007l0.504,0.008l0.505,0.011l0.504,0.013l0.505,0.014l0.504,0.017l0.504,0.018l0.505,0.021l0.504,0.022l0.504,0.024l0.504,0.026l0.505,0.028l0.504,0.03l0.503,0.032l0.504,0.034l0.504,0.036l0.504,0.038l0.503,0.039l0.503,0.042l0.504,0.043l0.503,0.046l0.503,0.047l0.502,0.049l0.503,0.051l0.502,0.053l0.502,0.055l0.502,0.056l0.502,0.059l0.502,0.061l0.501,0.062l0.501,0.064l0.501,0.066l0.501,0.069l0.5,0.069l0.5,0.072l0.5,0.074l0.5,0.076l0.499,0.077l0.499,0.079l0.499,0.082l0.498,0.083l0.498,0.085l0.498,0.086l0.497,0.089l0.497,0.091l0.497,0.092l0.496,0.094l0.496,0.096l0.496,0.098l0.495,0.1l0.495,0.102l0.494,0.103l0.494,0.106l0.493,0.107l0.493,0.109l0.493,0.111l0.492,0.113l0.492,0.114l0.491,0.117l0.491,0.118l0.491,0.12l-92.519,92.519l96.831,96.832l92.534,-92.532l0.127,0.522l0.126,0.522l0.123,0.522l0.121,0.523l0.119,0.523l0.117,0.524l0.114,0.523l0.113,0.524l0.11,0.525l0.108,0.524l0.106,0.525l0.104,0.525l0.101,0.525l0.1,0.526l0.097,0.526l0.095,0.526l0.093,0.526l0.091,0.527l0.089,0.526l0.086,0.527l0.085,0.527l0.082,0.528l0.08,0.527l0.078,0.528l0.076,0.528l0.073,0.528l0.072,0.528l0.069,0.528l0.067,0.529l0.066,0.528l0.063,0.529l0.06,0.529l0.059,0.529l0.057,0.529l0.054,0.529l0.052,0.529l0.05,0.53l0.048,0.529l0.046,0.53l0.044,0.53l0.042,0.529l0.039,0.53l0.038,0.53l0.035,0.53l0.033,0.53l0.031,0.53l0.029,0.53l0.027,0.53l0.024,0.53l0.023,0.53l0.02,0.53l0.019,0.53l0.016,0.53l0.014,0.53l0.012,0.53l0.01,0.53l0.008,0.53l0.005,0.529l0.004,0.53l0.001,0.53l0,0.53l-0.003,0.529l-0.005,0.53l-0.007,0.529l-0.009,0.53l-0.011,0.529l-0.013,0.529l-0.015,0.529l-0.018,0.529l-0.019,0.529l-0.022,0.528l-0.024,0.529l-0.025,0.528l-0.028,0.528l-0.03,0.528l-0.032,0.528l-0.034,0.528l-0.037,0.527l-0.038,0.528l-0.04,0.527l-0.043,0.527l-0.044,0.527l-0.047,0.526l-0.049,0.527l-0.05,0.526l-0.053,0.526l-0.055,0.525l-0.057,0.526l-0.059,0.525l-0.061,0.524l-0.063,0.525l-0.066,0.524l-0.067,0.524l-0.069,0.524l-0.072,0.524l-0.073,0.523l-0.076,0.523l-0.077,0.522l-0.08,0.523l-0.082,0.521l-0.084,0.522l-0.085,0.521l-0.088,0.521l-0.09,0.521l-0.092,0.52l-0.094,0.52l-0.096,0.519l-0.098,0.519l-0.101,0.519l-0.102,0.518l-0.104,0.518l-0.106,0.518l-0.109,0.517l-0.11,0.516l-0.113,0.517l-0.114,0.516l-0.117,0.515l-0.118,0.515l-0.121,0.514l-0.122,0.514l-0.125,0.514l-0.127,0.513l-0.128,0.513l-0.131,0.512l-0.133,0.511l-0.135,0.511l-0.137,0.511l-0.138,0.51l-0.141,0.51l-0.143,0.509l-0.145,0.508l-0.147,0.508l-0.149,0.508l-0.151,0.507l-0.153,0.506l-0.155,0.506l-0.157,0.505l-0.159,0.505l-0.161,0.504l-0.163,0.503l-0.165,0.503l-0.167,0.502l-0.169,0.502l-0.171,0.501l-0.173,0.501l-0.175,0.499l-0.177,0.499l-0.179,0.499l-0.182,0.498l-0.183,0.497l-0.185,0.496l-0.187,0.496l-0.189,0.496l-0.191,0.494l-0.193,0.494l-0.195,0.493l-0.197,0.492l-0.199,0.492l-0.201,0.491l-0.203,0.49l-0.205,0.49l-0.207,0.489l-0.209,0.488l-0.211,0.487l-0.213,0.486l-0.214,0.486l-0.217,0.485l-0.219,0.484l-0.221,0.484l-0.223,0.482l-0.225,0.482l-0.226,0.481l-0.229,0.481l-0.231,0.479l-0.232,0.479l-0.235,0.477l-0.236,0.477l-0.239,0.476l-0.24,0.476l-0.243,0.474l-0.244,0.474l-0.247,0.472l-0.248,0.472l-0.25,0.471l-0.253,0.47l-0.254,0.469l-0.256,0.468l-0.258,0.467l-0.26,0.467l-0.262,0.465l-0.264,0.465l-0.266,0.463l-0.268,0.463l-0.27,0.462l-0.272,0.46l-0.273,0.46l-0.276,0.459l-0.278,0.458l-0.279,0.457l-0.282,0.455l-0.283,0.455l-0.285,0.454l-0.288,0.453l-0.289,0.452l-0.291,0.451l-0.293,0.449l-0.295,0.449l-0.297,0.448l-0.299,0.446l-0.301,0.446l-0.303,0.445l-0.304,0.443l-0.307,0.442l-0.308,0.442l-0.311,0.44l-0.312,0.439l-0.314,0.438l-0.316,0.437l-0.319,0.436l-0.32,0.434l-0.321,0.434l-0.324,0.432l-0.326,0.431l-0.328,0.431l-0.329,0.428l-0.332,0.428l-0.333,0.427l-0.335,0.425l-0.338,0.425l-0.339,0.423l-0.341,0.422l-0.343,0.42l-0.345,0.42l-0.346,0.418l-0.349,0.417l-0.35,0.416l-0.353,0.414l-0.354,0.414l-0.356,0.412l-0.358,0.41l-0.36,0.41l-0.362,0.408l-0.364,0.407l-0.366,0.406l-0.367,0.404l-0.369,0.404l-0.372,0.401l-0.373,0.401l-0.375,0.399l-0.377,0.398l-0.379,0.397l-0.38,0.395l-0.383,0.394l-0.384,0.392l-0.387,0.391l-0.388,0.39l-0.294,0.293l-0.295,0.293l-0.296,0.291l-0.296,0.29l-0.297,0.289l-0.298,0.288l-0.299,0.288l-0.299,0.286l-0.301,0.285l-0.3,0.284l-0.302,0.282l-0.302,0.282l-0.304,0.281l-0.303,0.28l-0.305,0.279l-0.305,0.277l-0.306,0.277l-0.307,0.276l-0.307,0.274l-0.308,0.274l-0.309,0.272l-0.31,0.272l-0.31,0.27l-0.311,0.269l-0.312,0.269l-0.312,0.267l-0.313,0.266l-0.314,0.265l-0.314,0.264l-0.316,0.263l-0.315,0.262l-0.317,0.261l-0.317,0.26l-0.318,0.259l-0.319,0.257l-0.319,0.257l-0.32,0.255l-0.321,0.255l-0.321,0.253l-0.322,0.253l-0.322,0.251l-0.324,0.25l-0.324,0.249l-0.324,0.249l-0.326,0.247l-0.326,0.246l-0.326,0.244l-0.327,0.244l-0.328,0.243l-0.329,0.242l-0.329,0.24l-0.33,0.24l-0.33,0.238l-0.332,0.237l-0.331,0.237l-0.333,0.235l-0.333,0.234l-0.333,0.233l-0.335,0.232l-0.335,0.231l-0.335,0.229l-0.336,0.229l-0.337,0.228l-0.337,0.226l-0.338,0.225l-0.339,0.225l-0.339,0.223l-0.34,0.222l-0.341,0.221l-0.341,0.22l-0.341,0.219l-0.343,0.218l-0.343,0.216l-0.343,0.216l-0.344,0.214l-0.345,0.214l-0.345,0.212l-0.346,0.211l-0.346,0.21l-0.347,0.209l-0.348,0.208l-0.348,0.207l-0.349,0.205l-0.349,0.205l-0.35,0.203l-0.35,0.203l-0.351,0.201l-0.352,0.2l-0.352,0.199l-0.353,0.198l-0.353,0.196l-0.354,0.196l-0.354,0.195l-0.355,0.193l-0.355,0.192l-0.356,0.191l-0.357,0.191l-0.357,0.188l-0.358,0.188l-0.358,0.187l-0.359,0.186l-0.359,0.184l-0.36,0.183l-0.36,0.183l-0.361,0.181l-0.361,0.18l-0.362,0.178l-0.362,0.178l-0.363,0.177l-0.364,0.175l-0.364,0.174l-0.364,0.173l-0.365,0.173l-0.366,0.17l-0.366,0.17l-0.366,0.169l-0.367,0.167l-0.368,0.167l-0.368,0.165l-0.368,0.164l-0.369,0.163l-0.37,0.162l-0.37,0.16l-0.37,0.16l-0.371,0.158l-0.371,0.157l-0.372,0.157l-0.373,0.154l-0.373,0.154l-0.373,0.153l-0.374,0.151l-0.374,0.151l-0.375,0.149l-0.375,0.148l-0.376,0.147l-0.376,0.145l-0.376,0.145l-0.377,0.143l-0.378,0.143l-0.378,0.141l-0.378,0.14l-0.379,0.138l-0.379,0.138l-0.38,0.137l-0.38,0.135l-0.381,0.134l-0.381,0.133l-0.381,0.132l-0.382,0.13l-0.382,0.13l-0.383,0.128l-0.383,0.127l-0.384,0.126l-0.384,0.125l-0.384,0.124l-0.385,0.122l-0.385,0.121l-0.386,0.12l-0.386,0.119l-0.387,0.118l-0.387,0.117l-0.387,0.115l-0.388,0.114l-0.388,0.113l-0.388,0.112l-0.389,0.111l-0.389,0.109l-0.39,0.109l-0.39,0.107l-0.39,0.106l-0.391,0.105l-0.391,0.103l-0.392,0.102l-0.392,0.102l-0.392,0.1l-0.393,0.098l-0.393,0.098l-0.394,0.097l-0.393,0.095l-0.395,0.094l-0.394,0.093l-0.395,0.091l-0.395,0.091l-0.396,0.089l-0.396,0.088l-0.396,0.087l-0.397,0.086l-0.397,0.084l-0.397,0.083l-0.398,0.082l-0.398,0.081l-0.398,0.08l-0.399,0.078l-0.399,0.077l-0.399,0.077l-0.4,0.074l-0.4,0.074l-0.4,0.072l-0.401,0.072l-0.401,0.069l-0.401,0.069l-0.402,0.068l-0.402,0.066l-0.402,0.065l-0.402,0.064l-0.403,0.063l-0.403,0.061l-0.404,0.06l-0.403,0.059l-0.405,0.058l-0.404,0.057l-0.404,0.055l-0.405,0.054l-0.406,0.053l-0.405,0.052l-0.406,0.05l-0.406,0.05l-0.406,0.048l-0.407,0.046l-0.407,0.046l-0.407,0.044l-0.407,0.043l-0.408,0.042l-0.408,0.041l-0.408,0.039l-0.409,0.038l-0.409,0.037l-0.409,0.036l-0.409,0.034l-0.409,0.033l-0.41,0.032l-0.41,0.031l-0.41,0.029l-0.411,0.029l-0.411,0.027l-0.411,0.025l-0.411,0.025l-0.411,0.023l-0.412,0.022l-0.412,0.021l-0.412,0.019l-0.413,0.018l-0.412,0.017l-0.413,0.016l-0.413,0.015l-0.413,0.013l-0.414,0.012l-0.414,0.011l-0.414,0.009l-0.414,0.008l-0.414,0.007l-0.415,0.006l-0.414,0.004l-0.415,0.003l-0.415,0.002l-0.416,0.001l-0.452,-0.001l-0.452,-0.002l-0.453,-0.004l-0.452,-0.006l-0.453,-0.007l-0.452,-0.008l-0.452,-0.011l-0.453,-0.011l-0.452,-0.014l-0.452,-0.014l-0.453,-0.017l-0.452,-0.018l-0.452,-0.019l-0.452,-0.021l-0.453,-0.023l-0.452,-0.024l-0.452,-0.026l-0.452,-0.027l-0.451,-0.029l-0.452,-0.03l-0.452,-0.032l-0.452,-0.033l-0.451,-0.035l-0.452,-0.037l-0.451,-0.038l-0.451,-0.039l-0.451,-0.041l-0.451,-0.043l-0.451,-0.044l-0.45,-0.046l-0.451,-0.047l-0.45,-0.049l-0.45,-0.05l-0.45,-0.052l-0.45,-0.053l-0.45,-0.055l-0.449,-0.056l-0.45,-0.058l-0.449,-0.059l-0.449,-0.061l-0.448,-0.062l-0.449,-0.064l-0.448,-0.066l-0.448,-0.067l-0.448,-0.068l-0.448,-0.07l-0.447,-0.071l-0.447,-0.073l-0.447,-0.075l-0.446,-0.076l-0.447,-0.077l-0.446,-0.079l-0.445,-0.081l-0.446,-0.081l-0.445,-0.084l-0.445,-0.085l-0.444,-0.086l-0.445,-0.088l-0.444,-0.089l-0.443,-0.091l-0.444,-0.093l-0.443,-0.094l-0.442,-0.095l-0.442,-0.097l-0.442,-0.098l-0.442,-0.1l-0.441,-0.101l-0.441,-0.103l-0.44,-0.104l-0.441,-0.106l-0.439,-0.107l-0.44,-0.108l-0.438,-0.111l-0.439,-0.111l-0.438,-0.113l-0.438,-0.115l-0.437,-0.116l-0.437,-0.117l-0.436,-0.119l-0.436,-0.12l-0.436,-0.122l-0.435,-0.123l-0.434,-0.125l-0.434,-0.126l-0.434,-0.128l-0.433,-0.129l-0.433,-0.131l-0.432,-0.132l-0.432,-0.133l-0.431,-0.135l-0.431,-0.136l-0.43,-0.138l-0.43,-0.139l-0.429,-0.141l-0.428,-0.142l-0.429,-0.144l-0.427,-0.145l-0.427,-0.146l-0.427,-0.148l-0.425,-0.149l-0.426,-0.151l-0.425,-0.152l-0.424,-0.154l-0.423,-0.155l-0.423,-0.157l-0.423,-0.157l-0.422,-0.16l-0.421,-0.16l-0.42,-0.163l-0.42,-0.163l-0.42,-0.165l-0.418,-0.167l-0.418,-0.168l-0.418,-0.169l-0.417,-0.171l-0.416,-0.172l-0.415,-0.173l-0.415,-0.175l-0.414,-0.176l-0.414,-0.178l-0.412,-0.179l-0.412,-0.181l-0.412,-0.182l-0.41,-0.183l-0.41,-0.185l-0.41,-0.186l-0.408,-0.188l-0.408,-0.189l-10.859,-5.056l-226.883,226.893l-0.153,0.152l-0.152,0.15l-0.154,0.149l-0.155,0.148l-0.155,0.147l-0.156,0.146l-0.157,0.145l-0.157,0.144l-0.158,0.142l-0.159,0.142l-0.16,0.141l-0.16,0.139l-0.162,0.138l-0.161,0.138l-0.163,0.136l-0.163,0.135l-0.164,0.134l-0.165,0.133l-0.166,0.132l-0.166,0.13l-0.166,0.13l-0.168,0.128l-0.168,0.128l-0.169,0.126l-0.17,0.125l-0.17,0.124l-0.171,0.123l-0.171,0.122l-0.172,0.121l-0.173,0.119l-0.174,0.119l-0.174,0.117l-0.174,0.116l-0.176,0.115l-0.176,0.114l-0.176,0.113l-0.178,0.112l-0.177,0.11l-0.179,0.11l-0.179,0.108l-0.18,0.107l-0.18,0.106l-0.181,0.105l-0.181,0.104l-0.182,0.102l-0.183,0.101l-0.183,0.101l-0.184,0.099l-0.184,0.098l-0.185,0.096l-0.185,0.096l-0.186,0.094l-0.187,0.094l-0.187,0.092l-0.187,0.091l-0.188,0.09l-0.189,0.088l-0.189,0.088l-0.19,0.086l-0.19,0.085l-0.191,0.084l-0.191,0.083l-0.191,0.081l-0.193,0.081l-0.192,0.079l-0.193,0.078l-0.194,0.076l-0.194,0.076l-0.195,0.074l-0.195,0.074l-0.195,0.072l-0.196,0.071l-0.197,0.069l-0.197,0.069l-0.197,0.067l-0.198,0.066l-0.198,0.065l-0.199,0.063l-0.199,0.062l-0.199,0.062l-0.2,0.06l-0.2,0.058l-0.201,0.058l-0.201,0.056l-0.202,0.055l-0.202,0.054l-0.202,0.053l-0.203,0.051l-0.203,0.05l-0.203,0.049l-0.204,0.048l-0.204,0.046l-0.205,0.045l-0.205,0.044l-0.205,0.043l-0.206,0.041l-0.206,0.041l-0.206,0.039l-0.207,0.037l-0.207,0.037l-0.207,0.035l-0.208,0.034l-0.208,0.033l-0.208,0.031l-0.208,0.03l-0.209,0.029l-0.21,0.028l-0.209,0.026l-0.21,0.025l-0.21,0.024l-0.21,0.023l-0.211,0.021l-0.211,0.02l-0.211,0.019l-0.211,0.017l-0.212,0.016l-0.212,0.015l-0.212,0.014l-0.212,0.012l-0.213,0.011l-0.213,0.01l-0.213,0.009l-0.214,0.007l-0.213,0.006l-0.214,0.004l-0.214,0.003l-0.214,0.002l-0.215,0.001l-0.214,-0.001l-0.214,-0.002l-0.214,-0.003l-0.213,-0.004l-0.213,-0.006l-0.214,-0.007l-0.213,-0.009l-0.212,-0.01l-0.213,-0.011l-0.212,-0.012l-0.212,-0.014l-0.211,-0.014l-0.212,-0.017l-0.211,-0.017l-0.211,-0.019l-0.211,-0.02l-0.21,-0.021l-0.21,-0.023l-0.21,-0.023l-0.21,-0.026l-0.209,-0.026l-0.209,-0.028l-0.208,-0.028l-0.209,-0.031l-0.208,-0.031l-0.208,-0.033l-0.207,-0.034l-0.207,-0.035l-0.207,-0.036l-0.206,-0.038l-0.206,-0.039l-0.206,-0.04l-0.206,-0.042l-0.205,-0.042l-0.204,-0.044l-0.205,-0.045l-0.204,-0.047l-0.203,-0.047l-0.204,-0.049l-0.203,-0.05l-0.202,-0.052l-0.202,-0.052l-0.202,-0.054l-0.201,-0.055l-0.201,-0.056l-0.201,-0.058l-0.2,-0.058l-0.2,-0.06l-0.199,-0.061l-0.199,-0.062l-0.198,-0.064l-0.198,-0.065l-0.198,-0.066l-0.197,-0.067l-0.197,-0.068l-0.196,-0.07l-0.196,-0.07l-0.195,-0.072l-0.195,-0.073l-0.194,-0.075l-0.194,-0.075l-0.194,-0.077l-0.193,-0.078l-0.192,-0.079l-0.192,-0.08l-0.192,-0.082l-0.191,-0.082l-0.19,-0.084l-0.19,-0.085l-0.19,-0.086l-0.189,-0.087l-0.188,-0.089l-0.188,-0.09l-0.187,-0.09l-0.187,-0.092l-0.187,-0.094l-0.185,-0.094l-0.185,-0.095l-0.185,-0.097l-0.184,-0.098l-0.184,-0.099l-0.183,-0.1l-0.182,-0.101l-0.182,-0.103l-0.181,-0.103l-0.181,-0.105l-0.18,-0.106l-0.179,-0.107l-0.179,-0.108l-0.179,-0.109l-0.177,-0.11l-0.177,-0.112l-0.177,-0.113l-0.176,-0.113l-0.175,-0.115l-0.174,-0.116l-0.174,-0.117l-0.173,-0.119l-0.173,-0.119l-0.172,-0.121l-0.171,-0.121l-0.171,-0.123l-0.17,-0.124l-0.169,-0.125l-0.169,-0.126l-0.168,-0.127l-0.167,-0.128l-0.167,-0.13l-0.166,-0.13l-0.165,-0.132l-0.165,-0.132l-0.164,-0.134l-0.163,-0.135l-0.162,-0.136l-0.162,-0.137l-0.161,-0.138l-0.16,-0.14l-0.16,-0.14l-0.158,-0.141l-0.158,-0.143l-0.158,-0.143l-0.156,-0.145l-0.156,-0.146l-0.155,-0.146l-0.154,-0.148l-0.154,-0.149l-0.153,-0.15l-0.152,-0.151l-0.151,-0.152l-0.15,-0.153l-0.148,-0.154l-0.148,-0.154l-0.147,-0.155l-0.146,-0.156l-0.144,-0.157l-0.144,-0.157l-0.142,-0.159l-0.141,-0.159l-0.141,-0.159l-0.139,-0.161l-0.138,-0.161l-0.137,-0.162l-0.136,-0.162l-0.135,-0.164l-0.133,-0.164l-0.133,-0.164l-0.131,-0.166l-0.131,-0.166l-0.129,-0.167l-0.128,-0.167l-0.127,-0.168l-0.126,-0.169l-0.125,-0.17l-0.124,-0.17l-0.123,-0.171l-0.121,-0.171l-0.121,-0.173l-0.119,-0.172l-0.118,-0.174l-0.117,-0.174l-0.116,-0.175l-0.115,-0.175l-0.113,-0.176l-0.113,-0.177l-0.111,-0.177l-0.111,-0.178l-0.109,-0.179l-0.108,-0.179l-0.106,-0.179l-0.106,-0.181l-0.105,-0.181l-0.103,-0.181l-0.102,-0.182l-0.101,-0.183l-0.1,-0.183l-0.099,-0.184l-0.098,-0.184l-0.096,-0.185l-0.096,-0.186l-0.094,-0.186l-0.093,-0.186l-0.092,-0.187l-0.09,-0.188l-0.09,-0.188l-0.088,-0.189l-0.087,-0.189l-0.086,-0.19l-0.085,-0.19l-0.084,-0.191l-0.082,-0.191l-0.081,-0.192l-0.08,-0.192l-0.079,-0.193l-0.078,-0.194l-0.077,-0.193l-0.075,-0.195l-0.074,-0.194l-0.073,-0.195l-0.072,-0.196l-0.07,-0.196l-0.07,-0.197l-0.068,-0.197l-0.067,-0.197l-0.065,-0.198l-0.065,-0.199l-0.063,-0.198l-0.062,-0.2l-0.061,-0.199l-0.06,-0.2l-0.058,-0.201l-0.057,-0.201l-0.056,-0.201l-0.055,-0.202l-0.054,-0.202l-0.052,-0.202l-0.051,-0.203l-0.05,-0.203l-0.049,-0.204l-0.047,-0.204l-0.046,-0.204l-0.045,-0.205l-0.044,-0.205l-0.042,-0.206l-0.042,-0.205l-0.039,-0.207l-0.039,-0.206l-0.038,-0.207l-0.036,-0.207l-0.035,-0.208l-0.034,-0.207l-0.032,-0.209l-0.031,-0.208l-0.03,-0.209l-0.029,-0.209l-0.027,-0.209l-0.026,-0.21l-0.025,-0.21l-0.024,-0.21l-0.022,-0.211l-0.021,-0.211l-0.02,-0.211l-0.018,-0.211l-0.018,-0.212l-0.015,-0.212l-0.015,-0.212l-0.014,-0.212l-0.012,-0.213l-0.01,-0.213l-0.01,-0.213l-0.008,-0.213l-0.007,-0.214l-0.006,-0.214l-0.004,-0.214l-0.003,-0.214l-0.002,-0.214l0,-0.215l0.001,-0.214l0.002,-0.214l0.004,-0.213l0.004,-0.214l0.006,-0.213l0.008,-0.213l0.008,-0.213l0.01,-0.212l0.012,-0.212l0.012,-0.212l0.014,-0.212l0.015,-0.211l0.016,-0.212l0.018,-0.211l0.019,-0.21l0.02,-0.211l0.021,-0.21l0.023,-0.21l0.024,-0.209l0.025,-0.21l0.027,-0.209l0.028,-0.208l0.029,-0.209l0.03,-0.208l0.032,-0.207l0.032,-0.208l0.035,-0.207l0.035,-0.207l0.036,-0.206l0.038,-0.206l0.039,-0.206l0.041,-0.206l0.041,-0.205l0.043,-0.205l0.044,-0.204l0.045,-0.204l0.047,-0.204l0.047,-0.203l0.049,-0.203l0.051,-0.202l0.051,-0.203l0.053,-0.201l0.054,-0.202l0.055,-0.201l0.056,-0.2l0.058,-0.2l0.058,-0.2l0.06,-0.2l0.061,-0.199l0.063,-0.198l0.063,-0.198l0.065,-0.198l0.066,-0.197l0.067,-0.197l0.069,-0.196l0.07,-0.196l0.07,-0.195l0.072,-0.195l0.074,-0.195l0.074,-0.194l0.076,-0.193l0.076,-0.193l0.078,-0.193l0.08,-0.192l0.08,-0.192l0.081,-0.191l0.083,-0.19l0.084,-0.191l0.085,-0.189l0.086,-0.189l0.088,-0.189l0.088,-0.188l0.09,-0.187l0.091,-0.187l0.092,-0.187l0.093,-0.186l0.095,-0.185l0.095,-0.185l0.097,-0.184l0.098,-0.184l0.099,-0.183l0.1,-0.183l0.102,-0.182l0.102,-0.181l0.104,-0.181l0.105,-0.18l0.106,-0.18l0.107,-0.179l0.108,-0.179l0.109,-0.177l0.111,-0.178l0.111,-0.176l0.113,-0.176l0.114,-0.176l0.115,-0.175l0.116,-0.174l0.118,-0.173l0.118,-0.173l0.12,-0.173l0.12,-0.171l0.122,-0.171l0.123,-0.171l0.124,-0.169l0.125,-0.169l0.126,-0.168l0.128,-0.168l0.128,-0.167l0.13,-0.166l0.13,-0.166l0.132,-0.165l0.133,-0.164l0.134,-0.164l0.135,-0.162l0.136,-0.162l0.137,-0.162l0.139,-0.161l0.139,-0.159l0.141,-0.16l0.141,-0.158l0.143,-0.158l0.144,-0.157l0.145,-0.156l0.145,-0.156l0.147,-0.154l0.149,-0.154l0.149,-0.154l0.15,-0.152l0.151,-0.152l226.881,-226.903l-5.054,-10.859l-0.137,-0.295l-0.136,-0.295l-0.136,-0.296l-0.134,-0.296l-0.134,-0.296l-0.133,-0.296l-0.133,-0.297l-0.131,-0.297l-0.131,-0.297l-0.13,-0.297l-0.129,-0.297l-0.128,-0.298l-0.128,-0.298l-0.127,-0.298l-0.126,-0.298l-0.125,-0.298l-0.125,-0.299l-0.123,-0.299l-0.123,-0.299l-0.123,-0.299l-0.121,-0.3l-0.121,-0.299l-0.119,-0.3l-0.12,-0.3l-0.118,-0.301l-0.117,-0.3l-0.117,-0.301l-0.116,-0.3l-0.115,-0.301l-0.115,-0.302l-0.113,-0.301l-0.113,-0.302l-0.112,-0.301l-0.112,-0.302l-0.11,-0.302l-0.11,-0.303l-0.109,-0.302l-0.109,-0.303l-0.107,-0.302l-0.107,-0.303l-0.106,-0.304l-0.105,-0.303l-0.104,-0.303l-0.104,-0.304l-0.103,-0.304l-0.102,-0.304l-0.101,-0.304l-0.101,-0.304l-0.1,-0.305l-0.099,-0.304l-0.098,-0.305l-0.097,-0.305l-0.097,-0.305l-0.096,-0.305l-0.095,-0.306l-0.095,-0.305l-0.093,-0.306l-0.093,-0.306l-0.092,-0.306l-0.092,-0.306l-0.09,-0.306l-0.09,-0.306l-0.089,-0.307l-0.088,-0.307l-0.088,-0.307l-0.087,-0.307l-0.086,-0.307l-0.085,-0.307l-0.084,-0.307l-0.084,-0.308l-0.083,-0.307l-0.082,-0.308l-0.082,-0.308l-0.08,-0.308l-0.08,-0.308l-0.079,-0.308l-0.079,-0.309l-0.077,-0.308l-0.077,-0.309l-0.076,-0.309l-0.076,-0.308l-0.074,-0.309l-0.074,-0.309l-0.073,-0.31l-0.072,-0.309l-0.072,-0.309l-0.07,-0.31l-0.07,-0.31l-0.07,-0.309l-0.068,-0.31l-0.068,-0.31l-0.067,-0.31l-0.066,-0.31l-0.066,-0.31l-0.064,-0.311l-0.064,-0.31l-0.063,-0.311l-0.063,-0.31l-0.061,-0.311l-0.061,-0.311l-0.061,-0.311l-0.059,-0.311l-0.059,-0.311l-0.057,-0.311l-0.058,-0.311l-0.056,-0.311l-0.056,-0.312l-0.055,-0.311l-0.054,-0.312l-0.053,-0.311l-0.053,-0.312l-0.051,-0.312l-0.052,-0.312l-0.05,-0.311l-0.05,-0.312l-0.048,-0.312l-0.048,-0.313l-0.048,-0.312l-0.046,-0.312l-0.046,-0.312l-0.045,-0.313l-0.045,-0.312l-0.043,-0.312l-0.043,-0.313l-0.042,-0.313l-0.041,-0.312l-0.081,-0.626l-0.077,-0.625l-0.075,-0.626l-0.071,-0.626l-0.069,-0.626l-0.065,-0.627l-0.063,-0.626l-0.059,-0.627l-0.057,-0.626l-0.053,-0.627l-0.051,-0.627l-0.047,-0.627l-0.045,-0.627l-0.041,-0.627l-0.039,-0.627l-0.036,-0.628l-0.032,-0.627l-0.03,-0.627l-0.027,-0.628l-0.024,-0.627l-0.021,-0.627l-0.017,-0.628l-0.015,-0.627l-0.012,-0.627l-0.009,-0.627l-0.006,-0.627l-0.004,-0.627l0,-0.627l0.003,-0.627l0.006,-0.627l0.008,-0.626l0.012,-0.627l0.014,-0.626l0.018,-0.626l0.02,-0.626l0.023,-0.626l0.027,-0.626l0.029,-0.625l0.032,-0.626l0.035,-0.625l0.038,-0.624l0.041,-0.625l0.044,-0.624l0.046,-0.624l0.05,-0.624l0.052,-0.623l0.056,-0.624l0.058,-0.622l0.061,-0.623l0.064,-0.622l0.067,-0.622l0.07,-0.622l0.073,-0.621l0.076,-0.62l0.079,-0.621l0.081,-0.62l0.084,-0.619l0.088,-0.62l0.09,-0.618l0.093,-0.619l0.096,-0.618l0.099,-0.617l0.101,-0.617l0.105,-0.616l0.107,-0.616l0.111,-0.616l0.113,-0.615l0.116,-0.614l0.119,-0.614l0.122,-0.613l0.124,-0.613l0.128,-0.612l0.13,-0.612l0.134,-0.611l0.136,-0.61l0.139,-0.61l0.141,-0.609l0.145,-0.608l0.147,-0.608l0.151,-0.607l0.153,-0.607l0.156,-0.606l0.159,-0.605l0.161,-0.604l0.165,-0.604l0.167,-0.603l0.171,-0.602l0.173,-0.602l0.175,-0.6l0.179,-0.6l0.182,-0.599l0.184,-0.599l0.187,-0.597l0.19,-0.597l0.193,-0.596l0.195,-0.595l0.199,-0.595l0.201,-0.593l0.204,-0.592l0.207,-0.592l0.209,-0.591l0.213,-0.59l0.215,-0.589l0.218,-0.588l0.221,-0.587l0.223,-0.586l0.227,-0.585l0.229,-0.584l0.232,-0.583l0.235,-0.583l0.237,-0.581l0.241,-0.58l0.243,-0.579l0.246,-0.578l0.248,-0.578l0.252,-0.576l0.254,-0.575l0.257,-0.573l0.26,-0.573l0.262,-0.572l0.265,-0.571l0.268,-0.569l0.271,-0.568l0.274,-0.568l0.276,-0.566l0.279,-0.564l0.282,-0.564l0.285,-0.563l0.287,-0.561l0.29,-0.56l0.146,-0.28l0.147,-0.279l0.147,-0.279l0.148,-0.279l0.149,-0.278l0.15,-0.278l0.15,-0.278l0.151,-0.277l0.151,-0.277l0.153,-0.277l0.153,-0.276l0.153,-0.276l0.154,-0.276l0.155,-0.276l0.156,-0.275l0.156,-0.275l0.157,-0.274l0.158,-0.274l0.158,-0.274l0.16,-0.274l0.159,-0.273l0.161,-0.273l0.161,-0.272l0.162,-0.272l0.162,-0.272l0.163,-0.272l0.164,-0.271l0.165,-0.271l0.165,-0.27l0.166,-0.27l0.166,-0.27l0.167,-0.27l0.168,-0.269l0.169,-0.268l0.169,-0.269l0.17,-0.268l0.171,-0.267l0.171,-0.268l0.172,-0.267l0.173,-0.266l0.173,-0.266l0.174,-0.266l0.175,-0.266l0.175,-0.265l0.176,-0.265l0.177,-0.264l0.177,-0.264l0.178,-0.264l0.179,-0.263l0.179,-0.263l0.18,-0.262l0.181,-0.263l0.181,-0.261l0.183,-0.262l0.182,-0.261l0.184,-0.26l0.184,-0.261l0.185,-0.26l0.185,-0.259l0.186,-0.259l0.187,-0.259l0.188,-0.258l0.188,-0.258l0.189,-0.258l0.189,-0.257l0.19,-0.257l0.191,-0.256l0.192,-0.256l0.192,-0.256l0.193,-0.255l0.193,-0.254l0.194,-0.255l0.195,-0.254l0.196,-0.253l0.196,-0.253l0.197,-0.253l0.197,-0.252l0.198,-0.252l0.199,-0.252l0.2,-0.251l0.2,-0.251l0.201,-0.25l0.201,-0.25l0.202,-0.249l0.203,-0.249l0.204,-0.249l0.204,-0.248l0.205,-0.247l0.205,-0.248l0.207,-0.247l0.206,-0.246l0.208,-0.246l0.208,-0.245l0.209,-0.246l0.209,-0.244l0.211,-0.245l0.21,-0.243l0.212,-0.244l0.212,-0.243l0.213,-0.242l0.213,-0.242l0.214,-0.242l0.215,-0.241l0.216,-0.241l0.216,-0.24l0.217,-0.24l0.217,-0.239l0.218,-0.239l0.219,-0.238l0.219,-0.238l0.22,-0.238l0.221,-0.237l0.222,-0.237l0.222,-0.236l0.222,-0.236l0.224,-0.235l0.224,-0.235l0.224,-0.234l0.226,-0.234l0.226,-0.233l0.226,-0.233l0.228,-0.232l0.228,-0.232l0.228,-0.232l0.23,-0.231l0.23,-0.23l0.294,-0.294l0.295,-0.292l0.295,-0.291l0.297,-0.29l0.297,-0.289l0.298,-0.289l0.299,-0.287l0.299,-0.286l0.3,-0.285l0.301,-0.284l0.302,-0.283l0.302,-0.281l0.303,-0.281l0.304,-0.28l0.305,-0.279l0.305,-0.278l0.306,-0.276l0.307,-0.276l0.307,-0.274l0.308,-0.274l0.309,-0.272l0.31,-0.272l0.31,-0.27l0.311,-0.27l0.311,-0.268l0.313,-0.267l0.313,-0.266l0.314,-0.265l0.314,-0.264l0.315,-0.263l0.316,-0.262l0.317,-0.261l0.317,-0.26l0.318,-0.259l0.319,-0.257l0.319,-0.257l0.32,-0.256l0.32,-0.254l0.322,-0.253l0.322,-0.253l0.322,-0.251l0.324,-0.25l0.324,-0.25l0.324,-0.248l0.326,-0.247l0.325,-0.246l0.327,-0.244l0.327,-0.244l0.328,-0.243l0.329,-0.242l0.329,-0.24l0.33,-0.24l0.33,-0.238l0.332,-0.237l0.331,-0.237l0.333,-0.235l0.333,-0.234l0.333,-0.233l0.335,-0.232l0.335,-0.231l0.335,-0.229l0.336,-0.229l0.337,-0.228l0.338,-0.226l0.338,-0.226l0.338,-0.224l0.34,-0.223l0.339,-0.222l0.341,-0.221l0.341,-0.22l0.342,-0.219l0.342,-0.218l0.343,-0.216l0.343,-0.216l0.344,-0.214l0.345,-0.214l0.345,-0.212l0.346,-0.211l0.346,-0.21l0.347,-0.209l0.348,-0.208l0.348,-0.207l0.349,-0.205l0.349,-0.205l0.35,-0.203l0.351,-0.203l0.351,-0.201l0.351,-0.2l0.352,-0.199l0.353,-0.198l0.353,-0.197l0.354,-0.195l0.355,-0.195l0.355,-0.193l0.355,-0.192l0.356,-0.192l0.357,-0.19l0.357,-0.189l0.357,-0.187l0.359,-0.187l0.358,-0.186l0.36,-0.184l0.359,-0.183l0.361,-0.183l0.361,-0.181l0.361,-0.18l0.362,-0.178l0.362,-0.178l0.363,-0.177l0.364,-0.175l0.364,-0.174l0.364,-0.174l0.365,-0.172l0.366,-0.17l0.366,-0.17l0.366,-0.169l0.367,-0.167l0.368,-0.167l0.368,-0.165l0.368,-0.164l0.37,-0.163l0.369,-0.162l0.37,-0.16l0.37,-0.16l0.371,-0.158l0.372,-0.157l0.372,-0.157l0.372,-0.154l0.373,-0.154l0.373,-0.153l0.374,-0.151l0.375,-0.151l0.374,-0.149l0.376,-0.148l0.375,-0.147l0.376,-0.146l0.377,-0.144l0.377,-0.143l0.378,-0.143l0.378,-0.141l0.378,-0.14l0.379,-0.139l0.379,-0.137l0.38,-0.137l0.38,-0.135l0.381,-0.134l0.381,-0.133l0.381,-0.132l0.382,-0.13l0.383,-0.13l0.382,-0.128l0.384,-0.127l0.383,-0.126l0.384,-0.125l0.385,-0.124l0.385,-0.122l0.385,-0.121l0.386,-0.121l0.386,-0.118l0.386,-0.118l0.387,-0.117l0.387,-0.115l0.388,-0.114l0.388,-0.113l0.389,-0.112l0.389,-0.111l0.389,-0.109l0.39,-0.109l0.39,-0.107l0.39,-0.106l0.391,-0.105l0.392,-0.103l0.391,-0.103l0.392,-0.101l0.393,-0.1l0.392,-0.099l0.393,-0.097l0.394,-0.097l0.394,-0.095l0.394,-0.094l0.395,-0.093l0.394,-0.091l0.396,-0.091l0.395,-0.089l0.396,-0.088l0.397,-0.087l0.396,-0.086l0.397,-0.084l0.398,-0.083l0.398,-0.082l0.398,-0.081l0.398,-0.08l0.399,-0.078l0.399,-0.078l0.399,-0.076l0.4,-0.074l0.4,-0.074l0.4,-0.072l0.401,-0.072l0.401,-0.07l0.401,-0.068l0.402,-0.068l0.402,-0.066l0.402,-0.065l0.403,-0.064l0.403,-0.063l0.403,-0.061l0.404,-0.061l0.403,-0.059l0.404,-0.057l0.405,-0.057l0.405,-0.055l0.404,-0.054l0.406,-0.053l0.405,-0.052l0.406,-0.05l0.406,-0.05l0.407,-0.048l0.406,-0.046l0.407,-0.046l0.407,-0.044l0.408,-0.043l0.408,-0.042l0.408,-0.041l0.408,-0.039l0.409,-0.038l0.408,-0.037l0.409,-0.036l0.41,-0.034l0.409,-0.033l0.41,-0.032l0.41,-0.031l0.411,-0.029l0.41,-0.029l0.411,-0.027l0.411,-0.025l0.411,-0.025l0.412,-0.023l0.412,-0.022l0.412,-0.021l0.412,-0.019l0.412,-0.019l0.413,-0.017l0.413,-0.015l0.413,-0.015l0.413,-0.013l0.414,-0.012l0.414,-0.011l0.414,-0.009l0.414,-0.008l0.414,-0.007l0.415,-0.006l0.415,-0.004l0.415,-0.003l0.415,-0.002l0.415,-0.001l0.505,0.001Zm-0.88,13l-0.376,0.001l-0.376,0.003l-0.375,0.004l-0.375,0.005l-0.375,0.007l-0.374,0.007l-0.375,0.009l-0.374,0.009l-0.374,0.011l-0.373,0.012l-0.374,0.013l-0.373,0.014l-0.373,0.016l-0.373,0.016l-0.373,0.018l-0.372,0.018l-0.372,0.02l-0.372,0.021l-0.372,0.022l-0.371,0.024l-0.371,0.024l-0.371,0.026l-0.371,0.026l-0.371,0.028l-0.37,0.029l-0.37,0.03l-0.369,0.031l-0.37,0.032l-0.369,0.033l-0.369,0.035l-0.369,0.035l-0.368,0.037l-0.368,0.038l-0.368,0.039l-0.368,0.04l-0.367,0.041l-0.368,0.042l-0.366,0.043l-0.367,0.045l-0.366,0.045l-0.366,0.047l-0.366,0.048l-0.366,0.048l-0.365,0.05l-0.365,0.052l-0.364,0.052l-0.365,0.053l-0.364,0.054l-0.364,0.056l-0.363,0.056l-0.363,0.058l-0.363,0.059l-0.363,0.059l-0.362,0.061l-0.362,0.062l-0.362,0.064l-0.361,0.064l-0.361,0.065l-0.361,0.066l-0.361,0.068l-0.36,0.068l-0.36,0.07l-0.359,0.071l-0.359,0.072l-0.359,0.073l-0.359,0.073l-0.358,0.076l-0.358,0.076l-0.358,0.077l-0.357,0.078l-0.357,0.08l-0.357,0.08l-0.356,0.082l-0.356,0.082l-0.356,0.084l-0.355,0.085l-0.355,0.086l-0.355,0.086l-0.354,0.088l-0.354,0.09l-0.354,0.09l-0.353,0.091l-0.353,0.092l-0.353,0.093l-0.352,0.095l-0.352,0.095l-0.351,0.097l-0.351,0.097l-0.351,0.099l-0.351,0.1l-0.35,0.101l-0.35,0.101l-0.349,0.103l-0.349,0.104l-0.349,0.105l-0.348,0.106l-0.348,0.108l-0.347,0.108l-0.347,0.109l-0.347,0.11l-0.346,0.112l-0.346,0.112l-0.346,0.114l-0.345,0.114l-0.345,0.116l-0.345,0.116l-0.344,0.118l-0.343,0.119l-0.344,0.12l-0.342,0.12l-0.343,0.122l-0.342,0.123l-0.342,0.124l-0.341,0.125l-0.341,0.126l-0.34,0.127l-0.34,0.128l-0.34,0.13l-0.339,0.13l-0.339,0.131l-0.338,0.132l-0.338,0.134l-0.338,0.134l-0.337,0.136l-0.337,0.136l-0.336,0.137l-0.336,0.139l-0.335,0.14l-0.335,0.14l-0.335,0.142l-0.334,0.142l-0.334,0.144l-0.333,0.145l-0.333,0.145l-0.332,0.147l-0.332,0.148l-0.332,0.149l-0.331,0.15l-0.331,0.151l-0.33,0.152l-0.329,0.152l-0.329,0.154l-0.329,0.155l-0.329,0.156l-0.327,0.157l-0.328,0.158l-0.327,0.159l-0.326,0.16l-0.326,0.161l-0.326,0.163l-0.325,0.163l-0.325,0.164l-0.324,0.165l-0.324,0.166l-0.323,0.167l-0.322,0.169l-0.323,0.169l-0.322,0.17l-0.321,0.171l-0.32,0.172l-0.321,0.174l-0.32,0.174l-0.319,0.175l-0.319,0.177l-0.318,0.177l-0.318,0.178l-0.317,0.179l-0.317,0.181l-0.316,0.181l-0.316,0.182l-0.316,0.184l-0.314,0.184l-0.315,0.185l-0.314,0.187l-0.313,0.187l-0.312,0.188l-0.313,0.19l-0.311,0.19l-0.312,0.191l-0.31,0.193l-0.311,0.193l-0.309,0.194l-0.309,0.196l-0.309,0.196l-0.308,0.197l-0.307,0.198l-0.307,0.2l-0.307,0.2l-0.305,0.201l-0.306,0.203l-0.305,0.203l-0.304,0.204l-0.304,0.205l-0.303,0.206l-0.302,0.208l-0.303,0.208l-0.301,0.209l-0.301,0.21l-0.301,0.211l-0.299,0.212l-0.299,0.214l-0.299,0.214l-0.298,0.215l-0.298,0.216l-0.297,0.217l-0.296,0.218l-0.296,0.219l-0.296,0.22l-0.294,0.221l-0.294,0.222l-0.294,0.223l-0.293,0.224l-0.292,0.224l-0.292,0.226l-0.292,0.227l-0.29,0.228l-0.29,0.229l-0.29,0.229l-0.288,0.231l-0.289,0.232l-0.287,0.232l-0.287,0.234l-0.287,0.235l-0.286,0.235l-0.285,0.237l-0.285,0.237l-0.284,0.239l-0.283,0.239l-0.283,0.241l-0.282,0.241l-0.282,0.243l-0.281,0.243l-0.28,0.244l-0.279,0.245l-0.28,0.247l-0.278,0.247l-0.278,0.248l-0.277,0.249l-0.277,0.25l-0.275,0.251l-0.276,0.252l-0.275,0.253l-0.273,0.254l-0.274,0.254l-0.273,0.257l-0.272,0.256l-0.271,0.258l-0.271,0.259l-0.27,0.259l-0.269,0.261l-0.269,0.261l-0.268,0.263l-0.268,0.263l-0.267,0.265l-0.267,0.266l-0.206,0.207l-0.207,0.209l-0.206,0.208l-0.206,0.209l-0.205,0.21l-0.204,0.21l-0.204,0.21l-0.203,0.211l-0.203,0.211l-0.201,0.212l-0.202,0.212l-0.2,0.212l-0.201,0.213l-0.199,0.213l-0.199,0.214l-0.199,0.214l-0.197,0.215l-0.198,0.215l-0.196,0.215l-0.196,0.216l-0.196,0.216l-0.195,0.216l-0.194,0.217l-0.193,0.218l-0.193,0.218l-0.193,0.218l-0.192,0.218l-0.191,0.219l-0.19,0.22l-0.191,0.22l-0.189,0.219l-0.189,0.221l-0.188,0.221l-0.188,0.221l-0.187,0.222l-0.186,0.222l-0.186,0.223l-0.185,0.223l-0.185,0.223l-0.184,0.223l-0.183,0.225l-0.183,0.224l-0.182,0.225l-0.182,0.225l-0.181,0.226l-0.181,0.226l-0.179,0.226l-0.179,0.226l-0.179,0.227l-0.178,0.228l-0.178,0.228l-0.176,0.228l-0.177,0.228l-0.175,0.229l-0.175,0.23l-0.175,0.229l-0.174,0.23l-0.173,0.23l-0.172,0.231l-0.172,0.231l-0.172,0.232l-0.171,0.232l-0.17,0.232l-0.169,0.232l-0.169,0.233l-0.169,0.233l-0.168,0.234l-0.167,0.234l-0.166,0.234l-0.166,0.234l-0.166,0.235l-0.164,0.236l-0.165,0.235l-0.163,0.236l-0.163,0.237l-0.162,0.236l-0.162,0.237l-0.161,0.238l-0.161,0.238l-0.16,0.237l-0.159,0.239l-0.159,0.239l-0.158,0.238l-0.157,0.24l-0.157,0.24l-0.156,0.24l-0.156,0.24l-0.155,0.241l-0.154,0.241l-0.154,0.241l-0.154,0.242l-0.152,0.241l-0.152,0.243l-0.151,0.242l-0.151,0.243l-0.151,0.244l-0.149,0.243l-0.149,0.244l-0.148,0.244l-0.148,0.245l-0.147,0.245l-0.147,0.245l-0.145,0.245l-0.146,0.246l-0.144,0.246l-0.145,0.246l-0.143,0.247l-0.143,0.247l-0.142,0.247l-0.142,0.248l-0.14,0.247l-0.141,0.249l-0.14,0.248l-0.139,0.249l-0.138,0.249l-0.138,0.249l-0.138,0.25l-0.136,0.25l-0.136,0.25l-0.136,0.25l-0.135,0.251l-0.134,0.251l-0.133,0.251l-0.134,0.252l-0.132,0.252l-0.128,0.245l-0.265,0.512l-0.259,0.507l-0.257,0.507l-0.254,0.509l-0.252,0.509l-0.249,0.511l-0.247,0.512l-0.244,0.512l-0.242,0.514l-0.24,0.515l-0.237,0.516l-0.234,0.516l-0.232,0.518l-0.229,0.519l-0.227,0.52l-0.224,0.521l-0.222,0.521l-0.22,0.523l-0.217,0.524l-0.214,0.524l-0.212,0.526l-0.209,0.526l-0.207,0.527l-0.204,0.528l-0.202,0.529l-0.2,0.53l-0.196,0.531l-0.195,0.532l-0.191,0.532l-0.19,0.533l-0.186,0.534l-0.184,0.535l-0.182,0.536l-0.179,0.536l-0.177,0.538l-0.174,0.538l-0.171,0.538l-0.169,0.54l-0.166,0.54l-0.164,0.541l-0.162,0.542l-0.158,0.542l-0.157,0.543l-0.153,0.544l-0.151,0.545l-0.149,0.545l-0.146,0.545l-0.143,0.547l-0.141,0.547l-0.139,0.547l-0.135,0.549l-0.133,0.548l-0.131,0.55l-0.128,0.55l-0.125,0.551l-0.123,0.551l-0.121,0.551l-0.117,0.553l-0.116,0.553l-0.112,0.553l-0.11,0.554l-0.107,0.554l-0.105,0.555l-0.102,0.555l-0.1,0.556l-0.097,0.556l-0.095,0.557l-0.091,0.557l-0.09,0.557l-0.086,0.558l-0.084,0.558l-0.082,0.559l-0.079,0.559l-0.076,0.56l-0.073,0.56l-0.071,0.56l-0.069,0.56l-0.066,0.561l-0.063,0.561l-0.06,0.562l-0.058,0.562l-0.055,0.562l-0.053,0.562l-0.05,0.563l-0.047,0.563l-0.045,0.563l-0.042,0.563l-0.04,0.564l-0.037,0.564l-0.034,0.564l-0.032,0.564l-0.029,0.565l-0.026,0.564l-0.024,0.565l-0.021,0.565l-0.018,0.565l-0.016,0.565l-0.013,0.566l-0.01,0.565l-0.008,0.566l-0.005,0.566l-0.003,0.565l0,0.566l0.003,0.566l0.006,0.566l0.008,0.566l0.011,0.566l0.013,0.566l0.016,0.566l0.019,0.567l0.022,0.566l0.024,0.566l0.027,0.566l0.029,0.566l0.032,0.566l0.035,0.566l0.038,0.565l0.04,0.566l0.043,0.566l0.045,0.566l0.049,0.565l0.051,0.566l0.053,0.565l0.057,0.565l0.059,0.565l0.062,0.565l0.064,0.564l0.067,0.565l0.07,0.564l0.073,0.572l0.037,0.274l0.038,0.282l0.038,0.282l0.04,0.282l0.04,0.282l0.04,0.281l0.042,0.282l0.042,0.281l0.042,0.282l0.044,0.281l0.044,0.282l0.044,0.281l0.046,0.282l0.046,0.28l0.047,0.281l0.047,0.282l0.048,0.281l0.049,0.281l0.049,0.28l0.051,0.281l0.051,0.281l0.051,0.281l0.052,0.28l0.053,0.281l0.054,0.28l0.054,0.28l0.055,0.281l0.055,0.28l0.057,0.28l0.057,0.28l0.057,0.279l0.059,0.28l0.059,0.28l0.059,0.279l0.061,0.28l0.061,0.279l0.061,0.279l0.063,0.28l0.063,0.279l0.064,0.279l0.064,0.279l0.065,0.279l0.066,0.278l0.067,0.279l0.067,0.279l0.068,0.278l0.069,0.278l0.069,0.278l0.07,0.278l0.07,0.278l0.072,0.278l0.072,0.278l0.072,0.278l0.074,0.277l0.074,0.278l0.075,0.277l0.075,0.277l0.076,0.277l0.077,0.277l0.078,0.277l0.078,0.276l0.079,0.277l0.079,0.276l0.08,0.277l0.081,0.276l0.082,0.276l0.082,0.276l0.083,0.276l0.084,0.275l0.084,0.275l0.086,0.276l0.085,0.275l0.087,0.275l0.087,0.275l0.088,0.275l0.088,0.275l0.09,0.274l0.09,0.275l0.09,0.274l0.092,0.274l0.092,0.274l0.092,0.274l0.094,0.273l0.094,0.274l0.095,0.273l0.095,0.274l0.096,0.272l0.097,0.273l0.098,0.273l0.098,0.273l0.099,0.272l0.1,0.272l0.1,0.272l0.101,0.273l0.102,0.271l0.102,0.272l0.103,0.271l0.104,0.271l0.105,0.271l0.105,0.272l0.106,0.27l0.106,0.271l0.108,0.27l0.108,0.27l0.108,0.271l0.11,0.27l0.11,0.269l0.111,0.27l0.111,0.269l0.113,0.269l0.113,0.269l0.113,0.269l0.115,0.269l0.114,0.268l0.116,0.268l0.117,0.269l0.117,0.267l0.118,0.268l0.118,0.267l0.119,0.268l0.12,0.267l0.121,0.267l0.121,0.267l0.123,0.266l0.122,0.267l0.127,0.273l5.051,10.851l0.977,3.012l0.219,3.159l-0.551,3.118l-1.288,2.893l-1.95,2.496l-226.875,226.897l-0.118,0.118l-0.095,0.097l-0.094,0.096l-0.093,0.097l-0.092,0.098l-0.092,0.097l-0.091,0.098l-0.09,0.099l-0.089,0.098l-0.089,0.1l-0.088,0.099l-0.087,0.1l-0.087,0.101l-0.086,0.101l-0.084,0.101l-0.084,0.101l-0.084,0.102l-0.083,0.103l-0.082,0.102l-0.081,0.103l-0.081,0.103l-0.079,0.104l-0.08,0.104l-0.078,0.105l-0.077,0.104l-0.077,0.106l-0.077,0.105l-0.075,0.106l-0.075,0.106l-0.074,0.107l-0.073,0.107l-0.073,0.108l-0.071,0.107l-0.071,0.108l-0.071,0.108l-0.069,0.109l-0.069,0.109l-0.068,0.109l-0.068,0.11l-0.066,0.11l-0.066,0.11l-0.066,0.111l-0.064,0.111l-0.064,0.111l-0.063,0.112l-0.063,0.112l-0.061,0.113l-0.061,0.112l-0.06,0.113l-0.06,0.113l-0.058,0.114l-0.059,0.114l-0.057,0.114l-0.056,0.115l-0.056,0.114l-0.055,0.116l-0.055,0.115l-0.053,0.116l-0.053,0.116l-0.053,0.117l-0.051,0.116l-0.051,0.117l-0.05,0.117l-0.049,0.118l-0.049,0.118l-0.048,0.118l-0.047,0.119l-0.046,0.119l-0.046,0.119l-0.045,0.119l-0.044,0.12l-0.044,0.12l-0.043,0.12l-0.042,0.121l-0.041,0.121l-0.04,0.121l-0.04,0.122l-0.039,0.121l-0.039,0.122l-0.037,0.123l-0.037,0.122l-0.036,0.123l-0.036,0.124l-0.035,0.123l-0.033,0.124l-0.034,0.124l-0.032,0.124l-0.032,0.125l-0.031,0.124l-0.03,0.126l-0.029,0.125l-0.029,0.126l-0.028,0.126l-0.027,0.126l-0.027,0.126l-0.025,0.127l-0.025,0.127l-0.024,0.128l-0.024,0.127l-0.022,0.128l-0.022,0.128l-0.021,0.129l-0.021,0.128l-0.019,0.129l-0.019,0.129l-0.018,0.13l-0.017,0.129l-0.017,0.13l-0.016,0.131l-0.015,0.13l-0.014,0.131l-0.013,0.131l-0.013,0.131l-0.012,0.132l-0.011,0.132l-0.01,0.132l-0.009,0.132l-0.009,0.132l-0.008,0.133l-0.007,0.133l-0.006,0.134l-0.005,0.133l-0.005,0.134l-0.004,0.134l-0.003,0.134l-0.002,0.135l-0.001,0.135l-0.001,0.135l0,0.135l0.001,0.136l0.002,0.135l0.003,0.135l0.003,0.134l0.005,0.135l0.005,0.134l0.006,0.134l0.007,0.134l0.007,0.133l0.009,0.133l0.009,0.133l0.01,0.133l0.011,0.133l0.011,0.132l0.013,0.132l0.013,0.131l0.014,0.132l0.014,0.131l0.016,0.131l0.016,0.131l0.017,0.13l0.018,0.13l0.019,0.13l0.019,0.13l0.02,0.129l0.021,0.129l0.022,0.129l0.022,0.129l0.024,0.128l0.024,0.128l0.024,0.128l0.026,0.128l0.026,0.127l0.027,0.127l0.028,0.126l0.029,0.127l0.029,0.126l0.03,0.126l0.031,0.125l0.031,0.126l0.033,0.125l0.033,0.125l0.034,0.124l0.034,0.124l0.035,0.124l0.036,0.124l0.037,0.123l0.038,0.123l0.038,0.123l0.039,0.123l0.04,0.122l0.04,0.122l0.042,0.121l0.041,0.122l0.043,0.121l0.044,0.121l0.044,0.12l0.045,0.12l0.045,0.12l0.047,0.119l0.047,0.12l0.048,0.119l0.048,0.118l0.049,0.118l0.05,0.119l0.051,0.117l0.051,0.118l0.053,0.116l0.053,0.118l0.053,0.116l0.055,0.116l0.055,0.116l0.055,0.115l0.057,0.115l0.057,0.115l0.058,0.115l0.059,0.114l0.059,0.114l0.06,0.114l0.061,0.113l0.062,0.113l0.062,0.112l0.063,0.112l0.064,0.112l0.064,0.112l0.066,0.111l0.066,0.111l0.066,0.111l0.068,0.11l0.068,0.109l0.068,0.11l0.07,0.109l0.07,0.109l0.071,0.108l0.072,0.109l0.072,0.107l0.073,0.108l0.074,0.107l0.075,0.106l0.075,0.107l0.076,0.106l0.077,0.105l0.077,0.106l0.079,0.105l0.078,0.103l0.08,0.105l0.081,0.104l0.081,0.103l0.082,0.103l0.082,0.102l0.084,0.103l0.084,0.102l0.084,0.101l0.086,0.101l0.086,0.101l0.087,0.1l0.087,0.099l0.089,0.1l0.09,0.1l0.09,0.098l0.09,0.098l0.091,0.098l0.093,0.098l0.093,0.097l0.093,0.096l0.094,0.096l0.093,0.094l0.094,0.093l0.096,0.094l0.096,0.094l0.098,0.093l0.097,0.093l0.098,0.091l0.099,0.091l0.098,0.09l0.099,0.089l0.1,0.089l0.1,0.088l0.1,0.087l0.101,0.086l0.101,0.086l0.102,0.085l0.101,0.084l0.102,0.084l0.103,0.082l0.103,0.083l0.104,0.081l0.103,0.08l0.104,0.08l0.105,0.079l0.105,0.079l0.105,0.077l0.105,0.077l0.107,0.077l0.106,0.075l0.106,0.074l0.107,0.075l0.108,0.073l0.107,0.072l0.108,0.072l0.109,0.071l0.108,0.071l0.11,0.07l0.11,0.069l0.109,0.068l0.11,0.067l0.111,0.067l0.111,0.066l0.11,0.065l0.112,0.065l0.112,0.064l0.112,0.063l0.113,0.062l0.113,0.062l0.113,0.061l0.113,0.06l0.113,0.06l0.115,0.059l0.115,0.058l0.114,0.057l0.115,0.057l0.116,0.056l0.115,0.055l0.117,0.055l0.116,0.053l0.116,0.053l0.117,0.052l0.118,0.052l0.118,0.051l0.117,0.05l0.118,0.049l0.118,0.049l0.119,0.048l0.119,0.047l0.12,0.047l0.119,0.046l0.12,0.044l0.12,0.045l0.12,0.043l0.122,0.043l0.121,0.042l0.121,0.041l0.122,0.041l0.122,0.04l0.121,0.039l0.123,0.038l0.123,0.038l0.123,0.037l0.123,0.036l0.124,0.035l0.124,0.035l0.124,0.034l0.125,0.033l0.125,0.033l0.124,0.031l0.125,0.031l0.126,0.031l0.126,0.029l0.125,0.028l0.127,0.028l0.127,0.028l0.127,0.026l0.126,0.026l0.128,0.025l0.128,0.024l0.128,0.023l0.128,0.023l0.128,0.021l0.128,0.021l0.129,0.021l0.13,0.019l0.129,0.019l0.13,0.018l0.129,0.017l0.131,0.016l0.13,0.016l0.131,0.015l0.131,0.014l0.131,0.013l0.131,0.013l0.133,0.011l0.131,0.011l0.132,0.01l0.133,0.01l0.132,0.008l0.133,0.008l0.134,0.007l0.132,0.006l0.134,0.005l0.135,0.005l0.133,0.003l0.134,0.003l0.135,0.002l0.134,0.002l0.135,0l0.136,0l0.135,-0.002l0.134,-0.002l0.134,-0.003l0.136,-0.003l0.134,-0.005l0.133,-0.005l0.134,-0.006l0.133,-0.007l0.133,-0.008l0.133,-0.008l0.132,-0.01l0.133,-0.01l0.133,-0.011l0.131,-0.011l0.132,-0.013l0.131,-0.013l0.131,-0.014l0.132,-0.015l0.13,-0.016l0.13,-0.016l0.13,-0.017l0.13,-0.018l0.13,-0.019l0.129,-0.02l0.13,-0.02l0.129,-0.021l0.128,-0.022l0.128,-0.023l0.128,-0.023l0.128,-0.024l0.127,-0.025l0.127,-0.026l0.128,-0.026l0.127,-0.027l0.127,-0.028l0.126,-0.029l0.125,-0.029l0.126,-0.03l0.126,-0.032l0.124,-0.031l0.126,-0.033l0.125,-0.033l0.123,-0.034l0.125,-0.035l0.123,-0.035l0.123,-0.036l0.125,-0.037l0.122,-0.038l0.123,-0.038l0.122,-0.04l0.122,-0.039l0.122,-0.041l0.121,-0.041l0.121,-0.043l0.122,-0.043l0.12,-0.043l0.12,-0.044l0.121,-0.045l0.119,-0.046l0.12,-0.047l0.12,-0.047l0.118,-0.048l0.118,-0.049l0.118,-0.049l0.119,-0.051l0.117,-0.05l0.117,-0.052l0.118,-0.053l0.117,-0.053l0.116,-0.053l0.116,-0.055l0.116,-0.055l0.116,-0.056l0.115,-0.057l0.114,-0.057l0.115,-0.058l0.114,-0.059l0.115,-0.06l0.113,-0.061l0.113,-0.06l0.113,-0.062l0.113,-0.063l0.112,-0.063l0.112,-0.064l0.112,-0.065l0.111,-0.065l0.112,-0.067l0.11,-0.067l0.11,-0.067l0.11,-0.068l0.109,-0.069l0.11,-0.07l0.108,-0.07l0.109,-0.072l0.109,-0.072l0.107,-0.073l0.108,-0.073l0.107,-0.074l0.107,-0.075l0.106,-0.075l0.107,-0.077l0.105,-0.077l0.105,-0.078l0.106,-0.079l0.104,-0.079l0.105,-0.08l0.103,-0.08l0.104,-0.082l0.103,-0.082l0.103,-0.083l0.102,-0.083l0.102,-0.085l0.102,-0.085l0.101,-0.086l0.101,-0.086l0.101,-0.088l0.1,-0.088l0.099,-0.089l0.1,-0.089l0.099,-0.091l0.098,-0.091l0.098,-0.092l0.098,-0.092l0.097,-0.093l0.097,-0.094l0.097,-0.095l0.111,-0.111l226.87,-226.88l2.496,-1.95l2.893,-1.289l3.119,-0.551l3.159,0.22l3.013,0.977l10.849,5.051l0.376,0.175l0.367,0.168l0.368,0.167l0.368,0.167l0.37,0.165l0.37,0.163l0.37,0.163l0.371,0.161l0.373,0.16l0.372,0.158l0.373,0.158l0.374,0.156l0.375,0.155l0.375,0.153l0.376,0.153l0.377,0.151l0.376,0.15l0.378,0.148l0.379,0.148l0.378,0.146l0.38,0.145l0.38,0.143l0.381,0.143l0.381,0.141l0.382,0.139l0.382,0.139l0.383,0.137l0.383,0.136l0.384,0.135l0.385,0.133l0.385,0.132l0.386,0.131l0.386,0.129l0.387,0.129l0.387,0.126l0.388,0.126l0.388,0.125l0.388,0.122l0.389,0.122l0.39,0.121l0.391,0.119l0.39,0.118l0.391,0.116l0.391,0.115l0.392,0.114l0.393,0.113l0.392,0.111l0.394,0.11l0.393,0.109l0.395,0.107l0.394,0.107l0.395,0.104l0.395,0.104l0.396,0.102l0.396,0.1l0.396,0.1l0.397,0.098l0.398,0.097l0.397,0.095l0.398,0.094l0.398,0.093l0.399,0.092l0.399,0.09l0.399,0.089l0.399,0.087l0.4,0.086l0.401,0.085l0.4,0.084l0.401,0.082l0.401,0.08l0.401,0.08l0.402,0.078l0.402,0.077l0.402,0.075l0.403,0.074l0.402,0.073l0.403,0.071l0.404,0.07l0.403,0.069l0.404,0.067l0.404,0.066l0.404,0.064l0.404,0.063l0.404,0.062l0.405,0.061l0.405,0.059l0.405,0.057l0.405,0.057l0.406,0.055l0.406,0.053l0.405,0.053l0.406,0.05l0.406,0.05l0.407,0.048l0.406,0.047l0.407,0.045l0.406,0.044l0.407,0.043l0.407,0.041l0.407,0.04l0.407,0.038l0.407,0.037l0.407,0.036l0.407,0.034l0.408,0.033l0.407,0.032l0.408,0.03l0.407,0.029l0.408,0.027l0.408,0.026l0.407,0.024l0.408,0.024l0.407,0.021l0.408,0.021l0.408,0.019l0.408,0.017l0.408,0.017l0.407,0.014l0.408,0.014l0.408,0.012l0.407,0.01l0.408,0.009l0.408,0.008l0.407,0.007l0.408,0.004l0.407,0.004l0.408,0.002l0.408,0.001l0.374,-0.001l0.375,-0.001l0.376,-0.003l0.376,-0.004l0.374,-0.005l0.375,-0.007l0.375,-0.007l0.374,-0.009l0.374,-0.009l0.373,-0.011l0.374,-0.012l0.374,-0.013l0.373,-0.014l0.373,-0.016l0.373,-0.016l0.372,-0.018l0.372,-0.019l0.372,-0.019l0.373,-0.021l0.371,-0.023l0.372,-0.023l0.371,-0.024l0.37,-0.026l0.371,-0.026l0.371,-0.028l0.369,-0.029l0.371,-0.03l0.369,-0.031l0.369,-0.032l0.37,-0.033l0.369,-0.035l0.368,-0.035l0.368,-0.037l0.369,-0.038l0.368,-0.039l0.367,-0.04l0.368,-0.041l0.367,-0.042l0.366,-0.043l0.367,-0.045l0.366,-0.045l0.367,-0.047l0.365,-0.048l0.365,-0.048l0.365,-0.05l0.365,-0.052l0.365,-0.052l0.365,-0.053l0.363,-0.054l0.364,-0.056l0.363,-0.056l0.364,-0.058l0.362,-0.059l0.363,-0.059l0.362,-0.061l0.362,-0.062l0.362,-0.064l0.361,-0.064l0.361,-0.065l0.361,-0.066l0.36,-0.068l0.36,-0.068l0.361,-0.07l0.359,-0.071l0.359,-0.072l0.359,-0.073l0.359,-0.073l0.358,-0.076l0.358,-0.076l0.357,-0.077l0.357,-0.078l0.357,-0.08l0.357,-0.08l0.357,-0.082l0.356,-0.082l0.355,-0.084l0.356,-0.085l0.354,-0.086l0.355,-0.086l0.354,-0.088l0.354,-0.089l0.354,-0.091l0.353,-0.091l0.353,-0.092l0.352,-0.093l0.353,-0.095l0.352,-0.095l0.351,-0.097l0.351,-0.097l0.351,-0.099l0.35,-0.1l0.351,-0.101l0.349,-0.101l0.349,-0.103l0.349,-0.104l0.348,-0.105l0.349,-0.107l0.348,-0.107l0.347,-0.108l0.348,-0.109l0.346,-0.11l0.346,-0.112l0.346,-0.112l0.346,-0.114l0.345,-0.114l0.345,-0.116l0.344,-0.116l0.344,-0.118l0.344,-0.119l0.343,-0.12l0.343,-0.12l0.343,-0.122l0.342,-0.123l0.341,-0.124l0.341,-0.125l0.341,-0.126l0.341,-0.127l0.34,-0.128l0.339,-0.129l0.34,-0.131l0.339,-0.131l0.337,-0.132l0.339,-0.134l0.337,-0.134l0.337,-0.135l0.337,-0.137l0.336,-0.137l0.336,-0.139l0.336,-0.139l0.334,-0.141l0.335,-0.142l0.334,-0.142l0.334,-0.144l0.333,-0.145l0.333,-0.145l0.332,-0.147l0.332,-0.148l0.332,-0.149l0.331,-0.15l0.33,-0.15l0.33,-0.152l0.33,-0.153l0.329,-0.154l0.329,-0.155l0.328,-0.156l0.328,-0.157l0.328,-0.158l0.327,-0.159l0.326,-0.16l0.326,-0.161l0.325,-0.162l0.326,-0.164l0.324,-0.164l0.324,-0.165l0.324,-0.166l0.323,-0.167l0.323,-0.168l0.322,-0.17l0.322,-0.17l0.321,-0.171l0.321,-0.172l0.32,-0.174l0.32,-0.174l0.319,-0.175l0.319,-0.176l0.318,-0.178l0.318,-0.178l0.318,-0.179l0.316,-0.181l0.316,-0.181l0.316,-0.182l0.316,-0.184l0.315,-0.184l0.314,-0.185l0.313,-0.187l0.314,-0.187l0.313,-0.188l0.312,-0.19l0.312,-0.19l0.311,-0.191l0.31,-0.192l0.311,-0.194l0.309,-0.194l0.309,-0.195l0.309,-0.197l0.308,-0.197l0.307,-0.198l0.307,-0.2l0.306,-0.2l0.307,-0.201l0.305,-0.203l0.305,-0.203l0.304,-0.204l0.304,-0.205l0.303,-0.207l0.302,-0.206l0.302,-0.209l0.302,-0.209l0.301,-0.21l0.3,-0.211l0.3,-0.212l0.299,-0.214l0.299,-0.214l0.298,-0.215l0.298,-0.216l0.297,-0.217l0.296,-0.218l0.296,-0.219l0.295,-0.22l0.295,-0.221l0.294,-0.222l0.294,-0.223l0.293,-0.224l0.292,-0.224l0.292,-0.226l0.291,-0.227l0.291,-0.228l0.29,-0.229l0.289,-0.229l0.289,-0.231l0.288,-0.232l0.288,-0.233l0.287,-0.233l0.287,-0.235l0.285,-0.235l0.286,-0.237l0.284,-0.237l0.284,-0.239l0.284,-0.239l0.283,-0.241l0.282,-0.241l0.281,-0.242l0.281,-0.244l0.281,-0.244l0.279,-0.245l0.279,-0.246l0.279,-0.248l0.278,-0.248l0.277,-0.249l0.276,-0.25l0.276,-0.251l0.276,-0.252l0.274,-0.253l0.274,-0.254l0.273,-0.255l0.273,-0.256l0.272,-0.256l0.272,-0.258l0.271,-0.259l0.27,-0.259l0.269,-0.261l0.269,-0.261l0.268,-0.263l0.268,-0.264l0.266,-0.264l0.264,-0.263l0.353,-0.354l0.348,-0.352l0.346,-0.354l0.346,-0.355l0.343,-0.357l0.341,-0.357l0.34,-0.359l0.338,-0.36l0.337,-0.361l0.334,-0.362l0.333,-0.363l0.331,-0.365l0.33,-0.366l0.328,-0.367l0.326,-0.368l0.325,-0.369l0.322,-0.37l0.321,-0.371l0.32,-0.373l0.317,-0.374l0.316,-0.374l0.315,-0.376l0.312,-0.377l0.311,-0.378l0.309,-0.379l0.307,-0.381l0.306,-0.381l0.304,-0.383l0.302,-0.383l0.301,-0.384l0.299,-0.386l0.296,-0.387l0.296,-0.387l0.293,-0.389l0.292,-0.39l0.291,-0.391l0.288,-0.392l0.287,-0.392l0.285,-0.394l0.283,-0.395l0.282,-0.396l0.279,-0.397l0.279,-0.397l0.276,-0.399l0.274,-0.4l0.273,-0.401l0.272,-0.402l0.269,-0.402l0.268,-0.404l0.266,-0.404l0.264,-0.406l0.262,-0.406l0.261,-0.407l0.259,-0.409l0.257,-0.409l0.256,-0.41l0.254,-0.411l0.252,-0.412l0.25,-0.413l0.249,-0.413l0.246,-0.415l0.246,-0.416l0.243,-0.416l0.241,-0.417l0.24,-0.418l0.238,-0.419l0.237,-0.42l0.234,-0.42l0.233,-0.422l0.231,-0.422l0.229,-0.423l0.228,-0.424l0.226,-0.425l0.224,-0.425l0.222,-0.427l0.22,-0.427l0.219,-0.428l0.217,-0.429l0.215,-0.429l0.213,-0.43l0.212,-0.431l0.21,-0.432l0.208,-0.432l0.207,-0.434l0.204,-0.433l0.203,-0.435l0.201,-0.436l0.199,-0.436l0.198,-0.437l0.195,-0.437l0.194,-0.439l0.192,-0.439l0.191,-0.44l0.188,-0.44l0.187,-0.441l0.185,-0.442l0.183,-0.442l0.181,-0.443l0.18,-0.444l0.178,-0.445l0.176,-0.445l0.174,-0.445l0.172,-0.446l0.171,-0.447l0.169,-0.448l0.167,-0.448l0.165,-0.449l0.164,-0.449l0.161,-0.45l0.16,-0.451l0.158,-0.451l0.157,-0.452l0.154,-0.452l0.153,-0.453l0.15,-0.453l0.149,-0.454l0.148,-0.455l0.145,-0.455l0.143,-0.455l0.142,-0.456l0.14,-0.457l0.138,-0.457l0.136,-0.458l0.135,-0.458l0.133,-0.459l0.131,-0.459l0.128,-0.46l0.128,-0.46l0.125,-0.46l0.124,-0.461l0.121,-0.462l0.12,-0.462l0.118,-0.462l0.116,-0.463l0.115,-0.464l0.112,-0.463l0.111,-0.464l0.109,-0.465l0.107,-0.465l0.105,-0.465l0.104,-0.466l0.101,-0.466l0.1,-0.467l0.098,-0.467l0.096,-0.467l0.094,-0.467l0.092,-0.469l0.091,-0.468l0.088,-0.469l0.087,-0.469l0.085,-0.469l0.083,-0.47l0.081,-0.47l0.08,-0.47l0.077,-0.471l0.076,-0.471l0.074,-0.471l0.072,-0.472l0.07,-0.472l0.068,-0.472l0.066,-0.472l0.065,-0.473l0.062,-0.473l0.061,-0.473l0.059,-0.474l0.057,-0.474l0.055,-0.473l0.054,-0.474l0.051,-0.475l0.05,-0.474l0.047,-0.475l0.046,-0.475l0.044,-0.475l0.042,-0.476l0.04,-0.475l0.039,-0.476l0.036,-0.476l0.035,-0.476l0.032,-0.476l0.031,-0.477l0.029,-0.477l0.027,-0.476l0.025,-0.477l0.024,-0.477l0.021,-0.477l0.019,-0.477l0.018,-0.478l0.016,-0.477l0.014,-0.478l0.012,-0.478l0.01,-0.477l0.008,-0.478l0.006,-0.478l0.004,-0.478l0.003,-0.478l0,-0.478l-0.001,-0.478l-0.003,-0.478l-0.005,-0.478l-0.007,-0.479l-0.009,-0.478l-0.011,-0.478l-0.013,-0.479l-0.014,-0.478l-0.009,-0.241l-74.121,74.12l-2.692,2.066l-3.135,1.299l-3.365,0.443l-3.365,-0.443l-3.135,-1.299l-2.692,-2.066l-96.831,-96.832l-2.066,-2.692l-1.299,-3.136l-0.443,-3.364l0.443,-3.365l1.299,-3.135l2.066,-2.693l74.155,-74.155l-0.358,-0.013l-0.455,-0.015l-0.454,-0.013l-0.455,-0.011l-0.454,-0.01l-0.455,-0.008l-0.454,-0.006l-0.454,-0.004l-0.454,-0.003l-0.457,-0.001l-0.373,0.001Z" style="fill:#fff;"/></svg>