<?xml version="1.0" encoding="iso-8859-1"?>
<!-- Generator: Adobe Illustrator 19.0.0, SVG Export Plug-In . SVG Version: 6.00 Build 0)  -->
<svg xmlns="http://www.w3.org/2000/svg" xmlns:xlink="http://www.w3.org/1999/xlink" version="1.1" id="Layer_1" x="0px" y="0px" viewBox="0 0 511.999 511.999" style="enable-background:new 0 0 511.999 511.999;" xml:space="preserve" width="512px" height="512px">
<g>
	<g>
		<path d="M310.355,143.602c-5.77,0-10.449,4.678-10.449,10.449v0.245c0,5.771,4.679,10.449,10.449,10.449    c5.771,0,10.449-4.678,10.449-10.449v-0.245C320.804,148.28,316.125,143.602,310.355,143.602z" fill="#FFFFFF"/>
	</g>
</g>
<g>
	<g>
		<path d="M201.643,345.486c-5.77,0-10.449,4.678-10.449,10.449v0.245c0,5.771,4.679,10.449,10.449,10.449    c5.771,0,10.449-4.678,10.449-10.449v-0.245C212.092,350.164,207.414,345.486,201.643,345.486z" fill="#FFFFFF"/>
	</g>
</g>
<g>
	<g>
		<path d="M504.525,133.324c-14.803-45.128-39.322-58.013-60.954-69.379c-20.737-10.897-38.645-20.308-51.325-56.916    c-1.179-3.401-4.025-5.957-7.533-6.764c-3.505-0.806-7.184,0.249-9.729,2.794c-30.129,30.129-34.208,67.554-33.465,89.666    c-11.07-3.628-22.765-5.514-34.753-5.514c-29.703,0-57.628,11.567-78.632,32.57L120.07,227.845    c-30.505,30.505-39.548,74.468-27.13,112.954c-21.356-1.508-56.602,0.908-82.926,27.231c-2.786,2.787-3.767,6.902-2.54,10.645    c14.803,45.128,39.322,58.013,60.954,69.379c20.737,10.897,38.645,20.308,51.325,56.916c1.179,3.401,4.025,5.957,7.533,6.764    c0.776,0.179,1.561,0.265,2.341,0.265c2.74,0,5.407-1.078,7.388-3.06c30.124-30.125,33.898-67.862,32.935-90.227    c11.312,3.806,23.288,5.788,35.57,5.788c29.703,0,57.628-11.567,78.633-32.57l108.064-108.064    c30.42-30.421,39.494-74.229,27.226-112.637c2.911,0.197,6.072,0.322,9.429,0.322c21.319,0,50.507-4.977,73.113-27.581    C504.771,141.183,505.752,137.067,504.525,133.324z M132.682,481.541c-15.22-31.325-35.947-42.219-54.532-51.985    c-19.509-10.252-36.516-19.191-48.59-51.07c25.999-21.336,61.919-17.39,73.393-15.428c3.736,6.323,8.162,12.346,13.253,17.974    l-15.292,15.292c-4.08,4.08-4.08,10.697,0,14.778c2.041,2.041,4.715,3.06,7.388,3.06c2.674,0,5.348-1.02,7.388-3.06l15.291-15.291    c5.315,4.811,11.015,9.063,17.036,12.714C149.63,420.064,152.017,453.069,132.682,481.541z M377.44,269.089l-56.636,56.636V188.1    c0-5.771-4.679-10.449-10.449-10.449c-5.77,0-10.449,4.678-10.449,10.449v158.524l-30.531,30.531    c-17.056,17.057-39.733,26.45-63.855,26.45s-46.8-9.394-63.856-26.45l-6.818-6.818c-35.21-35.21-35.209-92.502,0.001-127.713    l56.347-56.347v135.855c0,5.771,4.679,10.449,10.449,10.449c5.771,0,10.449-4.678,10.449-10.449V165.378l30.818-30.818    c17.056-17.056,39.732-26.45,63.854-26.45c24.12,0,46.798,9.394,63.854,26.45l6.82,6.82    C412.649,176.59,412.65,233.88,377.44,269.089z M409.545,149.026c-3.774-6.448-8.252-12.595-13.434-18.328l15.323-15.323    c4.08-4.08,4.08-10.697,0-14.778c-4.081-4.08-10.696-4.08-14.778,0l-15.32,15.32c-5.614-5.087-11.665-9.537-18.062-13.323    c-1.517-11.586-3.466-43.883,16.017-72.19c15.222,31.367,35.962,42.266,54.558,52.038c19.509,10.252,36.516,19.191,48.59,51.07    C456.807,154.549,421.533,151.011,409.545,149.026z" fill="#FFFFFF"/>
	</g>
</g>
<g>
</g>
<g>
</g>
<g>
</g>
<g>
</g>
<g>
</g>
<g>
</g>
<g>
</g>
<g>
</g>
<g>
</g>
<g>
</g>
<g>
</g>
<g>
</g>
<g>
</g>
<g>
</g>
<g>
</g>
</svg>
