<svg enable-background="new 0 0 511.999 511.999" height="512" viewBox="0 0 511.999 511.999" width="512" xmlns="http://www.w3.org/2000/svg"><g fill="#fff"><path d="m310.355 143.602c-5.77 0-10.449 4.678-10.449 10.449v.245c0 5.771 4.679 10.449 10.449 10.449 5.771 0 10.449-4.678 10.449-10.449v-.245c0-5.771-4.679-10.449-10.449-10.449z"/><path d="m201.643 345.486c-5.77 0-10.449 4.678-10.449 10.449v.245c0 5.771 4.679 10.449 10.449 10.449 5.771 0 10.449-4.678 10.449-10.449v-.245c0-5.771-4.678-10.449-10.449-10.449z"/><path d="m504.525 133.324c-14.803-45.128-39.322-58.013-60.954-69.379-20.737-10.897-38.645-20.308-51.325-56.916-1.179-3.401-4.025-5.957-7.533-6.764-3.505-.806-7.184.249-9.729 2.794-30.129 30.129-34.208 67.554-33.465 89.666-11.07-3.628-22.765-5.514-34.753-5.514-29.703 0-57.628 11.567-78.632 32.57l-108.064 108.064c-30.505 30.505-39.548 74.468-27.13 112.954-21.356-1.508-56.602.908-82.926 27.231-2.786 2.787-3.767 6.902-2.54 10.645 14.803 45.128 39.322 58.013 60.954 69.379 20.737 10.897 38.645 20.308 51.325 56.916 1.179 3.401 4.025 5.957 7.533 6.764.776.179 1.561.265 2.341.265 2.74 0 5.407-1.078 7.388-3.06 30.124-30.125 33.898-67.862 32.935-90.227 11.312 3.806 23.288 5.788 35.57 5.788 29.703 0 57.628-11.567 78.633-32.57l108.064-108.064c30.42-30.421 39.494-74.229 27.226-112.637 2.911.197 6.072.322 9.429.322 21.319 0 50.507-4.977 73.113-27.581 2.786-2.787 3.767-6.903 2.54-10.646zm-371.843 348.217c-15.22-31.325-35.947-42.219-54.532-51.985-19.509-10.252-36.516-19.191-48.59-51.07 25.999-21.336 61.919-17.39 73.393-15.428 3.736 6.323 8.162 12.346 13.253 17.974l-15.292 15.292c-4.08 4.08-4.08 10.697 0 14.778 2.041 2.041 4.715 3.06 7.388 3.06 2.674 0 5.348-1.02 7.388-3.06l15.291-15.291c5.315 4.811 11.015 9.063 17.036 12.714 1.613 11.539 4 44.544-15.335 73.016zm244.758-212.452-56.636 56.636v-137.625c0-5.771-4.679-10.449-10.449-10.449s-10.449 4.678-10.449 10.449v158.524l-30.531 30.531c-17.056 17.057-39.733 26.45-63.855 26.45s-46.8-9.394-63.856-26.45l-6.818-6.818c-35.21-35.21-35.209-92.502.001-127.713l56.347-56.347v135.855c0 5.771 4.679 10.449 10.449 10.449 5.771 0 10.449-4.678 10.449-10.449v-156.754l30.818-30.818c17.056-17.056 39.732-26.45 63.854-26.45 24.12 0 46.798 9.394 63.854 26.45l6.82 6.82c35.211 35.21 35.212 92.5.002 127.709zm32.105-120.063c-3.774-6.448-8.252-12.595-13.434-18.328l15.323-15.323c4.08-4.08 4.08-10.697 0-14.778-4.081-4.08-10.696-4.08-14.778 0l-15.32 15.32c-5.614-5.087-11.665-9.537-18.062-13.323-1.517-11.586-3.466-43.883 16.017-72.19 15.222 31.367 35.962 42.266 54.558 52.038 19.509 10.252 36.516 19.191 48.59 51.07-25.632 21.037-60.906 17.499-72.894 15.514z"/></g></svg>