<svg enable-background="new 0 0 64.828 64.828" height="512" viewBox="0 0 64.828 64.828" width="512" xmlns="http://www.w3.org/2000/svg"><g fill="#fff"><path d="m57.414 17-.707.707c-1.324 1.324-2.287 1.707-4.293 1.707-4.056 0-7-2.944-7-7 0-2.006.383-2.969 1.707-4.293l.707-.707-7.414-7.414-40.414 40.414 7.414 7.414.707-.707c1.324-1.324 2.287-1.707 4.293-1.707 4.056 0 7 2.944 7 7 0 2.006-.383 2.969-1.707 4.293l-.707.707 7.414 7.414 40.414-40.414zm-37.614 40.385c1.192-1.421 1.614-2.79 1.614-4.971 0-5.131-3.869-9-9-9-2.181 0-3.55.422-4.972 1.614l-4.614-4.614 23.586-23.586 3.293 3.293 1.414-1.414-3.293-3.293 12.586-12.586 4.614 4.615c-1.192 1.421-1.614 2.79-1.614 4.971 0 5.131 3.869 9 9 9 2.181 0 3.55-.422 4.972-1.614l4.614 4.614-12.586 12.586-3.293-3.293-1.414 1.414 3.293 3.293-23.586 23.586z"/><path d="m35.707 26.122-4-4 1.414-1.414 4 4z"/><path d="m42.707 33.122-4-4 1.414-1.414 4 4z"/></g></svg>