<?xml version="1.0" standalone="no"?>
<!DOCTYPE svg PUBLIC "-//W3C//DTD SVG 20010904//EN"
 "http://www.w3.org/TR/2001/REC-SVG-20010904/DTD/svg10.dtd">
<svg version="1.0" xmlns="http://www.w3.org/2000/svg"
 width="260.000000pt" height="260.000000pt" viewBox="0 0 260.000000 260.000000"
 preserveAspectRatio="xMidYMid meet">
<metadata>
Created by potrace 1.14, written by Peter Selinger 2001-2017
</metadata>
<g transform="translate(0.000000,260.000000) scale(0.100000,-0.100000)"
fill="#000000" stroke="none">
<path d="M1189 2536 c-2 -2 -30 -7 -62 -10 -195 -21 -435 -128 -615 -274 -23
-19 -42 -38 -42 -42 0 -15 29 -4 67 26 126 100 288 186 433 227 120 35 146 38
315 42 175 5 257 -7 410 -57 60 -20 246 -106 255 -118 3 -4 23 -18 45 -32 22
-14 54 -38 70 -52 29 -25 71 -43 80 -34 9 9 -172 138 -255 182 -116 61 -267
113 -382 131 -44 7 -313 16 -319 11z"/>
<path d="M1948 2180 c-22 -6 -22 -7 -23 -175 0 -94 1 -176 3 -182 3 -10 35
-13 113 -13 l110 0 -3 -427 c-3 -386 -5 -431 -21 -460 -40 -75 -152 -81 -201
-11 -9 12 -19 43 -22 69 -3 25 -10 52 -14 60 -7 10 -57 13 -227 13 l-218 1 -1
-45 c-2 -71 22 -169 60 -246 83 -167 271 -274 486 -275 200 -2 364 74 483 224
45 56 78 137 93 226 4 20 7 307 9 639 2 549 1 602 -14 603 -88 4 -595 3 -613
-1z"/>
<path d="M11 1992 l1 -190 303 0 c167 -1 323 -4 346 -7 105 -16 179 -79 197
-169 25 -123 -21 -221 -127 -270 -41 -19 -70 -21 -277 -26 l-232 -5 301 -420
300 -420 244 0 c133 0 243 2 243 5 0 3 -99 130 -220 282 -121 153 -220 282
-220 287 0 5 15 12 33 15 116 22 258 138 315 257 90 188 78 416 -30 596 -65
109 -171 184 -313 224 -75 21 -104 23 -472 27 l-392 4 0 -190z"/>
<path d="M149 1753 c-5 -16 -14 -39 -19 -53 -21 -55 -50 -189 -58 -265 -12
-108 -5 -298 13 -375 63 -273 174 -478 347 -647 191 -186 389 -289 673 -349
50 -10 307 -13 360 -4 28 5 67 11 87 15 148 25 341 109 488 214 69 48 245 219
236 228 -9 9 -48 -21 -112 -84 -95 -92 -157 -139 -277 -207 -110 -63 -310
-126 -442 -141 -58 -6 -224 -7 -275 -1 -405 49 -773 308 -949 670 -47 96 -85
195 -95 247 -2 13 -7 35 -10 49 -15 66 -18 95 -21 227 -2 128 5 196 34 311 14
57 26 96 42 140 16 45 17 52 4 52 -9 0 -20 -12 -26 -27z"/>
</g>
</svg>
