<svg enable-background="new 0 0 53 53" viewBox="0 0 53 53" xmlns="http://www.w3.org/2000/svg"><path d="m18.613 41.552-7.907 4.313c-.464.253-.881.564-1.269.903 4.61 3.887 10.561 6.232 17.063 6.232 6.454 0 12.367-2.31 16.964-6.144-.424-.358-.884-.68-1.394-.934l-8.467-4.233c-1.094-.547-1.785-1.665-1.785-2.888v-3.322c.238-.271.51-.619.801-1.03 1.154-1.63 2.027-3.423 2.632-5.304 1.086-.335 1.886-1.338 1.886-2.53v-3.546c0-.78-.347-1.477-.886-1.965v-5.126s1.053-7.977-9.75-7.977-9.75 7.977-9.75 7.977v5.126c-.54.488-.886 1.185-.886 1.965v3.546c0 .934.491 1.756 1.226 2.231.886 3.857 3.206 6.633 3.206 6.633v3.24c-.001 1.18-.647 2.267-1.684 2.833z" fill="#e7eced"/><path d="m26.953.004c-14.633-.25-26.699 11.41-26.949 26.043-.142 8.297 3.556 15.754 9.444 20.713.385-.336.798-.644 1.257-.894l7.907-4.313c1.037-.566 1.683-1.653 1.683-2.835v-3.24s-2.321-2.776-3.206-6.633c-.734-.475-1.226-1.296-1.226-2.231v-3.546c0-.78.347-1.477.886-1.965v-5.126s-1.053-7.977 9.75-7.977 9.75 7.977 9.75 7.977v5.126c.54.488.886 1.185.886 1.965v3.546c0 1.192-.8 2.195-1.886 2.53-.605 1.881-1.478 3.674-2.632 5.304-.291.411-.563.759-.801 1.03v3.322c0 1.223.691 2.342 1.785 2.888l8.467 4.233c.508.254.967.575 1.39.932 5.71-4.762 9.399-11.882 9.536-19.9.252-14.633-11.407-26.699-26.041-26.949z" fill="#556080"/></svg>