<?xml version="1.0" encoding="UTF-8" standalone="no"?>
<!DOCTYPE svg PUBLIC "-//W3C//DTD SVG 1.1//EN" "http://www.w3.org/Graphics/SVG/1.1/DTD/svg11.dtd">
<svg width="100%" height="100%" viewBox="0 0 135 40" version="1.1" xmlns="http://www.w3.org/2000/svg" xmlns:xlink="http://www.w3.org/1999/xlink" xml:space="preserve" style="fill-rule:evenodd;clip-rule:evenodd;stroke-miterlimit:10;">
    <g transform="matrix(1,0,0,1,-10,-10)">
        <path d="M0,0L155,0L155,60L0,60L0,0Z" style="fill:none;"/>
    </g>
    <g transform="matrix(1,0,0,1,-10,-10)">
        <path d="M145,15C145,12.24 142.76,10 140,10L15,10C12.24,10 10,12.24 10,15L10,45C10,47.76 12.24,50 15,50L140,50C142.76,50 145,47.76 145,45L145,15Z"/>
    </g>
    <g transform="matrix(1,0,0,1,-10,-10)">
        <path d="M140,10.8C142.304,10.8 144.2,12.696 144.2,15L144.2,45C144.2,47.304 142.304,49.2 140,49.2L15,49.2C12.696,49.2 10.8,47.304 10.8,45L10.8,15C10.8,12.696 12.696,10.8 15,10.8L140,10.8M140,10L15,10C12.257,10 10,12.257 10,15L10,45C10,47.743 12.257,50 15,50L140,50C142.743,50 145,47.743 145,45L145,15C145,12.257 142.743,10 140,10Z" style="fill:rgb(166,166,166);fill-rule:nonzero;"/>
    </g>
    <g transform="matrix(1,0,0,1,-10,-10)">
        <path d="M78.14,31.75C75.816,31.761 73.91,33.676 73.91,36C73.91,38.331 75.829,40.25 78.16,40.25C80.491,40.25 82.41,38.331 82.41,36C82.41,35.98 82.41,35.959 82.41,35.939C82.41,33.641 80.519,31.749 78.22,31.749C78.194,31.749 78.167,31.749 78.14,31.75L78.14,31.75ZM78.14,38.58C78.08,38.584 78.02,38.586 77.96,38.586C76.545,38.586 75.38,37.422 75.38,36.006C75.38,34.591 76.545,33.426 77.96,33.426C79.373,33.426 80.537,34.587 80.54,36C80.542,36.04 80.543,36.08 80.543,36.121C80.543,37.449 79.468,38.549 78.14,38.58ZM68.83,31.75C66.502,31.755 64.59,33.672 64.59,36C64.59,38.331 66.509,40.25 68.84,40.25C71.171,40.25 73.09,38.331 73.09,36C73.09,35.98 73.09,35.959 73.09,35.939C73.09,33.641 71.199,31.749 68.9,31.749C68.874,31.749 68.847,31.749 68.82,31.75L68.83,31.75ZM68.83,38.58C68.767,38.585 68.703,38.587 68.64,38.587C67.225,38.587 66.06,37.422 66.06,36.007C66.06,34.592 67.225,33.427 68.64,33.427C70.053,33.427 71.216,34.587 71.22,36C71.222,36.04 71.223,36.08 71.223,36.121C71.223,37.449 70.148,38.549 68.82,38.58L68.83,38.58ZM57.74,33.06L57.74,34.86L62.06,34.86C61.992,35.708 61.64,36.508 61.06,37.13C60.186,38.02 58.976,38.5 57.73,38.45C55.097,38.45 52.93,36.283 52.93,33.65C52.93,31.017 55.097,28.85 57.73,28.85C58.947,28.83 60.124,29.294 61,30.14L62.27,28.87C61.075,27.66 59.44,26.985 57.74,27C57.654,26.997 57.569,26.995 57.483,26.995C53.857,26.995 50.873,29.979 50.873,33.605C50.873,37.231 53.857,40.215 57.483,40.215C57.569,40.215 57.654,40.213 57.74,40.21C59.471,40.288 61.153,39.613 62.35,38.36C63.397,37.209 63.957,35.695 63.91,34.14C63.913,33.761 63.88,33.383 63.81,33.01L57.74,33.06ZM103.05,34.46C102.517,32.893 101.064,31.811 99.41,31.75C99.407,31.75 99.405,31.75 99.402,31.75C97.208,31.75 95.402,33.556 95.402,35.75C95.402,35.833 95.405,35.917 95.41,36C95.409,36.03 95.409,36.06 95.409,36.09C95.409,38.373 97.287,40.25 99.569,40.25C99.589,40.25 99.61,40.25 99.63,40.25C101.049,40.258 102.381,39.55 103.17,38.37L101.72,37.37C101.28,38.103 100.485,38.552 99.63,38.55C98.745,38.584 97.926,38.07 97.57,37.26L103.26,34.91L103.05,34.46ZM97.25,35.88C97.247,35.829 97.245,35.778 97.245,35.728C97.245,34.489 98.233,33.456 99.47,33.4C100.128,33.357 100.752,33.712 101.05,34.3L97.25,35.88ZM92.63,40L94.5,40L94.5,27.5L92.63,27.5L92.63,40ZM89.57,32.7L89.5,32.7C88.93,32.063 88.115,31.699 87.26,31.7C85.003,31.809 83.206,33.696 83.206,35.955C83.206,38.214 85.003,40.101 87.26,40.21C88.117,40.224 88.938,39.858 89.5,39.21L89.56,39.21L89.56,39.82C89.56,41.45 88.69,42.32 87.29,42.32C86.338,42.298 85.49,41.699 85.15,40.81L83.52,41.49C84.146,43.014 85.643,44.01 87.29,44C89.48,44 91.29,42.71 91.29,39.57L91.29,32L89.57,32L89.57,32.7ZM87.43,38.58C86.1,38.463 85.067,37.335 85.067,36C85.067,34.665 86.1,33.537 87.43,33.42C88.699,33.485 89.707,34.547 89.707,35.817C89.707,35.878 89.705,35.939 89.7,36C89.706,36.067 89.709,36.134 89.709,36.202C89.709,37.473 88.69,38.531 87.42,38.58L87.43,38.58ZM111.81,27.5L107.34,27.5L107.34,40L109.21,40L109.21,35.26L111.82,35.26C111.913,35.267 112.006,35.27 112.099,35.27C114.233,35.27 115.989,33.514 115.989,31.38C115.989,29.246 114.233,27.49 112.099,27.49C112.006,27.49 111.913,27.493 111.82,27.5L111.81,27.5ZM111.81,33.5L109.2,33.5L109.2,29.24L111.85,29.24C113.027,29.24 113.995,30.208 113.995,31.385C113.995,32.562 113.027,33.53 111.85,33.53L111.81,33.5ZM123.34,31.7C121.951,31.617 120.639,32.369 120.01,33.61L121.67,34.3C122.004,33.685 122.672,33.323 123.37,33.38C123.439,33.372 123.509,33.368 123.579,33.368C124.499,33.368 125.279,34.074 125.37,34.99L125.37,35.12C124.769,34.802 124.1,34.637 123.42,34.64C121.63,34.64 119.82,35.64 119.82,37.45C119.89,38.984 121.171,40.208 122.707,40.208C122.778,40.208 122.849,40.205 122.92,40.2C123.878,40.269 124.8,39.808 125.32,39L125.38,39L125.38,40L127.18,40L127.18,35.19C127.18,33 125.52,31.73 123.39,31.73L123.34,31.7ZM123.11,38.55C122.5,38.55 121.65,38.24 121.65,37.49C121.65,36.49 122.71,36.16 123.65,36.16C124.244,36.145 124.831,36.29 125.35,36.58C125.221,37.694 124.281,38.553 123.16,38.58L123.11,38.55ZM133.74,32L131.6,37.42L131.54,37.42L129.32,32L127.32,32L130.65,39.58L128.75,43.79L130.7,43.79L135.82,32L133.74,32ZM116.93,40L118.8,40L118.8,27.5L116.93,27.5L116.93,40Z" style="fill:white;fill-rule:nonzero;"/>
    </g>
    <g transform="matrix(1,0,0,1,-10,-10)">
        <path d="M20.44,17.54C20.114,17.931 19.95,18.432 19.98,18.94L19.98,41.06C19.95,41.568 20.114,42.069 20.44,42.46L20.51,42.53L32.9,30.15L32.9,29.86L20.51,17.47L20.44,17.54Z" style="fill:url(#_Linear1);fill-rule:nonzero;"/>
    </g>
    <g transform="matrix(1,0,0,1,-10,-10)">
        <path d="M37,34.28L32.9,30.15L32.9,29.86L37,25.72L37.09,25.77L42,28.56C43.4,29.35 43.4,30.65 42,31.45L37.11,34.23L37,34.28Z" style="fill:url(#_Linear2);fill-rule:nonzero;"/>
    </g>
    <g transform="matrix(1,0,0,1,-10,-10)">
        <path d="M37.12,34.22L32.9,30L20.44,42.46C21.026,42.975 21.905,43.001 22.52,42.52L37.13,34.22" style="fill:url(#_Linear3);fill-rule:nonzero;"/>
    </g>
    <g transform="matrix(1,0,0,1,-10,-10)">
        <path d="M37.12,25.78L22.51,17.48C21.895,16.999 21.016,17.025 20.43,17.54L32.9,30L37.12,25.78Z" style="fill:url(#_Linear4);fill-rule:nonzero;"/>
    </g>
    <g transform="matrix(1,0,0,1,-10,-10)">
        <path d="M37,34.13L22.51,42.38C21.919,42.822 21.101,42.822 20.51,42.38L20.44,42.45L20.51,42.52C21.1,42.965 21.92,42.965 22.51,42.52L37.12,34.22L37,34.13Z" style="fill-opacity:0.2;fill-rule:nonzero;"/>
    </g>
    <g transform="matrix(1,0,0,1,-10,-10)">
        <path d="M20.44,42.32C20.114,41.929 19.95,41.428 19.98,40.92L19.98,41.07C19.95,41.578 20.114,42.079 20.44,42.47L20.51,42.4L20.44,42.32ZM42,31.3L37,34.13L37.09,34.22L42,31.44C42.566,31.174 42.949,30.624 43,30C42.886,30.564 42.516,31.045 42,31.3L42,31.3Z" style="fill-opacity:0.12;fill-rule:nonzero;"/>
    </g>
    <g transform="matrix(1,0,0,1,-10,-10)">
        <path d="M22.51,17.62L42,28.7C42.516,28.955 42.886,29.436 43,30C42.949,29.376 42.566,28.826 42,28.56L22.51,17.48C21.11,16.69 19.97,17.35 19.97,18.95L19.97,19.1C20,17.49 21.12,16.83 22.51,17.62L22.51,17.62Z" style="fill:white;fill-opacity:0.25;fill-rule:nonzero;"/>
    </g>
    <g transform="matrix(1,0,0,1,-10,-10)">
        <path d="M51.28,23L51.28,17L53.12,17C53.939,16.963 54.738,17.263 55.33,17.83C55.893,18.408 56.193,19.194 56.16,20C56.193,20.806 55.893,21.592 55.33,22.17C54.738,22.737 53.939,23.037 53.12,23L51.28,23ZM52.05,22.26L53.11,22.26C53.718,22.292 54.314,22.075 54.76,21.66C55.183,21.215 55.404,20.613 55.37,20C55.375,19.941 55.377,19.882 55.377,19.823C55.377,18.677 54.434,17.733 53.287,17.733C53.232,17.733 53.176,17.736 53.12,17.74L52,17.74L52.05,22.26ZM57.24,23L57.24,17L58,17L58,23L57.24,23ZM61.07,23.13C60.609,23.122 60.162,22.972 59.79,22.7C59.376,22.417 59.083,21.989 58.97,21.5L59.67,21.22C59.75,21.543 59.928,21.833 60.18,22.05C60.42,22.269 60.735,22.391 61.06,22.39C61.367,22.4 61.67,22.309 61.92,22.13C62.154,21.967 62.29,21.695 62.28,21.41C62.293,21.11 62.158,20.822 61.92,20.64C61.575,20.407 61.193,20.235 60.79,20.13C60.342,20.01 59.928,19.787 59.58,19.48C59.311,19.218 59.163,18.855 59.17,18.48C59.171,18.051 59.357,17.642 59.68,17.36C60.039,17.031 60.513,16.855 61,16.87C61.445,16.85 61.883,16.984 62.24,17.25C62.525,17.458 62.741,17.747 62.86,18.08L62.16,18.37C62.099,18.157 61.969,17.971 61.79,17.84C61.334,17.512 60.716,17.512 60.26,17.84C60.062,17.984 59.946,18.215 59.95,18.46C59.949,18.685 60.057,18.898 60.24,19.03C60.498,19.214 60.785,19.353 61.09,19.44C61.342,19.52 61.589,19.613 61.83,19.72C62.042,19.819 62.243,19.94 62.43,20.08C62.628,20.221 62.786,20.41 62.89,20.63C63,20.872 63.054,21.135 63.05,21.4C63.055,21.671 62.993,21.939 62.87,22.18C62.758,22.397 62.593,22.583 62.39,22.72C62.193,22.855 61.978,22.959 61.75,23.03C61.529,23.096 61.3,23.129 61.07,23.13L61.07,23.13ZM65,23L64.23,23L64.23,17L66.23,17C66.719,16.994 67.192,17.176 67.55,17.51C67.908,17.839 68.111,18.304 68.111,18.79C68.111,19.276 67.908,19.741 67.55,20.07C67.193,20.404 66.719,20.587 66.23,20.58L65,20.58L65,23ZM65,19.83L66.29,19.83C66.586,19.841 66.872,19.72 67.07,19.5C67.265,19.312 67.376,19.051 67.376,18.78C67.376,18.509 67.265,18.248 67.07,18.06C66.872,17.84 66.586,17.719 66.29,17.73L65,17.73L65,19.83ZM74,22.22C72.791,23.422 70.809,23.422 69.6,22.22C68.427,20.978 68.427,19.012 69.6,17.77C70.182,17.184 70.974,16.854 71.8,16.854C72.626,16.854 73.418,17.184 74,17.77C75.178,19.009 75.178,20.981 74,22.22L74,22.22ZM70.17,21.72C71.065,22.612 72.535,22.612 73.43,21.72C74.311,20.749 74.311,19.251 73.43,18.28C72.535,17.388 71.065,17.388 70.17,18.28C69.289,19.251 69.289,20.749 70.17,21.72ZM75.95,23L75.95,17L76.89,17L79.81,21.67L79.81,17L80.58,17L80.58,23L79.78,23L76.73,18.11L76.73,23L75.95,23ZM81.95,23L81.95,17L82.72,17L82.72,23L81.95,23ZM84.09,23L84.09,17L86.26,17C86.71,16.991 87.147,17.156 87.48,17.46C87.818,17.753 88.009,18.182 88,18.63C88.005,18.897 87.928,19.158 87.78,19.38C87.633,19.595 87.429,19.765 87.19,19.87C87.48,19.966 87.734,20.147 87.92,20.39C88.112,20.635 88.215,20.939 88.21,21.25C88.22,21.716 88.022,22.164 87.67,22.47C87.322,22.791 86.864,22.967 86.39,22.96L84.09,23ZM84.86,19.57L86.26,19.57C86.524,19.581 86.781,19.475 86.96,19.28C87.146,19.111 87.252,18.872 87.252,18.621C87.252,18.389 87.162,18.166 87,18C86.831,17.809 86.585,17.702 86.33,17.71L84.86,17.71L84.86,19.57ZM84.86,22.26L86.41,22.26C86.684,22.269 86.948,22.155 87.13,21.95C87.306,21.767 87.406,21.524 87.41,21.27C87.41,20.721 86.959,20.27 86.41,20.27L84.86,20.27L84.86,22.26ZM89.24,23L89.24,17L90,17L90,22.26L92.6,22.26L92.6,23L89.24,23ZM97.08,17.74L94.35,17.74L94.35,19.64L96.81,19.64L96.81,20.36L94.35,20.36L94.35,22.26L97.08,22.26L97.08,23L93.58,23L93.58,17L97.08,17L97.08,17.74ZM101.74,23.13C101.279,23.122 100.832,22.972 100.46,22.7C100.046,22.417 99.753,21.989 99.64,21.5L100.34,21.22C100.42,21.543 100.598,21.833 100.85,22.05C101.09,22.269 101.405,22.391 101.73,22.39C102.037,22.4 102.34,22.309 102.59,22.13C102.824,21.967 102.96,21.695 102.95,21.41C102.963,21.11 102.828,20.822 102.59,20.64C102.245,20.407 101.863,20.235 101.46,20.13C101.012,20.01 100.598,19.787 100.25,19.48C99.981,19.218 99.833,18.855 99.84,18.48C99.841,18.051 100.027,17.642 100.35,17.36C100.713,17.032 101.191,16.86 101.68,16.88C102.125,16.86 102.563,16.994 102.92,17.26C103.205,17.468 103.421,17.757 103.54,18.09L102.84,18.38C102.779,18.167 102.649,17.981 102.47,17.85C102.014,17.522 101.396,17.522 100.94,17.85C100.742,17.994 100.626,18.225 100.63,18.47C100.629,18.695 100.737,18.908 100.92,19.04C101.178,19.224 101.465,19.363 101.77,19.45C102.022,19.53 102.269,19.623 102.51,19.73C102.722,19.829 102.923,19.95 103.11,20.09C103.308,20.231 103.466,20.42 103.57,20.64C103.68,20.882 103.734,21.145 103.73,21.41C103.735,21.681 103.673,21.949 103.55,22.19C103.438,22.407 103.273,22.593 103.07,22.73C102.873,22.865 102.658,22.969 102.43,23.04C102.206,23.103 101.973,23.134 101.74,23.13L101.74,23.13ZM106.94,23.13C106.335,23.154 105.748,22.917 105.33,22.48C104.906,22.014 104.683,21.399 104.71,20.77L104.71,17L105.48,17L105.48,20.8C105.46,21.215 105.592,21.624 105.85,21.95C106.431,22.543 107.392,22.566 108,22C108.258,21.674 108.39,21.265 108.37,20.85L108.37,17L109.14,17L109.14,20.77C109.168,21.396 108.953,22.009 108.54,22.48C108.125,22.916 107.542,23.153 106.94,23.13L106.94,23.13ZM110.4,23L110.4,17L112.4,17C112.889,16.994 113.362,17.176 113.72,17.51C114.398,18.134 114.465,19.196 113.87,19.9C113.615,20.21 113.263,20.425 112.87,20.51L114.55,23L113.64,23L112,20.57L111.14,20.57L111.14,23L110.4,23ZM111.17,19.85L112.41,19.85C112.702,19.856 112.985,19.748 113.2,19.55C113.415,19.356 113.535,19.079 113.53,18.79C113.528,18.522 113.424,18.265 113.24,18.07C113.042,17.85 112.756,17.729 112.46,17.74L111.17,17.74L111.17,19.85Z" style="fill:white;fill-rule:nonzero;stroke:white;stroke-width:0.2px;"/>
    </g>
    <defs>
        <linearGradient id="_Linear1" x1="0" y1="0" x2="1" y2="0" gradientUnits="userSpaceOnUse" gradientTransform="matrix(-16.78,16.78,-16.78,-16.78,31.8,18.71)"><stop offset="0" style="stop-color:rgb(0,160,255);stop-opacity:1"/><stop offset="0.01" style="stop-color:rgb(0,161,255);stop-opacity:1"/><stop offset="0.26" style="stop-color:rgb(0,190,255);stop-opacity:1"/><stop offset="0.51" style="stop-color:rgb(0,210,255);stop-opacity:1"/><stop offset="0.76" style="stop-color:rgb(0,223,255);stop-opacity:1"/><stop offset="1" style="stop-color:rgb(0,227,255);stop-opacity:1"/></linearGradient>
        <linearGradient id="_Linear2" x1="0" y1="0" x2="1" y2="0" gradientUnits="userSpaceOnUse" gradientTransform="matrix(-24.19,2.96242e-15,-2.96242e-15,-24.19,43.83,30)"><stop offset="0" style="stop-color:rgb(255,224,0);stop-opacity:1"/><stop offset="0.41" style="stop-color:rgb(255,189,0);stop-opacity:1"/><stop offset="0.78" style="stop-color:rgb(255,165,0);stop-opacity:1"/><stop offset="1" style="stop-color:rgb(255,156,0);stop-opacity:1"/></linearGradient>
        <linearGradient id="_Linear3" x1="0" y1="0" x2="1" y2="0" gradientUnits="userSpaceOnUse" gradientTransform="matrix(-22.76,22.75,-22.75,-22.76,34.83,32.3)"><stop offset="0" style="stop-color:rgb(255,58,68);stop-opacity:1"/><stop offset="1" style="stop-color:rgb(195,17,98);stop-opacity:1"/></linearGradient>
        <linearGradient id="_Linear4" x1="0" y1="0" x2="1" y2="0" gradientUnits="userSpaceOnUse" gradientTransform="matrix(10.16,10.16,-10.16,10.16,17.3,10.18)"><stop offset="0" style="stop-color:rgb(50,160,113);stop-opacity:1"/><stop offset="0.07" style="stop-color:rgb(45,167,113);stop-opacity:1"/><stop offset="0.48" style="stop-color:rgb(21,207,116);stop-opacity:1"/><stop offset="0.8" style="stop-color:rgb(6,231,117);stop-opacity:1"/><stop offset="1" style="stop-color:rgb(0,240,118);stop-opacity:1"/></linearGradient>
    </defs>
</svg>
