<?xml version="1.0" encoding="UTF-8" standalone="no"?><!DOCTYPE svg PUBLIC "-//W3C//DTD SVG 1.1//EN" "http://www.w3.org/Graphics/SVG/1.1/DTD/svg11.dtd"><svg width="100%" height="100%" viewBox="0 0 512 360" version="1.1" xmlns="http://www.w3.org/2000/svg" xmlns:xlink="http://www.w3.org/1999/xlink" xml:space="preserve" xmlns:serif="http://www.serif.com/" style="fill-rule:evenodd;clip-rule:evenodd;stroke-linejoin:round;stroke-miterlimit:1.41421;"><path id="XMLID_823_" d="M492.044,30.769c-18.482,-21.97 -52.604,-30.932 -117.77,-30.932l-236.553,0c-66.657,0 -101.357,9.54 -119.77,32.93c-17.951,22.805 -17.951,56.408 -17.951,102.914l0,88.64c0,90.097 21.299,135.842 137.721,135.842l236.554,0c56.512,0 87.826,-7.908 108.085,-27.296c20.776,-19.882 29.64,-52.345 29.64,-108.546l0,-88.64c0,-49.045 -1.389,-82.845 -19.956,-104.912Zm-163.338,161.469l-107.418,56.14c-2.401,1.256 -5.027,1.878 -7.65,1.878c-2.97,0 -5.933,-0.799 -8.557,-2.388c-4.942,-2.994 -7.959,-8.35 -7.959,-14.128l0,-111.92c0,-5.767 3.009,-11.118 7.941,-14.114c4.933,-2.996 11.069,-3.201 16.187,-0.542l107.418,55.778c5.465,2.838 8.897,8.48 8.905,14.635c0.007,6.161 -3.41,11.811 -8.867,14.661Z" style="fill:#fff;fill-rule:nonzero;"/></svg>